<?xml version="1.0" encoding="utf-8"?>
<svg xmlns="http://www.w3.org/2000/svg" xmlns:xlink="http://www.w3.org/1999/xlink" width="600" height="400" viewBox="0 0 2400 1600">
<defs>
  <clipPath id="clip430">
    <rect x="0" y="0" width="2400" height="1600"/>
  </clipPath>
</defs>
<path clip-path="url(#clip430)" d="
M0 1600 L2400 1600 L2400 0 L0 0  Z
  " fill="#ffffff" fill-rule="evenodd" fill-opacity="1"/>
<defs>
  <clipPath id="clip431">
    <rect x="480" y="0" width="1681" height="1600"/>
  </clipPath>
</defs>
<path clip-path="url(#clip430)" d="
M169.7 1486.45 L2352.76 1486.45 L2352.76 47.2441 L169.7 47.2441  Z
  " fill="#ffffff" fill-rule="evenodd" fill-opacity="1"/>
<defs>
  <clipPath id="clip432">
    <rect x="169" y="47" width="2184" height="1440"/>
  </clipPath>
</defs>
<polyline clip-path="url(#clip432)" style="stroke:#000000; stroke-width:2; stroke-opacity:0.1; fill:none" points="
  400.238,1486.45 400.238,47.2441 
  "/>
<polyline clip-path="url(#clip432)" style="stroke:#000000; stroke-width:2; stroke-opacity:0.1; fill:none" points="
  797.654,1486.45 797.654,47.2441 
  "/>
<polyline clip-path="url(#clip432)" style="stroke:#000000; stroke-width:2; stroke-opacity:0.1; fill:none" points="
  1195.07,1486.45 1195.07,47.2441 
  "/>
<polyline clip-path="url(#clip432)" style="stroke:#000000; stroke-width:2; stroke-opacity:0.1; fill:none" points="
  1592.49,1486.45 1592.49,47.2441 
  "/>
<polyline clip-path="url(#clip432)" style="stroke:#000000; stroke-width:2; stroke-opacity:0.1; fill:none" points="
  1989.9,1486.45 1989.9,47.2441 
  "/>
<polyline clip-path="url(#clip430)" style="stroke:#000000; stroke-width:4; stroke-opacity:1; fill:none" points="
  169.7,1486.45 2352.76,1486.45 
  "/>
<polyline clip-path="url(#clip430)" style="stroke:#000000; stroke-width:4; stroke-opacity:1; fill:none" points="
  400.238,1486.45 400.238,1469.18 
  "/>
<polyline clip-path="url(#clip430)" style="stroke:#000000; stroke-width:4; stroke-opacity:1; fill:none" points="
  797.654,1486.45 797.654,1469.18 
  "/>
<polyline clip-path="url(#clip430)" style="stroke:#000000; stroke-width:4; stroke-opacity:1; fill:none" points="
  1195.07,1486.45 1195.07,1469.18 
  "/>
<polyline clip-path="url(#clip430)" style="stroke:#000000; stroke-width:4; stroke-opacity:1; fill:none" points="
  1592.49,1486.45 1592.49,1469.18 
  "/>
<polyline clip-path="url(#clip430)" style="stroke:#000000; stroke-width:4; stroke-opacity:1; fill:none" points="
  1989.9,1486.45 1989.9,1469.18 
  "/>
<path clip-path="url(#clip430)" d="M 0 0 M358.306 1530.29 L387.981 1530.29 L387.981 1534.23 L358.306 1534.23 L358.306 1530.29 Z" fill="#000000" fill-rule="evenodd" fill-opacity="1" /><path clip-path="url(#clip430)" d="M 0 0 M403.629 1527.98 Q400.481 1527.98 398.63 1530.13 Q396.801 1532.28 396.801 1536.03 Q396.801 1539.76 398.63 1541.93 Q400.481 1544.09 403.629 1544.09 Q406.778 1544.09 408.606 1541.93 Q410.458 1539.76 410.458 1536.03 Q410.458 1532.28 408.606 1530.13 Q406.778 1527.98 403.629 1527.98 M412.912 1513.32 L412.912 1517.58 Q411.153 1516.75 409.347 1516.31 Q407.565 1515.87 405.805 1515.87 Q401.176 1515.87 398.722 1519 Q396.292 1522.12 395.944 1528.44 Q397.31 1526.43 399.37 1525.36 Q401.43 1524.27 403.907 1524.27 Q409.116 1524.27 412.125 1527.44 Q415.157 1530.59 415.157 1536.03 Q415.157 1541.36 412.009 1544.57 Q408.861 1547.79 403.629 1547.79 Q397.634 1547.79 394.463 1543.21 Q391.292 1538.6 391.292 1529.87 Q391.292 1521.68 395.18 1516.82 Q399.069 1511.93 405.62 1511.93 Q407.379 1511.93 409.162 1512.28 Q410.967 1512.63 412.912 1513.32 Z" fill="#000000" fill-rule="evenodd" fill-opacity="1" /><path clip-path="url(#clip430)" d="M 0 0 M430.227 1515.64 Q426.615 1515.64 424.787 1519.2 Q422.981 1522.75 422.981 1529.87 Q422.981 1536.98 424.787 1540.55 Q426.615 1544.09 430.227 1544.09 Q433.861 1544.09 435.666 1540.55 Q437.495 1536.98 437.495 1529.87 Q437.495 1522.75 435.666 1519.2 Q433.861 1515.64 430.227 1515.64 M430.227 1511.93 Q436.037 1511.93 439.092 1516.54 Q442.171 1521.12 442.171 1529.87 Q442.171 1538.6 439.092 1543.21 Q436.037 1547.79 430.227 1547.79 Q424.416 1547.79 421.338 1543.21 Q418.282 1538.6 418.282 1529.87 Q418.282 1521.12 421.338 1516.54 Q424.416 1511.93 430.227 1511.93 Z" fill="#000000" fill-rule="evenodd" fill-opacity="1" /><path clip-path="url(#clip430)" d="M 0 0 M756.127 1530.29 L785.803 1530.29 L785.803 1534.23 L756.127 1534.23 L756.127 1530.29 Z" fill="#000000" fill-rule="evenodd" fill-opacity="1" /><path clip-path="url(#clip430)" d="M 0 0 M805.039 1528.49 Q808.395 1529.2 810.27 1531.47 Q812.168 1533.74 812.168 1537.07 Q812.168 1542.19 808.65 1544.99 Q805.131 1547.79 798.65 1547.79 Q796.474 1547.79 794.159 1547.35 Q791.867 1546.93 789.414 1546.08 L789.414 1541.56 Q791.358 1542.7 793.673 1543.28 Q795.988 1543.86 798.511 1543.86 Q802.909 1543.86 805.201 1542.12 Q807.515 1540.38 807.515 1537.07 Q807.515 1534.02 805.363 1532.31 Q803.233 1530.57 799.414 1530.57 L795.386 1530.57 L795.386 1526.73 L799.599 1526.73 Q803.048 1526.73 804.877 1525.36 Q806.705 1523.97 806.705 1521.38 Q806.705 1518.72 804.807 1517.31 Q802.932 1515.87 799.414 1515.87 Q797.492 1515.87 795.293 1516.29 Q793.094 1516.7 790.455 1517.58 L790.455 1513.42 Q793.117 1512.68 795.432 1512.31 Q797.77 1511.93 799.83 1511.93 Q805.154 1511.93 808.256 1514.37 Q811.358 1516.77 811.358 1520.89 Q811.358 1523.76 809.715 1525.75 Q808.071 1527.72 805.039 1528.49 Z" fill="#000000" fill-rule="evenodd" fill-opacity="1" /><path clip-path="url(#clip430)" d="M 0 0 M827.238 1515.64 Q823.626 1515.64 821.798 1519.2 Q819.992 1522.75 819.992 1529.87 Q819.992 1536.98 821.798 1540.55 Q823.626 1544.09 827.238 1544.09 Q830.872 1544.09 832.677 1540.55 Q834.506 1536.98 834.506 1529.87 Q834.506 1522.75 832.677 1519.2 Q830.872 1515.64 827.238 1515.64 M827.238 1511.93 Q833.048 1511.93 836.103 1516.54 Q839.182 1521.12 839.182 1529.87 Q839.182 1538.6 836.103 1543.21 Q833.048 1547.79 827.238 1547.79 Q821.427 1547.79 818.349 1543.21 Q815.293 1538.6 815.293 1529.87 Q815.293 1521.12 818.349 1516.54 Q821.427 1511.93 827.238 1511.93 Z" fill="#000000" fill-rule="evenodd" fill-opacity="1" /><path clip-path="url(#clip430)" d="M 0 0 M1195.07 1515.64 Q1191.46 1515.64 1189.63 1519.2 Q1187.83 1522.75 1187.83 1529.87 Q1187.83 1536.98 1189.63 1540.55 Q1191.46 1544.09 1195.07 1544.09 Q1198.7 1544.09 1200.51 1540.55 Q1202.34 1536.98 1202.34 1529.87 Q1202.34 1522.75 1200.51 1519.2 Q1198.7 1515.64 1195.07 1515.64 M1195.07 1511.93 Q1200.88 1511.93 1203.94 1516.54 Q1207.01 1521.12 1207.01 1529.87 Q1207.01 1538.6 1203.94 1543.21 Q1200.88 1547.79 1195.07 1547.79 Q1189.26 1547.79 1186.18 1543.21 Q1183.13 1538.6 1183.13 1529.87 Q1183.13 1521.12 1186.18 1516.54 Q1189.26 1511.93 1195.07 1511.93 Z" fill="#000000" fill-rule="evenodd" fill-opacity="1" /><path clip-path="url(#clip430)" d="M 0 0 M1583.23 1528.49 Q1586.58 1529.2 1588.46 1531.47 Q1590.36 1533.74 1590.36 1537.07 Q1590.36 1542.19 1586.84 1544.99 Q1583.32 1547.79 1576.84 1547.79 Q1574.66 1547.79 1572.35 1547.35 Q1570.06 1546.93 1567.6 1546.08 L1567.6 1541.56 Q1569.55 1542.7 1571.86 1543.28 Q1574.18 1543.86 1576.7 1543.86 Q1581.1 1543.86 1583.39 1542.12 Q1585.7 1540.38 1585.7 1537.07 Q1585.7 1534.02 1583.55 1532.31 Q1581.42 1530.57 1577.6 1530.57 L1573.57 1530.57 L1573.57 1526.73 L1577.79 1526.73 Q1581.24 1526.73 1583.07 1525.36 Q1584.89 1523.97 1584.89 1521.38 Q1584.89 1518.72 1583 1517.31 Q1581.12 1515.87 1577.6 1515.87 Q1575.68 1515.87 1573.48 1516.29 Q1571.28 1516.7 1568.64 1517.58 L1568.64 1513.42 Q1571.31 1512.68 1573.62 1512.31 Q1575.96 1511.93 1578.02 1511.93 Q1583.34 1511.93 1586.45 1514.37 Q1589.55 1516.77 1589.55 1520.89 Q1589.55 1523.76 1587.9 1525.75 Q1586.26 1527.72 1583.23 1528.49 Z" fill="#000000" fill-rule="evenodd" fill-opacity="1" /><path clip-path="url(#clip430)" d="M 0 0 M1605.43 1515.64 Q1601.82 1515.64 1599.99 1519.2 Q1598.18 1522.75 1598.18 1529.87 Q1598.18 1536.98 1599.99 1540.55 Q1601.82 1544.09 1605.43 1544.09 Q1609.06 1544.09 1610.87 1540.55 Q1612.69 1536.98 1612.69 1529.87 Q1612.69 1522.75 1610.87 1519.2 Q1609.06 1515.64 1605.43 1515.64 M1605.43 1511.93 Q1611.24 1511.93 1614.29 1516.54 Q1617.37 1521.12 1617.37 1529.87 Q1617.37 1538.6 1614.29 1543.21 Q1611.24 1547.79 1605.43 1547.79 Q1599.62 1547.79 1596.54 1543.21 Q1593.48 1538.6 1593.48 1529.87 Q1593.48 1521.12 1596.54 1516.54 Q1599.62 1511.93 1605.43 1511.93 Z" fill="#000000" fill-rule="evenodd" fill-opacity="1" /><path clip-path="url(#clip430)" d="M 0 0 M1976.8 1527.98 Q1973.65 1527.98 1971.8 1530.13 Q1969.97 1532.28 1969.97 1536.03 Q1969.97 1539.76 1971.8 1541.93 Q1973.65 1544.09 1976.8 1544.09 Q1979.95 1544.09 1981.78 1541.93 Q1983.63 1539.76 1983.63 1536.03 Q1983.63 1532.28 1981.78 1530.13 Q1979.95 1527.98 1976.8 1527.98 M1986.08 1513.32 L1986.08 1517.58 Q1984.32 1516.75 1982.52 1516.31 Q1980.74 1515.87 1978.98 1515.87 Q1974.35 1515.87 1971.89 1519 Q1969.46 1522.12 1969.12 1528.44 Q1970.48 1526.43 1972.54 1525.36 Q1974.6 1524.27 1977.08 1524.27 Q1982.29 1524.27 1985.3 1527.44 Q1988.33 1530.59 1988.33 1536.03 Q1988.33 1541.36 1985.18 1544.57 Q1982.03 1547.79 1976.8 1547.79 Q1970.81 1547.79 1967.63 1543.21 Q1964.46 1538.6 1964.46 1529.87 Q1964.46 1521.68 1968.35 1516.82 Q1972.24 1511.93 1978.79 1511.93 Q1980.55 1511.93 1982.33 1512.28 Q1984.14 1512.63 1986.08 1513.32 Z" fill="#000000" fill-rule="evenodd" fill-opacity="1" /><path clip-path="url(#clip430)" d="M 0 0 M2003.4 1515.64 Q1999.79 1515.64 1997.96 1519.2 Q1996.15 1522.75 1996.15 1529.87 Q1996.15 1536.98 1997.96 1540.55 Q1999.79 1544.09 2003.4 1544.09 Q2007.03 1544.09 2008.84 1540.55 Q2010.67 1536.98 2010.67 1529.87 Q2010.67 1522.75 2008.84 1519.2 Q2007.03 1515.64 2003.4 1515.64 M2003.4 1511.93 Q2009.21 1511.93 2012.26 1516.54 Q2015.34 1521.12 2015.34 1529.87 Q2015.34 1538.6 2012.26 1543.21 Q2009.21 1547.79 2003.4 1547.79 Q1997.59 1547.79 1994.51 1543.21 Q1991.45 1538.6 1991.45 1529.87 Q1991.45 1521.12 1994.51 1516.54 Q1997.59 1511.93 2003.4 1511.93 Z" fill="#000000" fill-rule="evenodd" fill-opacity="1" /><polyline clip-path="url(#clip432)" style="stroke:#000000; stroke-width:2; stroke-opacity:0.1; fill:none" points="
  169.7,1204.21 2352.76,1204.21 
  "/>
<polyline clip-path="url(#clip432)" style="stroke:#000000; stroke-width:2; stroke-opacity:0.1; fill:none" points="
  169.7,818.944 2352.76,818.944 
  "/>
<polyline clip-path="url(#clip432)" style="stroke:#000000; stroke-width:2; stroke-opacity:0.1; fill:none" points="
  169.7,433.679 2352.76,433.679 
  "/>
<polyline clip-path="url(#clip432)" style="stroke:#000000; stroke-width:2; stroke-opacity:0.1; fill:none" points="
  169.7,48.4137 2352.76,48.4137 
  "/>
<polyline clip-path="url(#clip430)" style="stroke:#000000; stroke-width:4; stroke-opacity:1; fill:none" points="
  169.7,1486.45 169.7,47.2441 
  "/>
<polyline clip-path="url(#clip430)" style="stroke:#000000; stroke-width:4; stroke-opacity:1; fill:none" points="
  169.7,1204.21 195.897,1204.21 
  "/>
<polyline clip-path="url(#clip430)" style="stroke:#000000; stroke-width:4; stroke-opacity:1; fill:none" points="
  169.7,818.944 195.897,818.944 
  "/>
<polyline clip-path="url(#clip430)" style="stroke:#000000; stroke-width:4; stroke-opacity:1; fill:none" points="
  169.7,433.679 195.897,433.679 
  "/>
<polyline clip-path="url(#clip430)" style="stroke:#000000; stroke-width:4; stroke-opacity:1; fill:none" points="
  169.7,48.4137 195.897,48.4137 
  "/>
<path clip-path="url(#clip430)" d="M 0 0 M50.9921 1204.66 L80.6679 1204.66 L80.6679 1208.6 L50.9921 1208.6 L50.9921 1204.66 Z" fill="#000000" fill-rule="evenodd" fill-opacity="1" /><path clip-path="url(#clip430)" d="M 0 0 M85.7836 1186.93 L104.14 1186.93 L104.14 1190.86 L90.066 1190.86 L90.066 1199.34 Q91.0845 1198.99 92.103 1198.83 Q93.1215 1198.64 94.14 1198.64 Q99.927 1198.64 103.307 1201.81 Q106.686 1204.98 106.686 1210.4 Q106.686 1215.98 103.214 1219.08 Q99.7419 1222.16 93.4225 1222.16 Q91.2465 1222.16 88.978 1221.79 Q86.7327 1221.42 84.3253 1220.68 L84.3253 1215.98 Q86.4086 1217.11 88.6308 1217.67 Q90.853 1218.23 93.3299 1218.23 Q97.3345 1218.23 99.6724 1216.12 Q102.01 1214.01 102.01 1210.4 Q102.01 1206.79 99.6724 1204.68 Q97.3345 1202.58 93.3299 1202.58 Q91.4549 1202.58 89.5799 1202.99 Q87.728 1203.41 85.7836 1204.29 L85.7836 1186.93 Z" fill="#000000" fill-rule="evenodd" fill-opacity="1" /><path clip-path="url(#clip430)" d="M 0 0 M121.756 1190.01 Q118.145 1190.01 116.316 1193.57 Q114.51 1197.11 114.51 1204.24 Q114.51 1211.35 116.316 1214.92 Q118.145 1218.46 121.756 1218.46 Q125.39 1218.46 127.195 1214.92 Q129.024 1211.35 129.024 1204.24 Q129.024 1197.11 127.195 1193.57 Q125.39 1190.01 121.756 1190.01 M121.756 1186.3 Q127.566 1186.3 130.621 1190.91 Q133.7 1195.49 133.7 1204.24 Q133.7 1212.97 130.621 1217.58 Q127.566 1222.16 121.756 1222.16 Q115.945 1222.16 112.867 1217.58 Q109.811 1212.97 109.811 1204.24 Q109.811 1195.49 112.867 1190.91 Q115.945 1186.3 121.756 1186.3 Z" fill="#000000" fill-rule="evenodd" fill-opacity="1" /><path clip-path="url(#clip430)" d="M 0 0 M121.756 804.743 Q118.145 804.743 116.316 808.307 Q114.51 811.849 114.51 818.979 Q114.51 826.085 116.316 829.65 Q118.145 833.192 121.756 833.192 Q125.39 833.192 127.195 829.65 Q129.024 826.085 129.024 818.979 Q129.024 811.849 127.195 808.307 Q125.39 804.743 121.756 804.743 M121.756 801.039 Q127.566 801.039 130.621 805.645 Q133.7 810.229 133.7 818.979 Q133.7 827.705 130.621 832.312 Q127.566 836.895 121.756 836.895 Q115.945 836.895 112.867 832.312 Q109.811 827.705 109.811 818.979 Q109.811 810.229 112.867 805.645 Q115.945 801.039 121.756 801.039 Z" fill="#000000" fill-rule="evenodd" fill-opacity="1" /><path clip-path="url(#clip430)" d="M 0 0 M85.7836 416.399 L104.14 416.399 L104.14 420.334 L90.066 420.334 L90.066 428.806 Q91.0845 428.459 92.103 428.297 Q93.1215 428.112 94.14 428.112 Q99.927 428.112 103.307 431.283 Q106.686 434.454 106.686 439.871 Q106.686 445.45 103.214 448.551 Q99.7419 451.63 93.4225 451.63 Q91.2465 451.63 88.978 451.26 Q86.7327 450.889 84.3253 450.149 L84.3253 445.45 Q86.4086 446.584 88.6308 447.139 Q90.853 447.695 93.3299 447.695 Q97.3345 447.695 99.6724 445.588 Q102.01 443.482 102.01 439.871 Q102.01 436.26 99.6724 434.153 Q97.3345 432.047 93.3299 432.047 Q91.4549 432.047 89.5799 432.464 Q87.728 432.88 85.7836 433.76 L85.7836 416.399 Z" fill="#000000" fill-rule="evenodd" fill-opacity="1" /><path clip-path="url(#clip430)" d="M 0 0 M121.756 419.478 Q118.145 419.478 116.316 423.042 Q114.51 426.584 114.51 433.714 Q114.51 440.82 116.316 444.385 Q118.145 447.926 121.756 447.926 Q125.39 447.926 127.195 444.385 Q129.024 440.82 129.024 433.714 Q129.024 426.584 127.195 423.042 Q125.39 419.478 121.756 419.478 M121.756 415.774 Q127.566 415.774 130.621 420.38 Q133.7 424.964 133.7 433.714 Q133.7 442.44 130.621 447.047 Q127.566 451.63 121.756 451.63 Q115.945 451.63 112.867 447.047 Q109.811 442.44 109.811 433.714 Q109.811 424.964 112.867 420.38 Q115.945 415.774 121.756 415.774 Z" fill="#000000" fill-rule="evenodd" fill-opacity="1" /><path clip-path="url(#clip430)" d="M 0 0 M59.7652 61.7585 L67.4041 61.7585 L67.4041 35.3929 L59.0939 37.0596 L59.0939 32.8004 L67.3578 31.1337 L72.0337 31.1337 L72.0337 61.7585 L79.6725 61.7585 L79.6725 65.6937 L59.7652 65.6937 L59.7652 61.7585 Z" fill="#000000" fill-rule="evenodd" fill-opacity="1" /><path clip-path="url(#clip430)" d="M 0 0 M94.7419 34.2124 Q91.1308 34.2124 89.3021 37.7772 Q87.4966 41.3188 87.4966 48.4484 Q87.4966 55.5549 89.3021 59.1197 Q91.1308 62.6613 94.7419 62.6613 Q98.3761 62.6613 100.182 59.1197 Q102.01 55.5549 102.01 48.4484 Q102.01 41.3188 100.182 37.7772 Q98.3761 34.2124 94.7419 34.2124 M94.7419 30.5087 Q100.552 30.5087 103.608 35.1152 Q106.686 39.6985 106.686 48.4484 Q106.686 57.1752 103.608 61.7817 Q100.552 66.365 94.7419 66.365 Q88.9317 66.365 85.8531 61.7817 Q82.7975 57.1752 82.7975 48.4484 Q82.7975 39.6985 85.8531 35.1152 Q88.9317 30.5087 94.7419 30.5087 Z" fill="#000000" fill-rule="evenodd" fill-opacity="1" /><path clip-path="url(#clip430)" d="M 0 0 M121.756 34.2124 Q118.145 34.2124 116.316 37.7772 Q114.51 41.3188 114.51 48.4484 Q114.51 55.5549 116.316 59.1197 Q118.145 62.6613 121.756 62.6613 Q125.39 62.6613 127.195 59.1197 Q129.024 55.5549 129.024 48.4484 Q129.024 41.3188 127.195 37.7772 Q125.39 34.2124 121.756 34.2124 M121.756 30.5087 Q127.566 30.5087 130.621 35.1152 Q133.7 39.6985 133.7 48.4484 Q133.7 57.1752 130.621 61.7817 Q127.566 66.365 121.756 66.365 Q115.945 66.365 112.867 61.7817 Q109.811 57.1752 109.811 48.4484 Q109.811 39.6985 112.867 35.1152 Q115.945 30.5087 121.756 30.5087 Z" fill="#000000" fill-rule="evenodd" fill-opacity="1" /><path clip-path="url(#clip432)" d="
M1701.04 1173.57 L1746.98 1173.57 L1746.98 1157.42 L1701.04 1157.42 L1701.04 1173.57  Z
  " fill="#009af9" fill-rule="evenodd" fill-opacity="0.3"/>
<polyline clip-path="url(#clip432)" style="stroke:#000000; stroke-width:4; stroke-opacity:0.3; fill:none" points="
  1701.04,1173.57 1746.98,1173.57 1746.98,1157.42 1701.04,1157.42 1701.04,1173.57 
  "/>
<path clip-path="url(#clip432)" d="
M621.953 1216.04 L667.288 1216.04 L667.288 1188.11 L621.953 1188.11 L621.953 1216.04  Z
  " fill="#009af9" fill-rule="evenodd" fill-opacity="0.3"/>
<polyline clip-path="url(#clip432)" style="stroke:#000000; stroke-width:4; stroke-opacity:0.3; fill:none" points="
  621.953,1216.04 667.288,1216.04 667.288,1188.11 621.953,1188.11 621.953,1216.04 
  "/>
<path clip-path="url(#clip432)" d="
M333.169 1113.44 L360.922 1113.44 L360.922 1095.81 L333.169 1095.81 L333.169 1113.44  Z
  " fill="#009af9" fill-rule="evenodd" fill-opacity="0.3"/>
<polyline clip-path="url(#clip432)" style="stroke:#000000; stroke-width:4; stroke-opacity:0.3; fill:none" points="
  333.169,1113.44 360.922,1113.44 360.922,1095.81 333.169,1095.81 333.169,1113.44 
  "/>
<path clip-path="url(#clip432)" d="
M1783.9 730.744 L1830.57 730.744 L1830.57 715.094 L1783.9 715.094 L1783.9 730.744  Z
  " fill="#009af9" fill-rule="evenodd" fill-opacity="0.3"/>
<polyline clip-path="url(#clip432)" style="stroke:#000000; stroke-width:4; stroke-opacity:0.3; fill:none" points="
  1783.9,730.744 1830.57,730.744 1830.57,715.094 1783.9,715.094 1783.9,730.744 
  "/>
<path clip-path="url(#clip432)" d="
M833.239 689.432 L872.91 689.432 L872.91 658.817 L833.239 658.817 L833.239 689.432  Z
  " fill="#009af9" fill-rule="evenodd" fill-opacity="0.3"/>
<polyline clip-path="url(#clip432)" style="stroke:#000000; stroke-width:4; stroke-opacity:0.3; fill:none" points="
  833.239,689.432 872.91,689.432 872.91,658.817 833.239,658.817 833.239,689.432 
  "/>
<path clip-path="url(#clip432)" d="
M900.897 105.743 L928.551 105.743 L928.551 87.9763 L900.897 87.9763 L900.897 105.743  Z
  " fill="#009af9" fill-rule="evenodd" fill-opacity="0.3"/>
<polyline clip-path="url(#clip432)" style="stroke:#000000; stroke-width:4; stroke-opacity:0.3; fill:none" points="
  900.897,105.743 928.551,105.743 928.551,87.9763 900.897,87.9763 900.897,105.743 
  "/>
<path clip-path="url(#clip432)" d="
M1701.04 1173.57 L1746.98 1173.57 L1746.98 1157.42 L1701.04 1157.42 L1701.04 1173.57  Z
  " fill="#e26f46" fill-rule="evenodd" fill-opacity="0.3"/>
<polyline clip-path="url(#clip432)" style="stroke:#000000; stroke-width:4; stroke-opacity:0.3; fill:none" points="
  1701.04,1173.57 1746.98,1173.57 1746.98,1157.42 1701.04,1157.42 1701.04,1173.57 
  "/>
<path clip-path="url(#clip432)" d="
M621.953 1216.04 L667.288 1216.04 L667.288 1188.11 L621.953 1188.11 L621.953 1216.04  Z
  " fill="#e26f46" fill-rule="evenodd" fill-opacity="0.3"/>
<polyline clip-path="url(#clip432)" style="stroke:#000000; stroke-width:4; stroke-opacity:0.3; fill:none" points="
  621.953,1216.04 667.288,1216.04 667.288,1188.11 621.953,1188.11 621.953,1216.04 
  "/>
<path clip-path="url(#clip432)" d="
M333.169 1113.44 L360.922 1113.44 L360.922 1095.81 L333.169 1095.81 L333.169 1113.44  Z
  " fill="#e26f46" fill-rule="evenodd" fill-opacity="0.3"/>
<polyline clip-path="url(#clip432)" style="stroke:#000000; stroke-width:4; stroke-opacity:0.3; fill:none" points="
  333.169,1113.44 360.922,1113.44 360.922,1095.81 333.169,1095.81 333.169,1113.44 
  "/>
<path clip-path="url(#clip432)" d="
M1783.9 730.744 L1830.57 730.744 L1830.57 715.094 L1783.9 715.094 L1783.9 730.744  Z
  " fill="#e26f46" fill-rule="evenodd" fill-opacity="0.3"/>
<polyline clip-path="url(#clip432)" style="stroke:#000000; stroke-width:4; stroke-opacity:0.3; fill:none" points="
  1783.9,730.744 1830.57,730.744 1830.57,715.094 1783.9,715.094 1783.9,730.744 
  "/>
<path clip-path="url(#clip432)" d="
M833.239 689.432 L872.91 689.432 L872.91 658.817 L833.239 658.817 L833.239 689.432  Z
  " fill="#e26f46" fill-rule="evenodd" fill-opacity="0.3"/>
<polyline clip-path="url(#clip432)" style="stroke:#000000; stroke-width:4; stroke-opacity:0.3; fill:none" points="
  833.239,689.432 872.91,689.432 872.91,658.817 833.239,658.817 833.239,689.432 
  "/>
<path clip-path="url(#clip432)" d="
M900.897 105.743 L928.551 105.743 L928.551 87.9763 L900.897 87.9763 L900.897 105.743  Z
  " fill="#e26f46" fill-rule="evenodd" fill-opacity="0.3"/>
<polyline clip-path="url(#clip432)" style="stroke:#000000; stroke-width:4; stroke-opacity:0.3; fill:none" points="
  900.897,105.743 928.551,105.743 928.551,87.9763 900.897,87.9763 900.897,105.743 
  "/>
<path clip-path="url(#clip432)" d="
M1247.28 585.536 L1288.57 585.536 L1288.57 561.166 L1247.28 561.166 L1247.28 585.536  Z
  " fill="#3da44d" fill-rule="evenodd" fill-opacity="0.3"/>
<polyline clip-path="url(#clip432)" style="stroke:#000000; stroke-width:4; stroke-opacity:0.3; fill:none" points="
  1247.28,585.536 1288.57,585.536 1288.57,561.166 1247.28,561.166 1247.28,585.536 
  "/>
<path clip-path="url(#clip432)" d="
M1715.63 672.135 L1765.04 672.135 L1765.04 642.371 L1715.63 642.371 L1715.63 672.135  Z
  " fill="#3da44d" fill-rule="evenodd" fill-opacity="0.3"/>
<polyline clip-path="url(#clip432)" style="stroke:#000000; stroke-width:4; stroke-opacity:0.3; fill:none" points="
  1715.63,672.135 1765.04,672.135 1765.04,642.371 1715.63,642.371 1715.63,672.135 
  "/>
<path clip-path="url(#clip432)" d="
M869.874 980.96 L905.767 980.96 L905.767 962.587 L869.874 962.587 L869.874 980.96  Z
  " fill="#3da44d" fill-rule="evenodd" fill-opacity="0.3"/>
<polyline clip-path="url(#clip432)" style="stroke:#000000; stroke-width:4; stroke-opacity:0.3; fill:none" points="
  869.874,980.96 905.767,980.96 905.767,962.587 869.874,962.587 869.874,980.96 
  "/>
<path clip-path="url(#clip432)" d="
M231.485 884.282 L282.304 884.282 L282.304 861.227 L231.485 861.227 L231.485 884.282  Z
  " fill="#3da44d" fill-rule="evenodd" fill-opacity="0.3"/>
<polyline clip-path="url(#clip432)" style="stroke:#000000; stroke-width:4; stroke-opacity:0.3; fill:none" points="
  231.485,884.282 282.304,884.282 282.304,861.227 231.485,861.227 231.485,884.282 
  "/>
<path clip-path="url(#clip432)" d="
M1959.32 886.686 L1994.89 886.686 L1994.89 868.631 L1959.32 868.631 L1959.32 886.686  Z
  " fill="#3da44d" fill-rule="evenodd" fill-opacity="0.3"/>
<polyline clip-path="url(#clip432)" style="stroke:#000000; stroke-width:4; stroke-opacity:0.3; fill:none" points="
  1959.32,886.686 1994.89,886.686 1994.89,868.631 1959.32,868.631 1959.32,886.686 
  "/>
<path clip-path="url(#clip432)" d="
M1304.97 1445.72 L1332.91 1445.72 L1332.91 1416.72 L1304.97 1416.72 L1304.97 1445.72  Z
  " fill="#3da44d" fill-rule="evenodd" fill-opacity="0.3"/>
<polyline clip-path="url(#clip432)" style="stroke:#000000; stroke-width:4; stroke-opacity:0.3; fill:none" points="
  1304.97,1445.72 1332.91,1445.72 1332.91,1416.72 1304.97,1416.72 1304.97,1445.72 
  "/>
<path clip-path="url(#clip432)" d="
M1455.54 791.976 L1488.28 791.976 L1488.28 767.184 L1455.54 767.184 L1455.54 791.976  Z
  " fill="#c271d2" fill-rule="evenodd" fill-opacity="0.3"/>
<polyline clip-path="url(#clip432)" style="stroke:#000000; stroke-width:4; stroke-opacity:0.3; fill:none" points="
  1455.54,791.976 1488.28,791.976 1488.28,767.184 1455.54,767.184 1455.54,791.976 
  "/>
<path clip-path="url(#clip432)" d="
M1041.92 704.082 L1091.4 704.082 L1091.4 674.953 L1041.92 674.953 L1041.92 704.082  Z
  " fill="#c271d2" fill-rule="evenodd" fill-opacity="0.3"/>
<polyline clip-path="url(#clip432)" style="stroke:#000000; stroke-width:4; stroke-opacity:0.3; fill:none" points="
  1041.92,704.082 1091.4,704.082 1091.4,674.953 1041.92,674.953 1041.92,704.082 
  "/>
<path clip-path="url(#clip432)" d="
M905.51 1351.32 L935.688 1351.32 L935.688 1325.98 L905.51 1325.98 L905.51 1351.32  Z
  " fill="#c271d2" fill-rule="evenodd" fill-opacity="0.3"/>
<polyline clip-path="url(#clip432)" style="stroke:#000000; stroke-width:4; stroke-opacity:0.3; fill:none" points="
  905.51,1351.32 935.688,1351.32 935.688,1325.98 905.51,1325.98 905.51,1351.32 
  "/>
<path clip-path="url(#clip432)" d="
M702.207 926.634 L738.408 926.634 L738.408 900.521 L702.207 900.521 L702.207 926.634  Z
  " fill="#c271d2" fill-rule="evenodd" fill-opacity="0.3"/>
<polyline clip-path="url(#clip432)" style="stroke:#000000; stroke-width:4; stroke-opacity:0.3; fill:none" points="
  702.207,926.634 738.408,926.634 738.408,900.521 702.207,900.521 702.207,926.634 
  "/>
<path clip-path="url(#clip432)" d="
M1348.1 423.501 L1380.81 423.501 L1380.81 407.658 L1348.1 407.658 L1348.1 423.501  Z
  " fill="#c271d2" fill-rule="evenodd" fill-opacity="0.3"/>
<polyline clip-path="url(#clip432)" style="stroke:#000000; stroke-width:4; stroke-opacity:0.3; fill:none" points="
  1348.1,423.501 1380.81,423.501 1380.81,407.658 1348.1,407.658 1348.1,423.501 
  "/>
<path clip-path="url(#clip432)" d="
M795.657 432.742 L833.265 432.742 L833.265 405.689 L795.657 405.689 L795.657 432.742  Z
  " fill="#c271d2" fill-rule="evenodd" fill-opacity="0.3"/>
<polyline clip-path="url(#clip432)" style="stroke:#000000; stroke-width:4; stroke-opacity:0.3; fill:none" points="
  795.657,432.742 833.265,432.742 833.265,405.689 795.657,405.689 795.657,432.742 
  "/>
<path clip-path="url(#clip432)" d="
M840.042 1258.87 L871.418 1258.87 L871.418 1233.96 L840.042 1233.96 L840.042 1258.87  Z
  " fill="#ac8d18" fill-rule="evenodd" fill-opacity="0.3"/>
<polyline clip-path="url(#clip432)" style="stroke:#000000; stroke-width:4; stroke-opacity:0.3; fill:none" points="
  840.042,1258.87 871.418,1258.87 871.418,1233.96 840.042,1233.96 840.042,1258.87 
  "/>
<path clip-path="url(#clip432)" d="
M2247.22 897.586 L2290.97 897.586 L2290.97 873.017 L2247.22 873.017 L2247.22 897.586  Z
  " fill="#ac8d18" fill-rule="evenodd" fill-opacity="0.3"/>
<polyline clip-path="url(#clip432)" style="stroke:#000000; stroke-width:4; stroke-opacity:0.3; fill:none" points="
  2247.22,897.586 2290.97,897.586 2290.97,873.017 2247.22,873.017 2247.22,897.586 
  "/>
<path clip-path="url(#clip432)" d="
M845.578 574.864 L877.367 574.864 L877.367 547.731 L845.578 547.731 L845.578 574.864  Z
  " fill="#ac8d18" fill-rule="evenodd" fill-opacity="0.3"/>
<polyline clip-path="url(#clip432)" style="stroke:#000000; stroke-width:4; stroke-opacity:0.3; fill:none" points="
  845.578,574.864 877.367,574.864 877.367,547.731 845.578,547.731 845.578,574.864 
  "/>
<path clip-path="url(#clip432)" d="
M1551.99 803.795 L1593.63 803.795 L1593.63 784.29 L1551.99 784.29 L1551.99 803.795  Z
  " fill="#ac8d18" fill-rule="evenodd" fill-opacity="0.3"/>
<polyline clip-path="url(#clip432)" style="stroke:#000000; stroke-width:4; stroke-opacity:0.3; fill:none" points="
  1551.99,803.795 1593.63,803.795 1593.63,784.29 1551.99,784.29 1551.99,803.795 
  "/>
<path clip-path="url(#clip432)" d="
M1184.28 511.688 L1228.89 511.688 L1228.89 486.592 L1184.28 486.592 L1184.28 511.688  Z
  " fill="#ac8d18" fill-rule="evenodd" fill-opacity="0.3"/>
<polyline clip-path="url(#clip432)" style="stroke:#000000; stroke-width:4; stroke-opacity:0.3; fill:none" points="
  1184.28,511.688 1228.89,511.688 1228.89,486.592 1184.28,486.592 1184.28,511.688 
  "/>
<path clip-path="url(#clip432)" d="
M1094.12 1349.52 L1132.51 1349.52 L1132.51 1327.17 L1094.12 1327.17 L1094.12 1349.52  Z
  " fill="#ac8d18" fill-rule="evenodd" fill-opacity="0.3"/>
<polyline clip-path="url(#clip432)" style="stroke:#000000; stroke-width:4; stroke-opacity:0.3; fill:none" points="
  1094.12,1349.52 1132.51,1349.52 1132.51,1327.17 1094.12,1327.17 1094.12,1349.52 
  "/>
<path clip-path="url(#clip430)" d="
M1984.69 458.098 L2279.99 458.098 L2279.99 95.2176 L1984.69 95.2176  Z
  " fill="#ffffff" fill-rule="evenodd" fill-opacity="1"/>
<polyline clip-path="url(#clip430)" style="stroke:#000000; stroke-width:4; stroke-opacity:1; fill:none" points="
  1984.69,458.098 2279.99,458.098 2279.99,95.2176 1984.69,95.2176 1984.69,458.098 
  "/>
<path clip-path="url(#clip430)" d="
M2008.95 179.89 L2154.49 179.89 L2154.49 131.506 L2008.95 131.506 L2008.95 179.89  Z
  " fill="#009af9" fill-rule="evenodd" fill-opacity="0.3"/>
<polyline clip-path="url(#clip430)" style="stroke:#000000; stroke-width:4; stroke-opacity:1; fill:none" points="
  2008.95,179.89 2154.49,179.89 2154.49,131.506 2008.95,131.506 2008.95,179.89 
  "/>
<path clip-path="url(#clip430)" d="M 0 0 M2192.59 175.385 Q2190.78 180.015 2189.07 181.427 Q2187.35 182.839 2184.48 182.839 L2181.08 182.839 L2181.08 179.274 L2183.58 179.274 Q2185.34 179.274 2186.31 178.44 Q2187.29 177.607 2188.47 174.505 L2189.23 172.561 L2178.74 147.052 L2183.26 147.052 L2191.36 167.329 L2199.46 147.052 L2203.98 147.052 L2192.59 175.385 Z" fill="#000000" fill-rule="evenodd" fill-opacity="1" /><path clip-path="url(#clip430)" d="M 0 0 M2209.85 169.042 L2217.49 169.042 L2217.49 142.677 L2209.18 144.343 L2209.18 140.084 L2217.45 138.418 L2222.12 138.418 L2222.12 169.042 L2229.76 169.042 L2229.76 172.978 L2209.85 172.978 L2209.85 169.042 Z" fill="#000000" fill-rule="evenodd" fill-opacity="1" /><path clip-path="url(#clip430)" d="
M2008.95 240.37 L2154.49 240.37 L2154.49 191.986 L2008.95 191.986 L2008.95 240.37  Z
  " fill="#e26f46" fill-rule="evenodd" fill-opacity="0.3"/>
<polyline clip-path="url(#clip430)" style="stroke:#000000; stroke-width:4; stroke-opacity:1; fill:none" points="
  2008.95,240.37 2154.49,240.37 2154.49,191.986 2008.95,191.986 2008.95,240.37 
  "/>
<path clip-path="url(#clip430)" d="M 0 0 M2192.59 235.865 Q2190.78 240.495 2189.07 241.907 Q2187.35 243.319 2184.48 243.319 L2181.08 243.319 L2181.08 239.754 L2183.58 239.754 Q2185.34 239.754 2186.31 238.92 Q2187.29 238.087 2188.47 234.985 L2189.23 233.041 L2178.74 207.532 L2183.26 207.532 L2191.36 227.809 L2199.46 207.532 L2203.98 207.532 L2192.59 235.865 Z" fill="#000000" fill-rule="evenodd" fill-opacity="1" /><path clip-path="url(#clip430)" d="M 0 0 M2213.07 229.522 L2229.39 229.522 L2229.39 233.458 L2207.45 233.458 L2207.45 229.522 Q2210.11 226.768 2214.69 222.138 Q2219.3 217.485 2220.48 216.143 Q2222.73 213.62 2223.6 211.884 Q2224.51 210.124 2224.51 208.435 Q2224.51 205.68 2222.56 203.944 Q2220.64 202.208 2217.54 202.208 Q2215.34 202.208 2212.89 202.972 Q2210.46 203.735 2207.68 205.286 L2207.68 200.564 Q2210.5 199.43 2212.96 198.851 Q2215.41 198.273 2217.45 198.273 Q2222.82 198.273 2226.01 200.958 Q2229.21 203.643 2229.21 208.134 Q2229.21 210.263 2228.4 212.185 Q2227.61 214.083 2225.5 216.675 Q2224.92 217.347 2221.82 220.564 Q2218.72 223.759 2213.07 229.522 Z" fill="#000000" fill-rule="evenodd" fill-opacity="1" /><path clip-path="url(#clip430)" d="
M2008.95 300.85 L2154.49 300.85 L2154.49 252.466 L2008.95 252.466 L2008.95 300.85  Z
  " fill="#3da44d" fill-rule="evenodd" fill-opacity="0.3"/>
<polyline clip-path="url(#clip430)" style="stroke:#000000; stroke-width:4; stroke-opacity:1; fill:none" points="
  2008.95,300.85 2154.49,300.85 2154.49,252.466 2008.95,252.466 2008.95,300.85 
  "/>
<path clip-path="url(#clip430)" d="M 0 0 M2192.59 296.345 Q2190.78 300.975 2189.07 302.387 Q2187.35 303.799 2184.48 303.799 L2181.08 303.799 L2181.08 300.234 L2183.58 300.234 Q2185.34 300.234 2186.31 299.4 Q2187.29 298.567 2188.47 295.465 L2189.23 293.521 L2178.74 268.012 L2183.26 268.012 L2191.36 288.289 L2199.46 268.012 L2203.98 268.012 L2192.59 296.345 Z" fill="#000000" fill-rule="evenodd" fill-opacity="1" /><path clip-path="url(#clip430)" d="M 0 0 M2223.21 275.303 Q2226.57 276.021 2228.44 278.289 Q2230.34 280.558 2230.34 283.891 Q2230.34 289.007 2226.82 291.808 Q2223.3 294.609 2216.82 294.609 Q2214.65 294.609 2212.33 294.169 Q2210.04 293.752 2207.59 292.896 L2207.59 288.382 Q2209.53 289.516 2211.85 290.095 Q2214.16 290.674 2216.68 290.674 Q2221.08 290.674 2223.37 288.938 Q2225.69 287.201 2225.69 283.891 Q2225.69 280.836 2223.54 279.123 Q2221.41 277.387 2217.59 277.387 L2213.56 277.387 L2213.56 273.544 L2217.77 273.544 Q2221.22 273.544 2223.05 272.178 Q2224.88 270.79 2224.88 268.197 Q2224.88 265.535 2222.98 264.123 Q2221.1 262.688 2217.59 262.688 Q2215.66 262.688 2213.47 263.104 Q2211.27 263.521 2208.63 264.401 L2208.63 260.234 Q2211.29 259.493 2213.6 259.123 Q2215.94 258.753 2218 258.753 Q2223.33 258.753 2226.43 261.183 Q2229.53 263.59 2229.53 267.711 Q2229.53 270.581 2227.89 272.572 Q2226.24 274.54 2223.21 275.303 Z" fill="#000000" fill-rule="evenodd" fill-opacity="1" /><path clip-path="url(#clip430)" d="
M2008.95 361.33 L2154.49 361.33 L2154.49 312.946 L2008.95 312.946 L2008.95 361.33  Z
  " fill="#c271d2" fill-rule="evenodd" fill-opacity="0.3"/>
<polyline clip-path="url(#clip430)" style="stroke:#000000; stroke-width:4; stroke-opacity:1; fill:none" points="
  2008.95,361.33 2154.49,361.33 2154.49,312.946 2008.95,312.946 2008.95,361.33 
  "/>
<path clip-path="url(#clip430)" d="M 0 0 M2192.59 356.825 Q2190.78 361.455 2189.07 362.867 Q2187.35 364.279 2184.48 364.279 L2181.08 364.279 L2181.08 360.714 L2183.58 360.714 Q2185.34 360.714 2186.31 359.88 Q2187.29 359.047 2188.47 355.945 L2189.23 354.001 L2178.74 328.492 L2183.26 328.492 L2191.36 348.769 L2199.46 328.492 L2203.98 328.492 L2192.59 356.825 Z" fill="#000000" fill-rule="evenodd" fill-opacity="1" /><path clip-path="url(#clip430)" d="M 0 0 M2221.89 323.932 L2210.09 342.381 L2221.89 342.381 L2221.89 323.932 M2220.66 319.858 L2226.54 319.858 L2226.54 342.381 L2231.48 342.381 L2231.48 346.269 L2226.54 346.269 L2226.54 354.418 L2221.89 354.418 L2221.89 346.269 L2206.29 346.269 L2206.29 341.756 L2220.66 319.858 Z" fill="#000000" fill-rule="evenodd" fill-opacity="1" /><path clip-path="url(#clip430)" d="
M2008.95 421.81 L2154.49 421.81 L2154.49 373.426 L2008.95 373.426 L2008.95 421.81  Z
  " fill="#ac8d18" fill-rule="evenodd" fill-opacity="0.3"/>
<polyline clip-path="url(#clip430)" style="stroke:#000000; stroke-width:4; stroke-opacity:1; fill:none" points="
  2008.95,421.81 2154.49,421.81 2154.49,373.426 2008.95,373.426 2008.95,421.81 
  "/>
<path clip-path="url(#clip430)" d="M 0 0 M2192.59 417.305 Q2190.78 421.935 2189.07 423.347 Q2187.35 424.759 2184.48 424.759 L2181.08 424.759 L2181.08 421.194 L2183.58 421.194 Q2185.34 421.194 2186.31 420.36 Q2187.29 419.527 2188.47 416.425 L2189.23 414.481 L2178.74 388.972 L2183.26 388.972 L2191.36 409.249 L2199.46 388.972 L2203.98 388.972 L2192.59 417.305 Z" fill="#000000" fill-rule="evenodd" fill-opacity="1" /><path clip-path="url(#clip430)" d="M 0 0 M2209.09 380.338 L2227.45 380.338 L2227.45 384.273 L2213.37 384.273 L2213.37 392.745 Q2214.39 392.398 2215.41 392.236 Q2216.43 392.05 2217.45 392.05 Q2223.23 392.05 2226.61 395.222 Q2229.99 398.393 2229.99 403.81 Q2229.99 409.388 2226.52 412.49 Q2223.05 415.569 2216.73 415.569 Q2214.55 415.569 2212.29 415.198 Q2210.04 414.828 2207.63 414.087 L2207.63 409.388 Q2209.72 410.523 2211.94 411.078 Q2214.16 411.634 2216.64 411.634 Q2220.64 411.634 2222.98 409.527 Q2225.32 407.421 2225.32 403.81 Q2225.32 400.199 2222.98 398.092 Q2220.64 395.986 2216.64 395.986 Q2214.76 395.986 2212.89 396.402 Q2211.04 396.819 2209.09 397.699 L2209.09 380.338 Z" fill="#000000" fill-rule="evenodd" fill-opacity="1" /></svg>
