<?xml version="1.0" encoding="utf-8"?>
<svg xmlns="http://www.w3.org/2000/svg" xmlns:xlink="http://www.w3.org/1999/xlink" width="600" height="400" viewBox="0 0 2400 1600">
<defs>
  <clipPath id="clip310">
    <rect x="0" y="0" width="2400" height="1600"/>
  </clipPath>
</defs>
<path clip-path="url(#clip310)" d="
M0 1600 L2400 1600 L2400 0 L0 0  Z
  " fill="#ffffff" fill-rule="evenodd" fill-opacity="1"/>
<defs>
  <clipPath id="clip311">
    <rect x="480" y="0" width="1681" height="1600"/>
  </clipPath>
</defs>
<path clip-path="url(#clip310)" d="
M169.469 1486.45 L2352.76 1486.45 L2352.76 47.2441 L169.469 47.2441  Z
  " fill="#ffffff" fill-rule="evenodd" fill-opacity="1"/>
<defs>
  <clipPath id="clip312">
    <rect x="169" y="47" width="2184" height="1440"/>
  </clipPath>
</defs>
<polyline clip-path="url(#clip312)" style="stroke:#000000; stroke-width:2; stroke-opacity:0.1; fill:none" points="
  506.644,1486.45 506.644,47.2441 
  "/>
<polyline clip-path="url(#clip312)" style="stroke:#000000; stroke-width:2; stroke-opacity:0.1; fill:none" points="
  896.633,1486.45 896.633,47.2441 
  "/>
<polyline clip-path="url(#clip312)" style="stroke:#000000; stroke-width:2; stroke-opacity:0.1; fill:none" points="
  1286.62,1486.45 1286.62,47.2441 
  "/>
<polyline clip-path="url(#clip312)" style="stroke:#000000; stroke-width:2; stroke-opacity:0.1; fill:none" points="
  1676.61,1486.45 1676.61,47.2441 
  "/>
<polyline clip-path="url(#clip312)" style="stroke:#000000; stroke-width:2; stroke-opacity:0.1; fill:none" points="
  2066.6,1486.45 2066.6,47.2441 
  "/>
<polyline clip-path="url(#clip310)" style="stroke:#000000; stroke-width:4; stroke-opacity:1; fill:none" points="
  169.469,1486.45 2352.76,1486.45 
  "/>
<polyline clip-path="url(#clip310)" style="stroke:#000000; stroke-width:4; stroke-opacity:1; fill:none" points="
  506.644,1486.45 506.644,1469.18 
  "/>
<polyline clip-path="url(#clip310)" style="stroke:#000000; stroke-width:4; stroke-opacity:1; fill:none" points="
  896.633,1486.45 896.633,1469.18 
  "/>
<polyline clip-path="url(#clip310)" style="stroke:#000000; stroke-width:4; stroke-opacity:1; fill:none" points="
  1286.62,1486.45 1286.62,1469.18 
  "/>
<polyline clip-path="url(#clip310)" style="stroke:#000000; stroke-width:4; stroke-opacity:1; fill:none" points="
  1676.61,1486.45 1676.61,1469.18 
  "/>
<polyline clip-path="url(#clip310)" style="stroke:#000000; stroke-width:4; stroke-opacity:1; fill:none" points="
  2066.6,1486.45 2066.6,1469.18 
  "/>
<path clip-path="url(#clip310)" d="M 0 0 M465.406 1530.29 L495.082 1530.29 L495.082 1534.23 L465.406 1534.23 L465.406 1530.29 Z" fill="#000000" fill-rule="evenodd" fill-opacity="1" /><path clip-path="url(#clip310)" d="M 0 0 M500.962 1543.18 L508.6 1543.18 L508.6 1516.82 L500.29 1518.49 L500.29 1514.23 L508.554 1512.56 L513.23 1512.56 L513.23 1543.18 L520.869 1543.18 L520.869 1547.12 L500.962 1547.12 L500.962 1543.18 Z" fill="#000000" fill-rule="evenodd" fill-opacity="1" /><path clip-path="url(#clip310)" d="M 0 0 M535.938 1515.64 Q532.327 1515.64 530.498 1519.2 Q528.693 1522.75 528.693 1529.87 Q528.693 1536.98 530.498 1540.55 Q532.327 1544.09 535.938 1544.09 Q539.572 1544.09 541.378 1540.55 Q543.207 1536.98 543.207 1529.87 Q543.207 1522.75 541.378 1519.2 Q539.572 1515.64 535.938 1515.64 M535.938 1511.93 Q541.748 1511.93 544.804 1516.54 Q547.883 1521.12 547.883 1529.87 Q547.883 1538.6 544.804 1543.21 Q541.748 1547.79 535.938 1547.79 Q530.128 1547.79 527.049 1543.21 Q523.994 1538.6 523.994 1529.87 Q523.994 1521.12 527.049 1516.54 Q530.128 1511.93 535.938 1511.93 Z" fill="#000000" fill-rule="evenodd" fill-opacity="1" /><path clip-path="url(#clip310)" d="M 0 0 M868.786 1530.29 L898.462 1530.29 L898.462 1534.23 L868.786 1534.23 L868.786 1530.29 Z" fill="#000000" fill-rule="evenodd" fill-opacity="1" /><path clip-path="url(#clip310)" d="M 0 0 M903.577 1512.56 L921.934 1512.56 L921.934 1516.5 L907.86 1516.5 L907.86 1524.97 Q908.878 1524.62 909.897 1524.46 Q910.915 1524.27 911.934 1524.27 Q917.721 1524.27 921.1 1527.44 Q924.48 1530.62 924.48 1536.03 Q924.48 1541.61 921.008 1544.71 Q917.536 1547.79 911.216 1547.79 Q909.04 1547.79 906.772 1547.42 Q904.526 1547.05 902.119 1546.31 L902.119 1541.61 Q904.202 1542.74 906.425 1543.3 Q908.647 1543.86 911.124 1543.86 Q915.128 1543.86 917.466 1541.75 Q919.804 1539.64 919.804 1536.03 Q919.804 1532.42 917.466 1530.31 Q915.128 1528.21 911.124 1528.21 Q909.249 1528.21 907.374 1528.62 Q905.522 1529.04 903.577 1529.92 L903.577 1512.56 Z" fill="#000000" fill-rule="evenodd" fill-opacity="1" /><path clip-path="url(#clip310)" d="M 0 0 M1286.62 1515.64 Q1283.01 1515.64 1281.18 1519.2 Q1279.38 1522.75 1279.38 1529.87 Q1279.38 1536.98 1281.18 1540.55 Q1283.01 1544.09 1286.62 1544.09 Q1290.26 1544.09 1292.06 1540.55 Q1293.89 1536.98 1293.89 1529.87 Q1293.89 1522.75 1292.06 1519.2 Q1290.26 1515.64 1286.62 1515.64 M1286.62 1511.93 Q1292.43 1511.93 1295.49 1516.54 Q1298.57 1521.12 1298.57 1529.87 Q1298.57 1538.6 1295.49 1543.21 Q1292.43 1547.79 1286.62 1547.79 Q1280.81 1547.79 1277.73 1543.21 Q1274.68 1538.6 1274.68 1529.87 Q1274.68 1521.12 1277.73 1516.54 Q1280.81 1511.93 1286.62 1511.93 Z" fill="#000000" fill-rule="evenodd" fill-opacity="1" /><path clip-path="url(#clip310)" d="M 0 0 M1666.89 1512.56 L1685.24 1512.56 L1685.24 1516.5 L1671.17 1516.5 L1671.17 1524.97 Q1672.19 1524.62 1673.21 1524.46 Q1674.23 1524.27 1675.24 1524.27 Q1681.03 1524.27 1684.41 1527.44 Q1687.79 1530.62 1687.79 1536.03 Q1687.79 1541.61 1684.32 1544.71 Q1680.85 1547.79 1674.53 1547.79 Q1672.35 1547.79 1670.08 1547.42 Q1667.84 1547.05 1665.43 1546.31 L1665.43 1541.61 Q1667.51 1542.74 1669.74 1543.3 Q1671.96 1543.86 1674.43 1543.86 Q1678.44 1543.86 1680.78 1541.75 Q1683.11 1539.64 1683.11 1536.03 Q1683.11 1532.42 1680.78 1530.31 Q1678.44 1528.21 1674.43 1528.21 Q1672.56 1528.21 1670.68 1528.62 Q1668.83 1529.04 1666.89 1529.92 L1666.89 1512.56 Z" fill="#000000" fill-rule="evenodd" fill-opacity="1" /><path clip-path="url(#clip310)" d="M 0 0 M2043.47 1543.18 L2051.11 1543.18 L2051.11 1516.82 L2042.8 1518.49 L2042.8 1514.23 L2051.07 1512.56 L2055.74 1512.56 L2055.74 1543.18 L2063.38 1543.18 L2063.38 1547.12 L2043.47 1547.12 L2043.47 1543.18 Z" fill="#000000" fill-rule="evenodd" fill-opacity="1" /><path clip-path="url(#clip310)" d="M 0 0 M2078.45 1515.64 Q2074.84 1515.64 2073.01 1519.2 Q2071.21 1522.75 2071.21 1529.87 Q2071.21 1536.98 2073.01 1540.55 Q2074.84 1544.09 2078.45 1544.09 Q2082.08 1544.09 2083.89 1540.55 Q2085.72 1536.98 2085.72 1529.87 Q2085.72 1522.75 2083.89 1519.2 Q2082.08 1515.64 2078.45 1515.64 M2078.45 1511.93 Q2084.26 1511.93 2087.32 1516.54 Q2090.39 1521.12 2090.39 1529.87 Q2090.39 1538.6 2087.32 1543.21 Q2084.26 1547.79 2078.45 1547.79 Q2072.64 1547.79 2069.56 1543.21 Q2066.51 1538.6 2066.51 1529.87 Q2066.51 1521.12 2069.56 1516.54 Q2072.64 1511.93 2078.45 1511.93 Z" fill="#000000" fill-rule="evenodd" fill-opacity="1" /><polyline clip-path="url(#clip312)" style="stroke:#000000; stroke-width:2; stroke-opacity:0.1; fill:none" points="
  169.469,1233.15 2352.76,1233.15 
  "/>
<polyline clip-path="url(#clip312)" style="stroke:#000000; stroke-width:2; stroke-opacity:0.1; fill:none" points="
  169.469,941.31 2352.76,941.31 
  "/>
<polyline clip-path="url(#clip312)" style="stroke:#000000; stroke-width:2; stroke-opacity:0.1; fill:none" points="
  169.469,649.467 2352.76,649.467 
  "/>
<polyline clip-path="url(#clip312)" style="stroke:#000000; stroke-width:2; stroke-opacity:0.1; fill:none" points="
  169.469,357.625 2352.76,357.625 
  "/>
<polyline clip-path="url(#clip312)" style="stroke:#000000; stroke-width:2; stroke-opacity:0.1; fill:none" points="
  169.469,65.7833 2352.76,65.7833 
  "/>
<polyline clip-path="url(#clip310)" style="stroke:#000000; stroke-width:4; stroke-opacity:1; fill:none" points="
  169.469,1486.45 169.469,47.2441 
  "/>
<polyline clip-path="url(#clip310)" style="stroke:#000000; stroke-width:4; stroke-opacity:1; fill:none" points="
  169.469,1233.15 195.668,1233.15 
  "/>
<polyline clip-path="url(#clip310)" style="stroke:#000000; stroke-width:4; stroke-opacity:1; fill:none" points="
  169.469,941.31 195.668,941.31 
  "/>
<polyline clip-path="url(#clip310)" style="stroke:#000000; stroke-width:4; stroke-opacity:1; fill:none" points="
  169.469,649.467 195.668,649.467 
  "/>
<polyline clip-path="url(#clip310)" style="stroke:#000000; stroke-width:4; stroke-opacity:1; fill:none" points="
  169.469,357.625 195.668,357.625 
  "/>
<polyline clip-path="url(#clip310)" style="stroke:#000000; stroke-width:4; stroke-opacity:1; fill:none" points="
  169.469,65.7833 195.668,65.7833 
  "/>
<path clip-path="url(#clip310)" d="M 0 0 M50.9921 1233.6 L80.6679 1233.6 L80.6679 1237.54 L50.9921 1237.54 L50.9921 1233.6 Z" fill="#000000" fill-rule="evenodd" fill-opacity="1" /><path clip-path="url(#clip310)" d="M 0 0 M86.5475 1246.5 L94.1863 1246.5 L94.1863 1220.13 L85.8762 1221.8 L85.8762 1217.54 L94.14 1215.87 L98.8159 1215.87 L98.8159 1246.5 L106.455 1246.5 L106.455 1250.43 L86.5475 1250.43 L86.5475 1246.5 Z" fill="#000000" fill-rule="evenodd" fill-opacity="1" /><path clip-path="url(#clip310)" d="M 0 0 M121.524 1218.95 Q117.913 1218.95 116.084 1222.52 Q114.279 1226.06 114.279 1233.19 Q114.279 1240.29 116.084 1243.86 Q117.913 1247.4 121.524 1247.4 Q125.158 1247.4 126.964 1243.86 Q128.793 1240.29 128.793 1233.19 Q128.793 1226.06 126.964 1222.52 Q125.158 1218.95 121.524 1218.95 M121.524 1215.25 Q127.334 1215.25 130.39 1219.85 Q133.469 1224.44 133.469 1233.19 Q133.469 1241.91 130.39 1246.52 Q127.334 1251.1 121.524 1251.1 Q115.714 1251.1 112.635 1246.52 Q109.58 1241.91 109.58 1233.19 Q109.58 1224.44 112.635 1219.85 Q115.714 1215.25 121.524 1215.25 Z" fill="#000000" fill-rule="evenodd" fill-opacity="1" /><path clip-path="url(#clip310)" d="M 0 0 M77.7744 941.761 L107.45 941.761 L107.45 945.696 L77.7744 945.696 L77.7744 941.761 Z" fill="#000000" fill-rule="evenodd" fill-opacity="1" /><path clip-path="url(#clip310)" d="M 0 0 M112.566 924.03 L130.922 924.03 L130.922 927.965 L116.848 927.965 L116.848 936.437 Q117.867 936.09 118.885 935.928 Q119.904 935.742 120.922 935.742 Q126.709 935.742 130.089 938.914 Q133.469 942.085 133.469 947.502 Q133.469 953.08 129.996 956.182 Q126.524 959.261 120.205 959.261 Q118.029 959.261 115.76 958.89 Q113.515 958.52 111.108 957.779 L111.108 953.08 Q113.191 954.215 115.413 954.77 Q117.635 955.326 120.112 955.326 Q124.117 955.326 126.455 953.219 Q128.793 951.113 128.793 947.502 Q128.793 943.891 126.455 941.784 Q124.117 939.678 120.112 939.678 Q118.237 939.678 116.362 940.094 Q114.51 940.511 112.566 941.391 L112.566 924.03 Z" fill="#000000" fill-rule="evenodd" fill-opacity="1" /><path clip-path="url(#clip310)" d="M 0 0 M121.524 635.266 Q117.913 635.266 116.084 638.831 Q114.279 642.373 114.279 649.502 Q114.279 656.609 116.084 660.173 Q117.913 663.715 121.524 663.715 Q125.158 663.715 126.964 660.173 Q128.793 656.609 128.793 649.502 Q128.793 642.373 126.964 638.831 Q125.158 635.266 121.524 635.266 M121.524 631.562 Q127.334 631.562 130.39 636.169 Q133.469 640.752 133.469 649.502 Q133.469 658.229 130.39 662.835 Q127.334 667.419 121.524 667.419 Q115.714 667.419 112.635 662.835 Q109.58 658.229 109.58 649.502 Q109.58 640.752 112.635 636.169 Q115.714 631.562 121.524 631.562 Z" fill="#000000" fill-rule="evenodd" fill-opacity="1" /><path clip-path="url(#clip310)" d="M 0 0 M112.566 340.345 L130.922 340.345 L130.922 344.281 L116.848 344.281 L116.848 352.753 Q117.867 352.406 118.885 352.243 Q119.904 352.058 120.922 352.058 Q126.709 352.058 130.089 355.23 Q133.469 358.401 133.469 363.817 Q133.469 369.396 129.996 372.498 Q126.524 375.577 120.205 375.577 Q118.029 375.577 115.76 375.206 Q113.515 374.836 111.108 374.095 L111.108 369.396 Q113.191 370.53 115.413 371.086 Q117.635 371.642 120.112 371.642 Q124.117 371.642 126.455 369.535 Q128.793 367.429 128.793 363.817 Q128.793 360.206 126.455 358.1 Q124.117 355.993 120.112 355.993 Q118.237 355.993 116.362 356.41 Q114.51 356.827 112.566 357.706 L112.566 340.345 Z" fill="#000000" fill-rule="evenodd" fill-opacity="1" /><path clip-path="url(#clip310)" d="M 0 0 M86.5475 79.1281 L94.1863 79.1281 L94.1863 52.7625 L85.8762 54.4292 L85.8762 50.1699 L94.14 48.5033 L98.8159 48.5033 L98.8159 79.1281 L106.455 79.1281 L106.455 83.0633 L86.5475 83.0633 L86.5475 79.1281 Z" fill="#000000" fill-rule="evenodd" fill-opacity="1" /><path clip-path="url(#clip310)" d="M 0 0 M121.524 51.582 Q117.913 51.582 116.084 55.1468 Q114.279 58.6884 114.279 65.818 Q114.279 72.9245 116.084 76.4892 Q117.913 80.0309 121.524 80.0309 Q125.158 80.0309 126.964 76.4892 Q128.793 72.9245 128.793 65.818 Q128.793 58.6884 126.964 55.1468 Q125.158 51.582 121.524 51.582 M121.524 47.8783 Q127.334 47.8783 130.39 52.4847 Q133.469 57.0681 133.469 65.818 Q133.469 74.5448 130.39 79.1513 Q127.334 83.7346 121.524 83.7346 Q115.714 83.7346 112.635 79.1513 Q109.58 74.5448 109.58 65.818 Q109.58 57.0681 112.635 52.4847 Q115.714 47.8783 121.524 47.8783 Z" fill="#000000" fill-rule="evenodd" fill-opacity="1" /><path clip-path="url(#clip312)" d="
M344.263 762.609 L614.744 762.609 L614.744 640.276 L344.263 640.276 L344.263 762.609  Z
  " fill="#009af9" fill-rule="evenodd" fill-opacity="0.3"/>
<polyline clip-path="url(#clip312)" style="stroke:#000000; stroke-width:4; stroke-opacity:0.3; fill:none" points="
  344.263,762.609 614.744,762.609 614.744,640.276 344.263,640.276 344.263,762.609 
  "/>
<path clip-path="url(#clip312)" d="
M242.022 750.218 L508.945 750.218 L508.945 538.689 L242.022 538.689 L242.022 750.218  Z
  " fill="#009af9" fill-rule="evenodd" fill-opacity="0.3"/>
<polyline clip-path="url(#clip312)" style="stroke:#000000; stroke-width:4; stroke-opacity:0.3; fill:none" points="
  242.022,750.218 508.945,750.218 508.945,538.689 242.022,538.689 242.022,750.218 
  "/>
<path clip-path="url(#clip312)" d="
M231.26 719.934 L394.663 719.934 L394.663 586.427 L231.26 586.427 L231.26 719.934  Z
  " fill="#009af9" fill-rule="evenodd" fill-opacity="0.3"/>
<polyline clip-path="url(#clip312)" style="stroke:#000000; stroke-width:4; stroke-opacity:0.3; fill:none" points="
  231.26,719.934 394.663,719.934 394.663,586.427 231.26,586.427 231.26,719.934 
  "/>
<path clip-path="url(#clip312)" d="
M439.673 663.431 L714.415 663.431 L714.415 544.88 L439.673 544.88 L439.673 663.431  Z
  " fill="#009af9" fill-rule="evenodd" fill-opacity="0.3"/>
<polyline clip-path="url(#clip312)" style="stroke:#000000; stroke-width:4; stroke-opacity:0.3; fill:none" points="
  439.673,663.431 714.415,663.431 714.415,544.88 439.673,544.88 439.673,663.431 
  "/>
<path clip-path="url(#clip312)" d="
M256.688 698.278 L490.265 698.278 L490.265 466.36 L256.688 466.36 L256.688 698.278  Z
  " fill="#009af9" fill-rule="evenodd" fill-opacity="0.3"/>
<polyline clip-path="url(#clip312)" style="stroke:#000000; stroke-width:4; stroke-opacity:0.3; fill:none" points="
  256.688,698.278 490.265,698.278 490.265,466.36 256.688,466.36 256.688,698.278 
  "/>
<path clip-path="url(#clip312)" d="
M254.046 633.242 L416.868 633.242 L416.868 498.659 L254.046 498.659 L254.046 633.242  Z
  " fill="#009af9" fill-rule="evenodd" fill-opacity="0.3"/>
<polyline clip-path="url(#clip312)" style="stroke:#000000; stroke-width:4; stroke-opacity:0.3; fill:none" points="
  254.046,633.242 416.868,633.242 416.868,498.659 254.046,498.659 254.046,633.242 
  "/>
<path clip-path="url(#clip312)" d="
M344.263 762.609 L614.744 762.609 L614.744 640.276 L344.263 640.276 L344.263 762.609  Z
  " fill="#e26f46" fill-rule="evenodd" fill-opacity="0.3"/>
<polyline clip-path="url(#clip312)" style="stroke:#000000; stroke-width:4; stroke-opacity:0.3; fill:none" points="
  344.263,762.609 614.744,762.609 614.744,640.276 344.263,640.276 344.263,762.609 
  "/>
<path clip-path="url(#clip312)" d="
M242.022 750.218 L508.945 750.218 L508.945 538.689 L242.022 538.689 L242.022 750.218  Z
  " fill="#e26f46" fill-rule="evenodd" fill-opacity="0.3"/>
<polyline clip-path="url(#clip312)" style="stroke:#000000; stroke-width:4; stroke-opacity:0.3; fill:none" points="
  242.022,750.218 508.945,750.218 508.945,538.689 242.022,538.689 242.022,750.218 
  "/>
<path clip-path="url(#clip312)" d="
M231.26 719.934 L394.663 719.934 L394.663 586.427 L231.26 586.427 L231.26 719.934  Z
  " fill="#e26f46" fill-rule="evenodd" fill-opacity="0.3"/>
<polyline clip-path="url(#clip312)" style="stroke:#000000; stroke-width:4; stroke-opacity:0.3; fill:none" points="
  231.26,719.934 394.663,719.934 394.663,586.427 231.26,586.427 231.26,719.934 
  "/>
<path clip-path="url(#clip312)" d="
M439.673 663.431 L714.415 663.431 L714.415 544.88 L439.673 544.88 L439.673 663.431  Z
  " fill="#e26f46" fill-rule="evenodd" fill-opacity="0.3"/>
<polyline clip-path="url(#clip312)" style="stroke:#000000; stroke-width:4; stroke-opacity:0.3; fill:none" points="
  439.673,663.431 714.415,663.431 714.415,544.88 439.673,544.88 439.673,663.431 
  "/>
<path clip-path="url(#clip312)" d="
M256.688 698.278 L490.265 698.278 L490.265 466.36 L256.688 466.36 L256.688 698.278  Z
  " fill="#e26f46" fill-rule="evenodd" fill-opacity="0.3"/>
<polyline clip-path="url(#clip312)" style="stroke:#000000; stroke-width:4; stroke-opacity:0.3; fill:none" points="
  256.688,698.278 490.265,698.278 490.265,466.36 256.688,466.36 256.688,698.278 
  "/>
<path clip-path="url(#clip312)" d="
M254.046 633.242 L416.868 633.242 L416.868 498.659 L254.046 498.659 L254.046 633.242  Z
  " fill="#e26f46" fill-rule="evenodd" fill-opacity="0.3"/>
<polyline clip-path="url(#clip312)" style="stroke:#000000; stroke-width:4; stroke-opacity:0.3; fill:none" points="
  254.046,633.242 416.868,633.242 416.868,498.659 254.046,498.659 254.046,633.242 
  "/>
<path clip-path="url(#clip312)" d="
M1431.12 1201.14 L1674.2 1201.14 L1674.2 1016.53 L1431.12 1016.53 L1431.12 1201.14  Z
  " fill="#3da44d" fill-rule="evenodd" fill-opacity="0.3"/>
<polyline clip-path="url(#clip312)" style="stroke:#000000; stroke-width:4; stroke-opacity:0.3; fill:none" points="
  1431.12,1201.14 1674.2,1201.14 1674.2,1016.53 1431.12,1016.53 1431.12,1201.14 
  "/>
<path clip-path="url(#clip312)" d="
M1477.13 1297.14 L1768.04 1297.14 L1768.04 1071.67 L1477.13 1071.67 L1477.13 1297.14  Z
  " fill="#3da44d" fill-rule="evenodd" fill-opacity="0.3"/>
<polyline clip-path="url(#clip312)" style="stroke:#000000; stroke-width:4; stroke-opacity:0.3; fill:none" points="
  1477.13,1297.14 1768.04,1297.14 1768.04,1071.67 1477.13,1071.67 1477.13,1297.14 
  "/>
<path clip-path="url(#clip312)" d="
M1430.98 1375.56 L1642.31 1375.56 L1642.31 1236.38 L1430.98 1236.38 L1430.98 1375.56  Z
  " fill="#3da44d" fill-rule="evenodd" fill-opacity="0.3"/>
<polyline clip-path="url(#clip312)" style="stroke:#000000; stroke-width:4; stroke-opacity:0.3; fill:none" points="
  1430.98,1375.56 1642.31,1375.56 1642.31,1236.38 1430.98,1236.38 1430.98,1375.56 
  "/>
<path clip-path="url(#clip312)" d="
M1324.63 1335.38 L1623.84 1335.38 L1623.84 1160.74 L1324.63 1160.74 L1324.63 1335.38  Z
  " fill="#3da44d" fill-rule="evenodd" fill-opacity="0.3"/>
<polyline clip-path="url(#clip312)" style="stroke:#000000; stroke-width:4; stroke-opacity:0.3; fill:none" points="
  1324.63,1335.38 1623.84,1335.38 1623.84,1160.74 1324.63,1160.74 1324.63,1335.38 
  "/>
<path clip-path="url(#clip312)" d="
M1525.82 1344.94 L1735.25 1344.94 L1735.25 1208.17 L1525.82 1208.17 L1525.82 1344.94  Z
  " fill="#3da44d" fill-rule="evenodd" fill-opacity="0.3"/>
<polyline clip-path="url(#clip312)" style="stroke:#000000; stroke-width:4; stroke-opacity:0.3; fill:none" points="
  1525.82,1344.94 1735.25,1344.94 1735.25,1208.17 1525.82,1208.17 1525.82,1344.94 
  "/>
<path clip-path="url(#clip312)" d="
M1461.14 1445.72 L1625.6 1445.72 L1625.6 1226.04 L1461.14 1226.04 L1461.14 1445.72  Z
  " fill="#3da44d" fill-rule="evenodd" fill-opacity="0.3"/>
<polyline clip-path="url(#clip312)" style="stroke:#000000; stroke-width:4; stroke-opacity:0.3; fill:none" points="
  1461.14,1445.72 1625.6,1445.72 1625.6,1226.04 1461.14,1226.04 1461.14,1445.72 
  "/>
<path clip-path="url(#clip312)" d="
M436.508 393.896 L629.275 393.896 L629.275 206.091 L436.508 206.091 L436.508 393.896  Z
  " fill="#c271d2" fill-rule="evenodd" fill-opacity="0.3"/>
<polyline clip-path="url(#clip312)" style="stroke:#000000; stroke-width:4; stroke-opacity:0.3; fill:none" points="
  436.508,393.896 629.275,393.896 629.275,206.091 436.508,206.091 436.508,393.896 
  "/>
<path clip-path="url(#clip312)" d="
M391.711 402.472 L683.062 402.472 L683.062 181.817 L391.711 181.817 L391.711 402.472  Z
  " fill="#c271d2" fill-rule="evenodd" fill-opacity="0.3"/>
<polyline clip-path="url(#clip312)" style="stroke:#000000; stroke-width:4; stroke-opacity:0.3; fill:none" points="
  391.711,402.472 683.062,402.472 683.062,181.817 391.711,181.817 391.711,402.472 
  "/>
<path clip-path="url(#clip312)" d="
M347.893 483.779 L525.574 483.779 L525.574 291.757 L347.893 291.757 L347.893 483.779  Z
  " fill="#c271d2" fill-rule="evenodd" fill-opacity="0.3"/>
<polyline clip-path="url(#clip312)" style="stroke:#000000; stroke-width:4; stroke-opacity:0.3; fill:none" points="
  347.893,483.779 525.574,483.779 525.574,291.757 347.893,291.757 347.893,483.779 
  "/>
<path clip-path="url(#clip312)" d="
M342.564 449.15 L555.712 449.15 L555.712 251.342 L342.564 251.342 L342.564 449.15  Z
  " fill="#c271d2" fill-rule="evenodd" fill-opacity="0.3"/>
<polyline clip-path="url(#clip312)" style="stroke:#000000; stroke-width:4; stroke-opacity:0.3; fill:none" points="
  342.564,449.15 555.712,449.15 555.712,251.342 342.564,251.342 342.564,449.15 
  "/>
<path clip-path="url(#clip312)" d="
M472.406 270.305 L665.034 270.305 L665.034 150.296 L472.406 150.296 L472.406 270.305  Z
  " fill="#c271d2" fill-rule="evenodd" fill-opacity="0.3"/>
<polyline clip-path="url(#clip312)" style="stroke:#000000; stroke-width:4; stroke-opacity:0.3; fill:none" points="
  472.406,270.305 665.034,270.305 665.034,150.296 472.406,150.296 472.406,270.305 
  "/>
<path clip-path="url(#clip312)" d="
M389.166 292.908 L610.598 292.908 L610.598 87.9763 L389.166 87.9763 L389.166 292.908  Z
  " fill="#c271d2" fill-rule="evenodd" fill-opacity="0.3"/>
<polyline clip-path="url(#clip312)" style="stroke:#000000; stroke-width:4; stroke-opacity:0.3; fill:none" points="
  389.166,292.908 610.598,292.908 610.598,87.9763 389.166,87.9763 389.166,292.908 
  "/>
<path clip-path="url(#clip312)" d="
M1807.14 1317.03 L1991.88 1317.03 L1991.88 1128.37 L1807.14 1128.37 L1807.14 1317.03  Z
  " fill="#ac8d18" fill-rule="evenodd" fill-opacity="0.3"/>
<polyline clip-path="url(#clip312)" style="stroke:#000000; stroke-width:4; stroke-opacity:0.3; fill:none" points="
  1807.14,1317.03 1991.88,1317.03 1991.88,1128.37 1807.14,1128.37 1807.14,1317.03 
  "/>
<path clip-path="url(#clip312)" d="
M2033.36 1266.65 L2290.96 1266.65 L2290.96 1080.54 L2033.36 1080.54 L2033.36 1266.65  Z
  " fill="#ac8d18" fill-rule="evenodd" fill-opacity="0.3"/>
<polyline clip-path="url(#clip312)" style="stroke:#000000; stroke-width:4; stroke-opacity:0.3; fill:none" points="
  2033.36,1266.65 2290.96,1266.65 2290.96,1080.54 2033.36,1080.54 2033.36,1266.65 
  "/>
<path clip-path="url(#clip312)" d="
M1813.85 1231.02 L2001.03 1231.02 L2001.03 1025.48 L1813.85 1025.48 L1813.85 1231.02  Z
  " fill="#ac8d18" fill-rule="evenodd" fill-opacity="0.3"/>
<polyline clip-path="url(#clip312)" style="stroke:#000000; stroke-width:4; stroke-opacity:0.3; fill:none" points="
  1813.85,1231.02 2001.03,1231.02 2001.03,1025.48 1813.85,1025.48 1813.85,1231.02 
  "/>
<path clip-path="url(#clip312)" d="
M1905.21 1269.21 L2150.37 1269.21 L2150.37 1121.46 L1905.21 1121.46 L1905.21 1269.21  Z
  " fill="#ac8d18" fill-rule="evenodd" fill-opacity="0.3"/>
<polyline clip-path="url(#clip312)" style="stroke:#000000; stroke-width:4; stroke-opacity:0.3; fill:none" points="
  1905.21,1269.21 2150.37,1269.21 2150.37,1121.46 1905.21,1121.46 1905.21,1269.21 
  "/>
<path clip-path="url(#clip312)" d="
M1811.27 1131.83 L2073.9 1131.83 L2073.9 941.727 L1811.27 941.727 L1811.27 1131.83  Z
  " fill="#ac8d18" fill-rule="evenodd" fill-opacity="0.3"/>
<polyline clip-path="url(#clip312)" style="stroke:#000000; stroke-width:4; stroke-opacity:0.3; fill:none" points="
  1811.27,1131.83 2073.9,1131.83 2073.9,941.727 1811.27,941.727 1811.27,1131.83 
  "/>
<path clip-path="url(#clip312)" d="
M1839.31 1337.21 L2065.34 1337.21 L2065.34 1167.95 L1839.31 1167.95 L1839.31 1337.21  Z
  " fill="#ac8d18" fill-rule="evenodd" fill-opacity="0.3"/>
<polyline clip-path="url(#clip312)" style="stroke:#000000; stroke-width:4; stroke-opacity:0.3; fill:none" points="
  1839.31,1337.21 2065.34,1337.21 2065.34,1167.95 1839.31,1167.95 1839.31,1337.21 
  "/>
<path clip-path="url(#clip310)" d="
M1984.66 458.098 L2279.98 458.098 L2279.98 95.2176 L1984.66 95.2176  Z
  " fill="#ffffff" fill-rule="evenodd" fill-opacity="1"/>
<polyline clip-path="url(#clip310)" style="stroke:#000000; stroke-width:4; stroke-opacity:1; fill:none" points="
  1984.66,458.098 2279.98,458.098 2279.98,95.2176 1984.66,95.2176 1984.66,458.098 
  "/>
<path clip-path="url(#clip310)" d="
M2008.92 179.89 L2154.47 179.89 L2154.47 131.506 L2008.92 131.506 L2008.92 179.89  Z
  " fill="#009af9" fill-rule="evenodd" fill-opacity="0.3"/>
<polyline clip-path="url(#clip310)" style="stroke:#000000; stroke-width:4; stroke-opacity:1; fill:none" points="
  2008.92,179.89 2154.47,179.89 2154.47,131.506 2008.92,131.506 2008.92,179.89 
  "/>
<path clip-path="url(#clip310)" d="M 0 0 M2192.57 175.385 Q2190.77 180.015 2189.05 181.427 Q2187.34 182.839 2184.47 182.839 L2181.07 182.839 L2181.07 179.274 L2183.57 179.274 Q2185.33 179.274 2186.3 178.44 Q2187.27 177.607 2188.45 174.505 L2189.22 172.561 L2178.73 147.052 L2183.24 147.052 L2191.35 167.329 L2199.45 147.052 L2203.96 147.052 L2192.57 175.385 Z" fill="#000000" fill-rule="evenodd" fill-opacity="1" /><path clip-path="url(#clip310)" d="M 0 0 M2209.84 169.042 L2217.48 169.042 L2217.48 142.677 L2209.17 144.343 L2209.17 140.084 L2217.43 138.418 L2222.11 138.418 L2222.11 169.042 L2229.75 169.042 L2229.75 172.978 L2209.84 172.978 L2209.84 169.042 Z" fill="#000000" fill-rule="evenodd" fill-opacity="1" /><path clip-path="url(#clip310)" d="
M2008.92 240.37 L2154.47 240.37 L2154.47 191.986 L2008.92 191.986 L2008.92 240.37  Z
  " fill="#e26f46" fill-rule="evenodd" fill-opacity="0.3"/>
<polyline clip-path="url(#clip310)" style="stroke:#000000; stroke-width:4; stroke-opacity:1; fill:none" points="
  2008.92,240.37 2154.47,240.37 2154.47,191.986 2008.92,191.986 2008.92,240.37 
  "/>
<path clip-path="url(#clip310)" d="M 0 0 M2192.57 235.865 Q2190.77 240.495 2189.05 241.907 Q2187.34 243.319 2184.47 243.319 L2181.07 243.319 L2181.07 239.754 L2183.57 239.754 Q2185.33 239.754 2186.3 238.92 Q2187.27 238.087 2188.45 234.985 L2189.22 233.041 L2178.73 207.532 L2183.24 207.532 L2191.35 227.809 L2199.45 207.532 L2203.96 207.532 L2192.57 235.865 Z" fill="#000000" fill-rule="evenodd" fill-opacity="1" /><path clip-path="url(#clip310)" d="M 0 0 M2213.06 229.522 L2229.38 229.522 L2229.38 233.458 L2207.43 233.458 L2207.43 229.522 Q2210.1 226.768 2214.68 222.138 Q2219.29 217.485 2220.47 216.143 Q2222.71 213.62 2223.59 211.884 Q2224.49 210.124 2224.49 208.435 Q2224.49 205.68 2222.55 203.944 Q2220.63 202.208 2217.53 202.208 Q2215.33 202.208 2212.87 202.972 Q2210.44 203.735 2207.67 205.286 L2207.67 200.564 Q2210.49 199.43 2212.94 198.851 Q2215.4 198.273 2217.43 198.273 Q2222.8 198.273 2226 200.958 Q2229.19 203.643 2229.19 208.134 Q2229.19 210.263 2228.38 212.185 Q2227.6 214.083 2225.49 216.675 Q2224.91 217.347 2221.81 220.564 Q2218.71 223.759 2213.06 229.522 Z" fill="#000000" fill-rule="evenodd" fill-opacity="1" /><path clip-path="url(#clip310)" d="
M2008.92 300.85 L2154.47 300.85 L2154.47 252.466 L2008.92 252.466 L2008.92 300.85  Z
  " fill="#3da44d" fill-rule="evenodd" fill-opacity="0.3"/>
<polyline clip-path="url(#clip310)" style="stroke:#000000; stroke-width:4; stroke-opacity:1; fill:none" points="
  2008.92,300.85 2154.47,300.85 2154.47,252.466 2008.92,252.466 2008.92,300.85 
  "/>
<path clip-path="url(#clip310)" d="M 0 0 M2192.57 296.345 Q2190.77 300.975 2189.05 302.387 Q2187.34 303.799 2184.47 303.799 L2181.07 303.799 L2181.07 300.234 L2183.57 300.234 Q2185.33 300.234 2186.3 299.4 Q2187.27 298.567 2188.45 295.465 L2189.22 293.521 L2178.73 268.012 L2183.24 268.012 L2191.35 288.289 L2199.45 268.012 L2203.96 268.012 L2192.57 296.345 Z" fill="#000000" fill-rule="evenodd" fill-opacity="1" /><path clip-path="url(#clip310)" d="M 0 0 M2223.2 275.303 Q2226.55 276.021 2228.43 278.289 Q2230.33 280.558 2230.33 283.891 Q2230.33 289.007 2226.81 291.808 Q2223.29 294.609 2216.81 294.609 Q2214.63 294.609 2212.32 294.169 Q2210.03 293.752 2207.57 292.896 L2207.57 288.382 Q2209.52 289.516 2211.83 290.095 Q2214.15 290.674 2216.67 290.674 Q2221.07 290.674 2223.36 288.938 Q2225.68 287.201 2225.68 283.891 Q2225.68 280.836 2223.52 279.123 Q2221.39 277.387 2217.57 277.387 L2213.55 277.387 L2213.55 273.544 L2217.76 273.544 Q2221.21 273.544 2223.04 272.178 Q2224.86 270.79 2224.86 268.197 Q2224.86 265.535 2222.97 264.123 Q2221.09 262.688 2217.57 262.688 Q2215.65 262.688 2213.45 263.104 Q2211.25 263.521 2208.62 264.401 L2208.62 260.234 Q2211.28 259.493 2213.59 259.123 Q2215.93 258.753 2217.99 258.753 Q2223.31 258.753 2226.42 261.183 Q2229.52 263.59 2229.52 267.711 Q2229.52 270.581 2227.87 272.572 Q2226.23 274.54 2223.2 275.303 Z" fill="#000000" fill-rule="evenodd" fill-opacity="1" /><path clip-path="url(#clip310)" d="
M2008.92 361.33 L2154.47 361.33 L2154.47 312.946 L2008.92 312.946 L2008.92 361.33  Z
  " fill="#c271d2" fill-rule="evenodd" fill-opacity="0.3"/>
<polyline clip-path="url(#clip310)" style="stroke:#000000; stroke-width:4; stroke-opacity:1; fill:none" points="
  2008.92,361.33 2154.47,361.33 2154.47,312.946 2008.92,312.946 2008.92,361.33 
  "/>
<path clip-path="url(#clip310)" d="M 0 0 M2192.57 356.825 Q2190.77 361.455 2189.05 362.867 Q2187.34 364.279 2184.47 364.279 L2181.07 364.279 L2181.07 360.714 L2183.57 360.714 Q2185.33 360.714 2186.3 359.88 Q2187.27 359.047 2188.45 355.945 L2189.22 354.001 L2178.73 328.492 L2183.24 328.492 L2191.35 348.769 L2199.45 328.492 L2203.96 328.492 L2192.57 356.825 Z" fill="#000000" fill-rule="evenodd" fill-opacity="1" /><path clip-path="url(#clip310)" d="M 0 0 M2221.88 323.932 L2210.07 342.381 L2221.88 342.381 L2221.88 323.932 M2220.65 319.858 L2226.53 319.858 L2226.53 342.381 L2231.46 342.381 L2231.46 346.269 L2226.53 346.269 L2226.53 354.418 L2221.88 354.418 L2221.88 346.269 L2206.28 346.269 L2206.28 341.756 L2220.65 319.858 Z" fill="#000000" fill-rule="evenodd" fill-opacity="1" /><path clip-path="url(#clip310)" d="
M2008.92 421.81 L2154.47 421.81 L2154.47 373.426 L2008.92 373.426 L2008.92 421.81  Z
  " fill="#ac8d18" fill-rule="evenodd" fill-opacity="0.3"/>
<polyline clip-path="url(#clip310)" style="stroke:#000000; stroke-width:4; stroke-opacity:1; fill:none" points="
  2008.92,421.81 2154.47,421.81 2154.47,373.426 2008.92,373.426 2008.92,421.81 
  "/>
<path clip-path="url(#clip310)" d="M 0 0 M2192.57 417.305 Q2190.77 421.935 2189.05 423.347 Q2187.34 424.759 2184.47 424.759 L2181.07 424.759 L2181.07 421.194 L2183.57 421.194 Q2185.33 421.194 2186.3 420.36 Q2187.27 419.527 2188.45 416.425 L2189.22 414.481 L2178.73 388.972 L2183.24 388.972 L2191.35 409.249 L2199.45 388.972 L2203.96 388.972 L2192.57 417.305 Z" fill="#000000" fill-rule="evenodd" fill-opacity="1" /><path clip-path="url(#clip310)" d="M 0 0 M2209.08 380.338 L2227.43 380.338 L2227.43 384.273 L2213.36 384.273 L2213.36 392.745 Q2214.38 392.398 2215.4 392.236 Q2216.42 392.05 2217.43 392.05 Q2223.22 392.05 2226.6 395.222 Q2229.98 398.393 2229.98 403.81 Q2229.98 409.388 2226.51 412.49 Q2223.04 415.569 2216.72 415.569 Q2214.54 415.569 2212.27 415.198 Q2210.03 414.828 2207.62 414.087 L2207.62 409.388 Q2209.7 410.523 2211.93 411.078 Q2214.15 411.634 2216.62 411.634 Q2220.63 411.634 2222.97 409.527 Q2225.3 407.421 2225.3 403.81 Q2225.3 400.199 2222.97 398.092 Q2220.63 395.986 2216.62 395.986 Q2214.75 395.986 2212.87 396.402 Q2211.02 396.819 2209.08 397.699 L2209.08 380.338 Z" fill="#000000" fill-rule="evenodd" fill-opacity="1" /></svg>
