<?xml version="1.0" encoding="utf-8"?>
<svg xmlns="http://www.w3.org/2000/svg" xmlns:xlink="http://www.w3.org/1999/xlink" width="600" height="400" viewBox="0 0 2400 1600">
<defs>
  <clipPath id="clip470">
    <rect x="0" y="0" width="2400" height="1600"/>
  </clipPath>
</defs>
<path clip-path="url(#clip470)" d="
M0 1600 L2400 1600 L2400 0 L0 0  Z
  " fill="#ffffff" fill-rule="evenodd" fill-opacity="1"/>
<defs>
  <clipPath id="clip471">
    <rect x="480" y="0" width="1681" height="1600"/>
  </clipPath>
</defs>
<path clip-path="url(#clip470)" d="
M169.469 1486.45 L2352.76 1486.45 L2352.76 47.2441 L169.469 47.2441  Z
  " fill="#ffffff" fill-rule="evenodd" fill-opacity="1"/>
<defs>
  <clipPath id="clip472">
    <rect x="169" y="47" width="2184" height="1440"/>
  </clipPath>
</defs>
<polyline clip-path="url(#clip472)" style="stroke:#000000; stroke-width:2; stroke-opacity:0.1; fill:none" points="
  506.86,1486.45 506.86,47.2441 
  "/>
<polyline clip-path="url(#clip472)" style="stroke:#000000; stroke-width:2; stroke-opacity:0.1; fill:none" points="
  896.759,1486.45 896.759,47.2441 
  "/>
<polyline clip-path="url(#clip472)" style="stroke:#000000; stroke-width:2; stroke-opacity:0.1; fill:none" points="
  1286.66,1486.45 1286.66,47.2441 
  "/>
<polyline clip-path="url(#clip472)" style="stroke:#000000; stroke-width:2; stroke-opacity:0.1; fill:none" points="
  1676.55,1486.45 1676.55,47.2441 
  "/>
<polyline clip-path="url(#clip472)" style="stroke:#000000; stroke-width:2; stroke-opacity:0.1; fill:none" points="
  2066.45,1486.45 2066.45,47.2441 
  "/>
<polyline clip-path="url(#clip470)" style="stroke:#000000; stroke-width:4; stroke-opacity:1; fill:none" points="
  169.469,1486.45 2352.76,1486.45 
  "/>
<polyline clip-path="url(#clip470)" style="stroke:#000000; stroke-width:4; stroke-opacity:1; fill:none" points="
  506.86,1486.45 506.86,1469.18 
  "/>
<polyline clip-path="url(#clip470)" style="stroke:#000000; stroke-width:4; stroke-opacity:1; fill:none" points="
  896.759,1486.45 896.759,1469.18 
  "/>
<polyline clip-path="url(#clip470)" style="stroke:#000000; stroke-width:4; stroke-opacity:1; fill:none" points="
  1286.66,1486.45 1286.66,1469.18 
  "/>
<polyline clip-path="url(#clip470)" style="stroke:#000000; stroke-width:4; stroke-opacity:1; fill:none" points="
  1676.55,1486.45 1676.55,1469.18 
  "/>
<polyline clip-path="url(#clip470)" style="stroke:#000000; stroke-width:4; stroke-opacity:1; fill:none" points="
  2066.45,1486.45 2066.45,1469.18 
  "/>
<path clip-path="url(#clip470)" d="M 0 0 M465.622 1530.29 L495.298 1530.29 L495.298 1534.23 L465.622 1534.23 L465.622 1530.29 Z" fill="#000000" fill-rule="evenodd" fill-opacity="1" /><path clip-path="url(#clip470)" d="M 0 0 M501.178 1543.18 L508.816 1543.18 L508.816 1516.82 L500.506 1518.49 L500.506 1514.23 L508.77 1512.56 L513.446 1512.56 L513.446 1543.18 L521.085 1543.18 L521.085 1547.12 L501.178 1547.12 L501.178 1543.18 Z" fill="#000000" fill-rule="evenodd" fill-opacity="1" /><path clip-path="url(#clip470)" d="M 0 0 M536.154 1515.64 Q532.543 1515.64 530.714 1519.2 Q528.909 1522.75 528.909 1529.87 Q528.909 1536.98 530.714 1540.55 Q532.543 1544.09 536.154 1544.09 Q539.788 1544.09 541.594 1540.55 Q543.423 1536.98 543.423 1529.87 Q543.423 1522.75 541.594 1519.2 Q539.788 1515.64 536.154 1515.64 M536.154 1511.93 Q541.964 1511.93 545.02 1516.54 Q548.099 1521.12 548.099 1529.87 Q548.099 1538.6 545.02 1543.21 Q541.964 1547.79 536.154 1547.79 Q530.344 1547.79 527.265 1543.21 Q524.21 1538.6 524.21 1529.87 Q524.21 1521.12 527.265 1516.54 Q530.344 1511.93 536.154 1511.93 Z" fill="#000000" fill-rule="evenodd" fill-opacity="1" /><path clip-path="url(#clip470)" d="M 0 0 M868.911 1530.29 L898.587 1530.29 L898.587 1534.23 L868.911 1534.23 L868.911 1530.29 Z" fill="#000000" fill-rule="evenodd" fill-opacity="1" /><path clip-path="url(#clip470)" d="M 0 0 M903.703 1512.56 L922.059 1512.56 L922.059 1516.5 L907.985 1516.5 L907.985 1524.97 Q909.004 1524.62 910.022 1524.46 Q911.041 1524.27 912.059 1524.27 Q917.846 1524.27 921.226 1527.44 Q924.606 1530.62 924.606 1536.03 Q924.606 1541.61 921.133 1544.71 Q917.661 1547.79 911.342 1547.79 Q909.166 1547.79 906.897 1547.42 Q904.652 1547.05 902.245 1546.31 L902.245 1541.61 Q904.328 1542.74 906.55 1543.3 Q908.772 1543.86 911.249 1543.86 Q915.254 1543.86 917.592 1541.75 Q919.93 1539.64 919.93 1536.03 Q919.93 1532.42 917.592 1530.31 Q915.254 1528.21 911.249 1528.21 Q909.374 1528.21 907.499 1528.62 Q905.647 1529.04 903.703 1529.92 L903.703 1512.56 Z" fill="#000000" fill-rule="evenodd" fill-opacity="1" /><path clip-path="url(#clip470)" d="M 0 0 M1286.66 1515.64 Q1283.05 1515.64 1281.22 1519.2 Q1279.41 1522.75 1279.41 1529.87 Q1279.41 1536.98 1281.22 1540.55 Q1283.05 1544.09 1286.66 1544.09 Q1290.29 1544.09 1292.1 1540.55 Q1293.93 1536.98 1293.93 1529.87 Q1293.93 1522.75 1292.1 1519.2 Q1290.29 1515.64 1286.66 1515.64 M1286.66 1511.93 Q1292.47 1511.93 1295.52 1516.54 Q1298.6 1521.12 1298.6 1529.87 Q1298.6 1538.6 1295.52 1543.21 Q1292.47 1547.79 1286.66 1547.79 Q1280.85 1547.79 1277.77 1543.21 Q1274.71 1538.6 1274.71 1529.87 Q1274.71 1521.12 1277.77 1516.54 Q1280.85 1511.93 1286.66 1511.93 Z" fill="#000000" fill-rule="evenodd" fill-opacity="1" /><path clip-path="url(#clip470)" d="M 0 0 M1666.83 1512.56 L1685.19 1512.56 L1685.19 1516.5 L1671.11 1516.5 L1671.11 1524.97 Q1672.13 1524.62 1673.15 1524.46 Q1674.17 1524.27 1675.19 1524.27 Q1680.98 1524.27 1684.36 1527.44 Q1687.74 1530.62 1687.74 1536.03 Q1687.74 1541.61 1684.26 1544.71 Q1680.79 1547.79 1674.47 1547.79 Q1672.3 1547.79 1670.03 1547.42 Q1667.78 1547.05 1665.37 1546.31 L1665.37 1541.61 Q1667.46 1542.74 1669.68 1543.3 Q1671.9 1543.86 1674.38 1543.86 Q1678.38 1543.86 1680.72 1541.75 Q1683.06 1539.64 1683.06 1536.03 Q1683.06 1532.42 1680.72 1530.31 Q1678.38 1528.21 1674.38 1528.21 Q1672.5 1528.21 1670.63 1528.62 Q1668.78 1529.04 1666.83 1529.92 L1666.83 1512.56 Z" fill="#000000" fill-rule="evenodd" fill-opacity="1" /><path clip-path="url(#clip470)" d="M 0 0 M2043.33 1543.18 L2050.97 1543.18 L2050.97 1516.82 L2042.66 1518.49 L2042.66 1514.23 L2050.92 1512.56 L2055.6 1512.56 L2055.6 1543.18 L2063.24 1543.18 L2063.24 1547.12 L2043.33 1547.12 L2043.33 1543.18 Z" fill="#000000" fill-rule="evenodd" fill-opacity="1" /><path clip-path="url(#clip470)" d="M 0 0 M2078.3 1515.64 Q2074.69 1515.64 2072.86 1519.2 Q2071.06 1522.75 2071.06 1529.87 Q2071.06 1536.98 2072.86 1540.55 Q2074.69 1544.09 2078.3 1544.09 Q2081.94 1544.09 2083.74 1540.55 Q2085.57 1536.98 2085.57 1529.87 Q2085.57 1522.75 2083.74 1519.2 Q2081.94 1515.64 2078.3 1515.64 M2078.3 1511.93 Q2084.11 1511.93 2087.17 1516.54 Q2090.25 1521.12 2090.25 1529.87 Q2090.25 1538.6 2087.17 1543.21 Q2084.11 1547.79 2078.3 1547.79 Q2072.49 1547.79 2069.42 1543.21 Q2066.36 1538.6 2066.36 1529.87 Q2066.36 1521.12 2069.42 1516.54 Q2072.49 1511.93 2078.3 1511.93 Z" fill="#000000" fill-rule="evenodd" fill-opacity="1" /><polyline clip-path="url(#clip472)" style="stroke:#000000; stroke-width:2; stroke-opacity:0.1; fill:none" points="
  169.469,1232.99 2352.76,1232.99 
  "/>
<polyline clip-path="url(#clip472)" style="stroke:#000000; stroke-width:2; stroke-opacity:0.1; fill:none" points="
  169.469,941.212 2352.76,941.212 
  "/>
<polyline clip-path="url(#clip472)" style="stroke:#000000; stroke-width:2; stroke-opacity:0.1; fill:none" points="
  169.469,649.436 2352.76,649.436 
  "/>
<polyline clip-path="url(#clip472)" style="stroke:#000000; stroke-width:2; stroke-opacity:0.1; fill:none" points="
  169.469,357.659 2352.76,357.659 
  "/>
<polyline clip-path="url(#clip472)" style="stroke:#000000; stroke-width:2; stroke-opacity:0.1; fill:none" points="
  169.469,65.8829 2352.76,65.8829 
  "/>
<polyline clip-path="url(#clip470)" style="stroke:#000000; stroke-width:4; stroke-opacity:1; fill:none" points="
  169.469,1486.45 169.469,47.2441 
  "/>
<polyline clip-path="url(#clip470)" style="stroke:#000000; stroke-width:4; stroke-opacity:1; fill:none" points="
  169.469,1232.99 195.668,1232.99 
  "/>
<polyline clip-path="url(#clip470)" style="stroke:#000000; stroke-width:4; stroke-opacity:1; fill:none" points="
  169.469,941.212 195.668,941.212 
  "/>
<polyline clip-path="url(#clip470)" style="stroke:#000000; stroke-width:4; stroke-opacity:1; fill:none" points="
  169.469,649.436 195.668,649.436 
  "/>
<polyline clip-path="url(#clip470)" style="stroke:#000000; stroke-width:4; stroke-opacity:1; fill:none" points="
  169.469,357.659 195.668,357.659 
  "/>
<polyline clip-path="url(#clip470)" style="stroke:#000000; stroke-width:4; stroke-opacity:1; fill:none" points="
  169.469,65.8829 195.668,65.8829 
  "/>
<path clip-path="url(#clip470)" d="M 0 0 M50.9921 1233.44 L80.6679 1233.44 L80.6679 1237.37 L50.9921 1237.37 L50.9921 1233.44 Z" fill="#000000" fill-rule="evenodd" fill-opacity="1" /><path clip-path="url(#clip470)" d="M 0 0 M86.5475 1246.33 L94.1863 1246.33 L94.1863 1219.97 L85.8762 1221.63 L85.8762 1217.37 L94.14 1215.71 L98.8159 1215.71 L98.8159 1246.33 L106.455 1246.33 L106.455 1250.27 L86.5475 1250.27 L86.5475 1246.33 Z" fill="#000000" fill-rule="evenodd" fill-opacity="1" /><path clip-path="url(#clip470)" d="M 0 0 M121.524 1218.79 Q117.913 1218.79 116.084 1222.35 Q114.279 1225.89 114.279 1233.02 Q114.279 1240.13 116.084 1243.69 Q117.913 1247.24 121.524 1247.24 Q125.158 1247.24 126.964 1243.69 Q128.793 1240.13 128.793 1233.02 Q128.793 1225.89 126.964 1222.35 Q125.158 1218.79 121.524 1218.79 M121.524 1215.08 Q127.334 1215.08 130.39 1219.69 Q133.469 1224.27 133.469 1233.02 Q133.469 1241.75 130.39 1246.36 Q127.334 1250.94 121.524 1250.94 Q115.714 1250.94 112.635 1246.36 Q109.58 1241.75 109.58 1233.02 Q109.58 1224.27 112.635 1219.69 Q115.714 1215.08 121.524 1215.08 Z" fill="#000000" fill-rule="evenodd" fill-opacity="1" /><path clip-path="url(#clip470)" d="M 0 0 M77.7744 941.663 L107.45 941.663 L107.45 945.598 L77.7744 945.598 L77.7744 941.663 Z" fill="#000000" fill-rule="evenodd" fill-opacity="1" /><path clip-path="url(#clip470)" d="M 0 0 M112.566 923.932 L130.922 923.932 L130.922 927.867 L116.848 927.867 L116.848 936.339 Q117.867 935.992 118.885 935.83 Q119.904 935.645 120.922 935.645 Q126.709 935.645 130.089 938.816 Q133.469 941.987 133.469 947.404 Q133.469 952.983 129.996 956.085 Q126.524 959.163 120.205 959.163 Q118.029 959.163 115.76 958.793 Q113.515 958.422 111.108 957.682 L111.108 952.983 Q113.191 954.117 115.413 954.673 Q117.635 955.228 120.112 955.228 Q124.117 955.228 126.455 953.122 Q128.793 951.015 128.793 947.404 Q128.793 943.793 126.455 941.686 Q124.117 939.58 120.112 939.58 Q118.237 939.58 116.362 939.997 Q114.51 940.413 112.566 941.293 L112.566 923.932 Z" fill="#000000" fill-rule="evenodd" fill-opacity="1" /><path clip-path="url(#clip470)" d="M 0 0 M121.524 635.234 Q117.913 635.234 116.084 638.799 Q114.279 642.341 114.279 649.47 Q114.279 656.577 116.084 660.142 Q117.913 663.683 121.524 663.683 Q125.158 663.683 126.964 660.142 Q128.793 656.577 128.793 649.47 Q128.793 642.341 126.964 638.799 Q125.158 635.234 121.524 635.234 M121.524 631.531 Q127.334 631.531 130.39 636.137 Q133.469 640.72 133.469 649.47 Q133.469 658.197 130.39 662.804 Q127.334 667.387 121.524 667.387 Q115.714 667.387 112.635 662.804 Q109.58 658.197 109.58 649.47 Q109.58 640.72 112.635 636.137 Q115.714 631.531 121.524 631.531 Z" fill="#000000" fill-rule="evenodd" fill-opacity="1" /><path clip-path="url(#clip470)" d="M 0 0 M112.566 340.379 L130.922 340.379 L130.922 344.314 L116.848 344.314 L116.848 352.787 Q117.867 352.439 118.885 352.277 Q119.904 352.092 120.922 352.092 Q126.709 352.092 130.089 355.263 Q133.469 358.435 133.469 363.851 Q133.469 369.43 129.996 372.532 Q126.524 375.611 120.205 375.611 Q118.029 375.611 115.76 375.24 Q113.515 374.87 111.108 374.129 L111.108 369.43 Q113.191 370.564 115.413 371.12 Q117.635 371.675 120.112 371.675 Q124.117 371.675 126.455 369.569 Q128.793 367.462 128.793 363.851 Q128.793 360.24 126.455 358.134 Q124.117 356.027 120.112 356.027 Q118.237 356.027 116.362 356.444 Q114.51 356.861 112.566 357.74 L112.566 340.379 Z" fill="#000000" fill-rule="evenodd" fill-opacity="1" /><path clip-path="url(#clip470)" d="M 0 0 M86.5475 79.2277 L94.1863 79.2277 L94.1863 52.8621 L85.8762 54.5288 L85.8762 50.2695 L94.14 48.6029 L98.8159 48.6029 L98.8159 79.2277 L106.455 79.2277 L106.455 83.1629 L86.5475 83.1629 L86.5475 79.2277 Z" fill="#000000" fill-rule="evenodd" fill-opacity="1" /><path clip-path="url(#clip470)" d="M 0 0 M121.524 51.6816 Q117.913 51.6816 116.084 55.2464 Q114.279 58.788 114.279 65.9176 Q114.279 73.024 116.084 76.5888 Q117.913 80.1305 121.524 80.1305 Q125.158 80.1305 126.964 76.5888 Q128.793 73.024 128.793 65.9176 Q128.793 58.788 126.964 55.2464 Q125.158 51.6816 121.524 51.6816 M121.524 47.9779 Q127.334 47.9779 130.39 52.5843 Q133.469 57.1677 133.469 65.9176 Q133.469 74.6444 130.39 79.2509 Q127.334 83.8342 121.524 83.8342 Q115.714 83.8342 112.635 79.2509 Q109.58 74.6444 109.58 65.9176 Q109.58 57.1677 112.635 52.5843 Q115.714 47.9779 121.524 47.9779 Z" fill="#000000" fill-rule="evenodd" fill-opacity="1" /><path clip-path="url(#clip472)" d="
M344.267 762.581 L614.685 762.581 L614.685 640.277 L344.267 640.277 L344.267 762.581  Z
  " fill="#009af9" fill-rule="evenodd" fill-opacity="0.3"/>
<polyline clip-path="url(#clip472)" style="stroke:#000000; stroke-width:4; stroke-opacity:0.3; fill:none" points="
  344.267,762.581 614.685,762.581 614.685,640.277 344.267,640.277 344.267,762.581 
  "/>
<path clip-path="url(#clip472)" d="
M242.022 750.191 L508.883 750.191 L508.883 538.709 L242.022 538.709 L242.022 750.191  Z
  " fill="#009af9" fill-rule="evenodd" fill-opacity="0.3"/>
<polyline clip-path="url(#clip472)" style="stroke:#000000; stroke-width:4; stroke-opacity:0.3; fill:none" points="
  242.022,750.191 508.883,750.191 508.883,538.709 242.022,538.709 242.022,750.191 
  "/>
<path clip-path="url(#clip472)" d="
M231.26 719.905 L394.625 719.905 L394.625 586.428 L231.26 586.428 L231.26 719.905  Z
  " fill="#009af9" fill-rule="evenodd" fill-opacity="0.3"/>
<polyline clip-path="url(#clip472)" style="stroke:#000000; stroke-width:4; stroke-opacity:0.3; fill:none" points="
  231.26,719.905 394.625,719.905 394.625,586.428 231.26,586.428 231.26,719.905 
  "/>
<path clip-path="url(#clip472)" d="
M439.68 663.399 L714.358 663.399 L714.358 544.875 L439.68 544.875 L439.68 663.399  Z
  " fill="#009af9" fill-rule="evenodd" fill-opacity="0.3"/>
<polyline clip-path="url(#clip472)" style="stroke:#000000; stroke-width:4; stroke-opacity:0.3; fill:none" points="
  439.68,663.399 714.358,663.399 714.358,544.875 439.68,544.875 439.68,663.399 
  "/>
<path clip-path="url(#clip472)" d="
M256.689 698.248 L490.212 698.248 L490.212 466.382 L256.689 466.382 L256.689 698.248  Z
  " fill="#009af9" fill-rule="evenodd" fill-opacity="0.3"/>
<polyline clip-path="url(#clip472)" style="stroke:#000000; stroke-width:4; stroke-opacity:0.3; fill:none" points="
  256.689,698.248 490.212,698.248 490.212,466.382 256.689,466.382 256.689,698.248 
  "/>
<path clip-path="url(#clip472)" d="
M254.047 633.209 L416.831 633.209 L416.831 498.656 L254.047 498.656 L254.047 633.209  Z
  " fill="#009af9" fill-rule="evenodd" fill-opacity="0.3"/>
<polyline clip-path="url(#clip472)" style="stroke:#000000; stroke-width:4; stroke-opacity:0.3; fill:none" points="
  254.047,633.209 416.831,633.209 416.831,498.656 254.047,498.656 254.047,633.209 
  "/>
<path clip-path="url(#clip472)" d="
M344.267 762.581 L614.685 762.581 L614.685 640.277 L344.267 640.277 L344.267 762.581  Z
  " fill="#e26f46" fill-rule="evenodd" fill-opacity="0.3"/>
<polyline clip-path="url(#clip472)" style="stroke:#000000; stroke-width:4; stroke-opacity:0.3; fill:none" points="
  344.267,762.581 614.685,762.581 614.685,640.277 344.267,640.277 344.267,762.581 
  "/>
<path clip-path="url(#clip472)" d="
M242.022 750.191 L508.883 750.191 L508.883 538.709 L242.022 538.709 L242.022 750.191  Z
  " fill="#e26f46" fill-rule="evenodd" fill-opacity="0.3"/>
<polyline clip-path="url(#clip472)" style="stroke:#000000; stroke-width:4; stroke-opacity:0.3; fill:none" points="
  242.022,750.191 508.883,750.191 508.883,538.709 242.022,538.709 242.022,750.191 
  "/>
<path clip-path="url(#clip472)" d="
M231.26 719.905 L394.625 719.905 L394.625 586.428 L231.26 586.428 L231.26 719.905  Z
  " fill="#e26f46" fill-rule="evenodd" fill-opacity="0.3"/>
<polyline clip-path="url(#clip472)" style="stroke:#000000; stroke-width:4; stroke-opacity:0.3; fill:none" points="
  231.26,719.905 394.625,719.905 394.625,586.428 231.26,586.428 231.26,719.905 
  "/>
<path clip-path="url(#clip472)" d="
M439.68 663.399 L714.358 663.399 L714.358 544.875 L439.68 544.875 L439.68 663.399  Z
  " fill="#e26f46" fill-rule="evenodd" fill-opacity="0.3"/>
<polyline clip-path="url(#clip472)" style="stroke:#000000; stroke-width:4; stroke-opacity:0.3; fill:none" points="
  439.68,663.399 714.358,663.399 714.358,544.875 439.68,544.875 439.68,663.399 
  "/>
<path clip-path="url(#clip472)" d="
M256.689 698.248 L490.212 698.248 L490.212 466.382 L256.689 466.382 L256.689 698.248  Z
  " fill="#e26f46" fill-rule="evenodd" fill-opacity="0.3"/>
<polyline clip-path="url(#clip472)" style="stroke:#000000; stroke-width:4; stroke-opacity:0.3; fill:none" points="
  256.689,698.248 490.212,698.248 490.212,466.382 256.689,466.382 256.689,698.248 
  "/>
<path clip-path="url(#clip472)" d="
M254.047 633.209 L416.831 633.209 L416.831 498.656 L254.047 498.656 L254.047 633.209  Z
  " fill="#e26f46" fill-rule="evenodd" fill-opacity="0.3"/>
<polyline clip-path="url(#clip472)" style="stroke:#000000; stroke-width:4; stroke-opacity:0.3; fill:none" points="
  254.047,633.209 416.831,633.209 416.831,498.656 254.047,498.656 254.047,633.209 
  "/>
<path clip-path="url(#clip472)" d="
M1431.16 1201.13 L1674.18 1201.13 L1674.18 1016.57 L1431.16 1016.57 L1431.16 1201.13  Z
  " fill="#3da44d" fill-rule="evenodd" fill-opacity="0.3"/>
<polyline clip-path="url(#clip472)" style="stroke:#000000; stroke-width:4; stroke-opacity:0.3; fill:none" points="
  1431.16,1201.13 1674.18,1201.13 1674.18,1016.57 1431.16,1016.57 1431.16,1201.13 
  "/>
<path clip-path="url(#clip472)" d="
M1477.17 1297.13 L1768.01 1297.13 L1768.01 1071.72 L1477.17 1071.72 L1477.17 1297.13  Z
  " fill="#3da44d" fill-rule="evenodd" fill-opacity="0.3"/>
<polyline clip-path="url(#clip472)" style="stroke:#000000; stroke-width:4; stroke-opacity:0.3; fill:none" points="
  1477.17,1297.13 1768.01,1297.13 1768.01,1071.72 1477.17,1071.72 1477.17,1297.13 
  "/>
<path clip-path="url(#clip472)" d="
M1431.02 1375.55 L1642.3 1375.55 L1642.3 1236.41 L1431.02 1236.41 L1431.02 1375.55  Z
  " fill="#3da44d" fill-rule="evenodd" fill-opacity="0.3"/>
<polyline clip-path="url(#clip472)" style="stroke:#000000; stroke-width:4; stroke-opacity:0.3; fill:none" points="
  1431.02,1375.55 1642.3,1375.55 1642.3,1236.41 1431.02,1236.41 1431.02,1375.55 
  "/>
<path clip-path="url(#clip472)" d="
M1324.66 1335.38 L1623.81 1335.38 L1623.81 1160.78 L1324.66 1160.78 L1324.66 1335.38  Z
  " fill="#3da44d" fill-rule="evenodd" fill-opacity="0.3"/>
<polyline clip-path="url(#clip472)" style="stroke:#000000; stroke-width:4; stroke-opacity:0.3; fill:none" points="
  1324.66,1335.38 1623.81,1335.38 1623.81,1160.78 1324.66,1160.78 1324.66,1335.38 
  "/>
<path clip-path="url(#clip472)" d="
M1525.86 1344.93 L1735.25 1344.93 L1735.25 1208.2 L1525.86 1208.2 L1525.86 1344.93  Z
  " fill="#3da44d" fill-rule="evenodd" fill-opacity="0.3"/>
<polyline clip-path="url(#clip472)" style="stroke:#000000; stroke-width:4; stroke-opacity:0.3; fill:none" points="
  1525.86,1344.93 1735.25,1344.93 1735.25,1208.2 1525.86,1208.2 1525.86,1344.93 
  "/>
<path clip-path="url(#clip472)" d="
M1461.18 1445.72 L1625.6 1445.72 L1625.6 1226.09 L1461.18 1226.09 L1461.18 1445.72  Z
  " fill="#3da44d" fill-rule="evenodd" fill-opacity="0.3"/>
<polyline clip-path="url(#clip472)" style="stroke:#000000; stroke-width:4; stroke-opacity:0.3; fill:none" points="
  1461.18,1445.72 1625.6,1445.72 1625.6,1226.09 1461.18,1226.09 1461.18,1445.72 
  "/>
<path clip-path="url(#clip472)" d="
M436.515 393.854 L629.237 393.854 L629.237 206.091 L436.515 206.091 L436.515 393.854  Z
  " fill="#c271d2" fill-rule="evenodd" fill-opacity="0.3"/>
<polyline clip-path="url(#clip472)" style="stroke:#000000; stroke-width:4; stroke-opacity:0.3; fill:none" points="
  436.515,393.854 629.237,393.854 629.237,206.091 436.515,206.091 436.515,393.854 
  "/>
<path clip-path="url(#clip472)" d="
M391.716 402.43 L683 402.43 L683 181.825 L391.716 181.825 L391.716 402.43  Z
  " fill="#c271d2" fill-rule="evenodd" fill-opacity="0.3"/>
<polyline clip-path="url(#clip472)" style="stroke:#000000; stroke-width:4; stroke-opacity:0.3; fill:none" points="
  391.716,402.43 683,402.43 683,181.825 391.716,181.825 391.716,402.43 
  "/>
<path clip-path="url(#clip472)" d="
M347.897 483.741 L525.536 483.741 L525.536 291.762 L347.897 291.762 L347.897 483.741  Z
  " fill="#c271d2" fill-rule="evenodd" fill-opacity="0.3"/>
<polyline clip-path="url(#clip472)" style="stroke:#000000; stroke-width:4; stroke-opacity:0.3; fill:none" points="
  347.897,483.741 525.536,483.741 525.536,291.762 347.897,291.762 347.897,483.741 
  "/>
<path clip-path="url(#clip472)" d="
M342.568 449.11 L555.666 449.11 L555.666 251.347 L342.568 251.347 L342.568 449.11  Z
  " fill="#c271d2" fill-rule="evenodd" fill-opacity="0.3"/>
<polyline clip-path="url(#clip472)" style="stroke:#000000; stroke-width:4; stroke-opacity:0.3; fill:none" points="
  342.568,449.11 555.666,449.11 555.666,251.347 342.568,251.347 342.568,449.11 
  "/>
<path clip-path="url(#clip472)" d="
M472.414 270.258 L664.997 270.258 L664.997 150.276 L472.414 150.276 L472.414 270.258  Z
  " fill="#c271d2" fill-rule="evenodd" fill-opacity="0.3"/>
<polyline clip-path="url(#clip472)" style="stroke:#000000; stroke-width:4; stroke-opacity:0.3; fill:none" points="
  472.414,270.258 664.997,270.258 664.997,150.276 472.414,150.276 472.414,270.258 
  "/>
<path clip-path="url(#clip472)" d="
M389.171 292.862 L610.551 292.862 L610.551 87.9763 L389.171 87.9763 L389.171 292.862  Z
  " fill="#c271d2" fill-rule="evenodd" fill-opacity="0.3"/>
<polyline clip-path="url(#clip472)" style="stroke:#000000; stroke-width:4; stroke-opacity:0.3; fill:none" points="
  389.171,292.862 610.551,292.862 610.551,87.9763 389.171,87.9763 389.171,292.862 
  "/>
<path clip-path="url(#clip472)" d="
M1807.19 1317.02 L1991.88 1317.02 L1991.88 1128.41 L1807.19 1128.41 L1807.19 1317.02  Z
  " fill="#ac8d18" fill-rule="evenodd" fill-opacity="0.3"/>
<polyline clip-path="url(#clip472)" style="stroke:#000000; stroke-width:4; stroke-opacity:0.3; fill:none" points="
  1807.19,1317.02 1991.88,1317.02 1991.88,1128.41 1807.19,1128.41 1807.19,1317.02 
  "/>
<path clip-path="url(#clip472)" d="
M2033.42 1266.65 L2290.96 1266.65 L2290.96 1080.58 L2033.42 1080.58 L2033.42 1266.65  Z
  " fill="#ac8d18" fill-rule="evenodd" fill-opacity="0.3"/>
<polyline clip-path="url(#clip472)" style="stroke:#000000; stroke-width:4; stroke-opacity:0.3; fill:none" points="
  2033.42,1266.65 2290.96,1266.65 2290.96,1080.58 2033.42,1080.58 2033.42,1266.65 
  "/>
<path clip-path="url(#clip472)" d="
M1813.91 1231.01 L2001.04 1231.01 L2001.04 1025.52 L1813.91 1025.52 L1813.91 1231.01  Z
  " fill="#ac8d18" fill-rule="evenodd" fill-opacity="0.3"/>
<polyline clip-path="url(#clip472)" style="stroke:#000000; stroke-width:4; stroke-opacity:0.3; fill:none" points="
  1813.91,1231.01 2001.04,1231.01 2001.04,1025.52 1813.91,1025.52 1813.91,1231.01 
  "/>
<path clip-path="url(#clip472)" d="
M1905.27 1269.2 L2150.36 1269.2 L2150.36 1121.49 L1905.27 1121.49 L1905.27 1269.2  Z
  " fill="#ac8d18" fill-rule="evenodd" fill-opacity="0.3"/>
<polyline clip-path="url(#clip472)" style="stroke:#000000; stroke-width:4; stroke-opacity:0.3; fill:none" points="
  1905.27,1269.2 2150.36,1269.2 2150.36,1121.49 1905.27,1121.49 1905.27,1269.2 
  "/>
<path clip-path="url(#clip472)" d="
M1811.32 1131.82 L2073.89 1131.82 L2073.89 941.758 L1811.32 941.758 L1811.32 1131.82  Z
  " fill="#ac8d18" fill-rule="evenodd" fill-opacity="0.3"/>
<polyline clip-path="url(#clip472)" style="stroke:#000000; stroke-width:4; stroke-opacity:0.3; fill:none" points="
  1811.32,1131.82 2073.89,1131.82 2073.89,941.758 1811.32,941.758 1811.32,1131.82 
  "/>
<path clip-path="url(#clip472)" d="
M1839.36 1337.21 L2065.34 1337.21 L2065.34 1167.98 L1839.36 1167.98 L1839.36 1337.21  Z
  " fill="#ac8d18" fill-rule="evenodd" fill-opacity="0.3"/>
<polyline clip-path="url(#clip472)" style="stroke:#000000; stroke-width:4; stroke-opacity:0.3; fill:none" points="
  1839.36,1337.21 2065.34,1337.21 2065.34,1167.98 1839.36,1167.98 1839.36,1337.21 
  "/>
<path clip-path="url(#clip470)" d="
M1984.66 458.098 L2279.98 458.098 L2279.98 95.2176 L1984.66 95.2176  Z
  " fill="#ffffff" fill-rule="evenodd" fill-opacity="1"/>
<polyline clip-path="url(#clip470)" style="stroke:#000000; stroke-width:4; stroke-opacity:1; fill:none" points="
  1984.66,458.098 2279.98,458.098 2279.98,95.2176 1984.66,95.2176 1984.66,458.098 
  "/>
<path clip-path="url(#clip470)" d="
M2008.92 179.89 L2154.47 179.89 L2154.47 131.506 L2008.92 131.506 L2008.92 179.89  Z
  " fill="#009af9" fill-rule="evenodd" fill-opacity="0.3"/>
<polyline clip-path="url(#clip470)" style="stroke:#000000; stroke-width:4; stroke-opacity:1; fill:none" points="
  2008.92,179.89 2154.47,179.89 2154.47,131.506 2008.92,131.506 2008.92,179.89 
  "/>
<path clip-path="url(#clip470)" d="M 0 0 M2192.57 175.385 Q2190.77 180.015 2189.05 181.427 Q2187.34 182.839 2184.47 182.839 L2181.07 182.839 L2181.07 179.274 L2183.57 179.274 Q2185.33 179.274 2186.3 178.44 Q2187.27 177.607 2188.45 174.505 L2189.22 172.561 L2178.73 147.052 L2183.24 147.052 L2191.35 167.329 L2199.45 147.052 L2203.96 147.052 L2192.57 175.385 Z" fill="#000000" fill-rule="evenodd" fill-opacity="1" /><path clip-path="url(#clip470)" d="M 0 0 M2209.84 169.042 L2217.48 169.042 L2217.48 142.677 L2209.17 144.343 L2209.17 140.084 L2217.43 138.418 L2222.11 138.418 L2222.11 169.042 L2229.75 169.042 L2229.75 172.978 L2209.84 172.978 L2209.84 169.042 Z" fill="#000000" fill-rule="evenodd" fill-opacity="1" /><path clip-path="url(#clip470)" d="
M2008.92 240.37 L2154.47 240.37 L2154.47 191.986 L2008.92 191.986 L2008.92 240.37  Z
  " fill="#e26f46" fill-rule="evenodd" fill-opacity="0.3"/>
<polyline clip-path="url(#clip470)" style="stroke:#000000; stroke-width:4; stroke-opacity:1; fill:none" points="
  2008.92,240.37 2154.47,240.37 2154.47,191.986 2008.92,191.986 2008.92,240.37 
  "/>
<path clip-path="url(#clip470)" d="M 0 0 M2192.57 235.865 Q2190.77 240.495 2189.05 241.907 Q2187.34 243.319 2184.47 243.319 L2181.07 243.319 L2181.07 239.754 L2183.57 239.754 Q2185.33 239.754 2186.3 238.92 Q2187.27 238.087 2188.45 234.985 L2189.22 233.041 L2178.73 207.532 L2183.24 207.532 L2191.35 227.809 L2199.45 207.532 L2203.96 207.532 L2192.57 235.865 Z" fill="#000000" fill-rule="evenodd" fill-opacity="1" /><path clip-path="url(#clip470)" d="M 0 0 M2213.06 229.522 L2229.38 229.522 L2229.38 233.458 L2207.43 233.458 L2207.43 229.522 Q2210.1 226.768 2214.68 222.138 Q2219.29 217.485 2220.47 216.143 Q2222.71 213.62 2223.59 211.884 Q2224.49 210.124 2224.49 208.435 Q2224.49 205.68 2222.55 203.944 Q2220.63 202.208 2217.53 202.208 Q2215.33 202.208 2212.87 202.972 Q2210.44 203.735 2207.67 205.286 L2207.67 200.564 Q2210.49 199.43 2212.94 198.851 Q2215.4 198.273 2217.43 198.273 Q2222.8 198.273 2226 200.958 Q2229.19 203.643 2229.19 208.134 Q2229.19 210.263 2228.38 212.185 Q2227.6 214.083 2225.49 216.675 Q2224.91 217.347 2221.81 220.564 Q2218.71 223.759 2213.06 229.522 Z" fill="#000000" fill-rule="evenodd" fill-opacity="1" /><path clip-path="url(#clip470)" d="
M2008.92 300.85 L2154.47 300.85 L2154.47 252.466 L2008.92 252.466 L2008.92 300.85  Z
  " fill="#3da44d" fill-rule="evenodd" fill-opacity="0.3"/>
<polyline clip-path="url(#clip470)" style="stroke:#000000; stroke-width:4; stroke-opacity:1; fill:none" points="
  2008.92,300.85 2154.47,300.85 2154.47,252.466 2008.92,252.466 2008.92,300.85 
  "/>
<path clip-path="url(#clip470)" d="M 0 0 M2192.57 296.345 Q2190.77 300.975 2189.05 302.387 Q2187.34 303.799 2184.47 303.799 L2181.07 303.799 L2181.07 300.234 L2183.57 300.234 Q2185.33 300.234 2186.3 299.4 Q2187.27 298.567 2188.45 295.465 L2189.22 293.521 L2178.73 268.012 L2183.24 268.012 L2191.35 288.289 L2199.45 268.012 L2203.96 268.012 L2192.57 296.345 Z" fill="#000000" fill-rule="evenodd" fill-opacity="1" /><path clip-path="url(#clip470)" d="M 0 0 M2223.2 275.303 Q2226.55 276.021 2228.43 278.289 Q2230.33 280.558 2230.33 283.891 Q2230.33 289.007 2226.81 291.808 Q2223.29 294.609 2216.81 294.609 Q2214.63 294.609 2212.32 294.169 Q2210.03 293.752 2207.57 292.896 L2207.57 288.382 Q2209.52 289.516 2211.83 290.095 Q2214.15 290.674 2216.67 290.674 Q2221.07 290.674 2223.36 288.938 Q2225.68 287.201 2225.68 283.891 Q2225.68 280.836 2223.52 279.123 Q2221.39 277.387 2217.57 277.387 L2213.55 277.387 L2213.55 273.544 L2217.76 273.544 Q2221.21 273.544 2223.04 272.178 Q2224.86 270.79 2224.86 268.197 Q2224.86 265.535 2222.97 264.123 Q2221.09 262.688 2217.57 262.688 Q2215.65 262.688 2213.45 263.104 Q2211.25 263.521 2208.62 264.401 L2208.62 260.234 Q2211.28 259.493 2213.59 259.123 Q2215.93 258.753 2217.99 258.753 Q2223.31 258.753 2226.42 261.183 Q2229.52 263.59 2229.52 267.711 Q2229.52 270.581 2227.87 272.572 Q2226.23 274.54 2223.2 275.303 Z" fill="#000000" fill-rule="evenodd" fill-opacity="1" /><path clip-path="url(#clip470)" d="
M2008.92 361.33 L2154.47 361.33 L2154.47 312.946 L2008.92 312.946 L2008.92 361.33  Z
  " fill="#c271d2" fill-rule="evenodd" fill-opacity="0.3"/>
<polyline clip-path="url(#clip470)" style="stroke:#000000; stroke-width:4; stroke-opacity:1; fill:none" points="
  2008.92,361.33 2154.47,361.33 2154.47,312.946 2008.92,312.946 2008.92,361.33 
  "/>
<path clip-path="url(#clip470)" d="M 0 0 M2192.57 356.825 Q2190.77 361.455 2189.05 362.867 Q2187.34 364.279 2184.47 364.279 L2181.07 364.279 L2181.07 360.714 L2183.57 360.714 Q2185.33 360.714 2186.3 359.88 Q2187.27 359.047 2188.45 355.945 L2189.22 354.001 L2178.73 328.492 L2183.24 328.492 L2191.35 348.769 L2199.45 328.492 L2203.96 328.492 L2192.57 356.825 Z" fill="#000000" fill-rule="evenodd" fill-opacity="1" /><path clip-path="url(#clip470)" d="M 0 0 M2221.88 323.932 L2210.07 342.381 L2221.88 342.381 L2221.88 323.932 M2220.65 319.858 L2226.53 319.858 L2226.53 342.381 L2231.46 342.381 L2231.46 346.269 L2226.53 346.269 L2226.53 354.418 L2221.88 354.418 L2221.88 346.269 L2206.28 346.269 L2206.28 341.756 L2220.65 319.858 Z" fill="#000000" fill-rule="evenodd" fill-opacity="1" /><path clip-path="url(#clip470)" d="
M2008.92 421.81 L2154.47 421.81 L2154.47 373.426 L2008.92 373.426 L2008.92 421.81  Z
  " fill="#ac8d18" fill-rule="evenodd" fill-opacity="0.3"/>
<polyline clip-path="url(#clip470)" style="stroke:#000000; stroke-width:4; stroke-opacity:1; fill:none" points="
  2008.92,421.81 2154.47,421.81 2154.47,373.426 2008.92,373.426 2008.92,421.81 
  "/>
<path clip-path="url(#clip470)" d="M 0 0 M2192.57 417.305 Q2190.77 421.935 2189.05 423.347 Q2187.34 424.759 2184.47 424.759 L2181.07 424.759 L2181.07 421.194 L2183.57 421.194 Q2185.33 421.194 2186.3 420.36 Q2187.27 419.527 2188.45 416.425 L2189.22 414.481 L2178.73 388.972 L2183.24 388.972 L2191.35 409.249 L2199.45 388.972 L2203.96 388.972 L2192.57 417.305 Z" fill="#000000" fill-rule="evenodd" fill-opacity="1" /><path clip-path="url(#clip470)" d="M 0 0 M2209.08 380.338 L2227.43 380.338 L2227.43 384.273 L2213.36 384.273 L2213.36 392.745 Q2214.38 392.398 2215.4 392.236 Q2216.42 392.05 2217.43 392.05 Q2223.22 392.05 2226.6 395.222 Q2229.98 398.393 2229.98 403.81 Q2229.98 409.388 2226.51 412.49 Q2223.04 415.569 2216.72 415.569 Q2214.54 415.569 2212.27 415.198 Q2210.03 414.828 2207.62 414.087 L2207.62 409.388 Q2209.7 410.523 2211.93 411.078 Q2214.15 411.634 2216.62 411.634 Q2220.63 411.634 2222.97 409.527 Q2225.3 407.421 2225.3 403.81 Q2225.3 400.199 2222.97 398.092 Q2220.63 395.986 2216.62 395.986 Q2214.75 395.986 2212.87 396.402 Q2211.02 396.819 2209.08 397.699 L2209.08 380.338 Z" fill="#000000" fill-rule="evenodd" fill-opacity="1" /></svg>
