<?xml version="1.0" encoding="utf-8"?>
<svg xmlns="http://www.w3.org/2000/svg" xmlns:xlink="http://www.w3.org/1999/xlink" width="600" height="400" viewBox="0 0 2400 1600">
<defs>
  <clipPath id="clip510">
    <rect x="0" y="0" width="2400" height="1600"/>
  </clipPath>
</defs>
<path clip-path="url(#clip510)" d="
M0 1600 L2400 1600 L2400 0 L0 0  Z
  " fill="#ffffff" fill-rule="evenodd" fill-opacity="1"/>
<defs>
  <clipPath id="clip511">
    <rect x="480" y="0" width="1681" height="1600"/>
  </clipPath>
</defs>
<path clip-path="url(#clip510)" d="
M170.857 1486.45 L2352.76 1486.45 L2352.76 47.2441 L170.857 47.2441  Z
  " fill="#ffffff" fill-rule="evenodd" fill-opacity="1"/>
<defs>
  <clipPath id="clip512">
    <rect x="170" y="47" width="2183" height="1440"/>
  </clipPath>
</defs>
<polyline clip-path="url(#clip512)" style="stroke:#000000; stroke-width:2; stroke-opacity:0.1; fill:none" points="
  301.211,1486.45 301.211,47.2441 
  "/>
<polyline clip-path="url(#clip512)" style="stroke:#000000; stroke-width:2; stroke-opacity:0.1; fill:none" points="
  858.852,1486.45 858.852,47.2441 
  "/>
<polyline clip-path="url(#clip512)" style="stroke:#000000; stroke-width:2; stroke-opacity:0.1; fill:none" points="
  1416.49,1486.45 1416.49,47.2441 
  "/>
<polyline clip-path="url(#clip512)" style="stroke:#000000; stroke-width:2; stroke-opacity:0.1; fill:none" points="
  1974.14,1486.45 1974.14,47.2441 
  "/>
<polyline clip-path="url(#clip510)" style="stroke:#000000; stroke-width:4; stroke-opacity:1; fill:none" points="
  170.857,1486.45 2352.76,1486.45 
  "/>
<polyline clip-path="url(#clip510)" style="stroke:#000000; stroke-width:4; stroke-opacity:1; fill:none" points="
  301.211,1486.45 301.211,1469.18 
  "/>
<polyline clip-path="url(#clip510)" style="stroke:#000000; stroke-width:4; stroke-opacity:1; fill:none" points="
  858.852,1486.45 858.852,1469.18 
  "/>
<polyline clip-path="url(#clip510)" style="stroke:#000000; stroke-width:4; stroke-opacity:1; fill:none" points="
  1416.49,1486.45 1416.49,1469.18 
  "/>
<polyline clip-path="url(#clip510)" style="stroke:#000000; stroke-width:4; stroke-opacity:1; fill:none" points="
  1974.14,1486.45 1974.14,1469.18 
  "/>
<path clip-path="url(#clip510)" d="M 0 0 M246.466 1530.29 L276.141 1530.29 L276.141 1534.23 L246.466 1534.23 L246.466 1530.29 Z" fill="#000000" fill-rule="evenodd" fill-opacity="1" /><path clip-path="url(#clip510)" d="M 0 0 M282.021 1543.18 L289.66 1543.18 L289.66 1516.82 L281.35 1518.49 L281.35 1514.23 L289.614 1512.56 L294.289 1512.56 L294.289 1543.18 L301.928 1543.18 L301.928 1547.12 L282.021 1547.12 L282.021 1543.18 Z" fill="#000000" fill-rule="evenodd" fill-opacity="1" /><path clip-path="url(#clip510)" d="M 0 0 M316.998 1515.64 Q313.387 1515.64 311.558 1519.2 Q309.752 1522.75 309.752 1529.87 Q309.752 1536.98 311.558 1540.55 Q313.387 1544.09 316.998 1544.09 Q320.632 1544.09 322.437 1540.55 Q324.266 1536.98 324.266 1529.87 Q324.266 1522.75 322.437 1519.2 Q320.632 1515.64 316.998 1515.64 M316.998 1511.93 Q322.808 1511.93 325.863 1516.54 Q328.942 1521.12 328.942 1529.87 Q328.942 1538.6 325.863 1543.21 Q322.808 1547.79 316.998 1547.79 Q311.187 1547.79 308.109 1543.21 Q305.053 1538.6 305.053 1529.87 Q305.053 1521.12 308.109 1516.54 Q311.187 1511.93 316.998 1511.93 Z" fill="#000000" fill-rule="evenodd" fill-opacity="1" /><path clip-path="url(#clip510)" d="M 0 0 M344.011 1515.64 Q340.4 1515.64 338.572 1519.2 Q336.766 1522.75 336.766 1529.87 Q336.766 1536.98 338.572 1540.55 Q340.4 1544.09 344.011 1544.09 Q347.646 1544.09 349.451 1540.55 Q351.28 1536.98 351.28 1529.87 Q351.28 1522.75 349.451 1519.2 Q347.646 1515.64 344.011 1515.64 M344.011 1511.93 Q349.822 1511.93 352.877 1516.54 Q355.956 1521.12 355.956 1529.87 Q355.956 1538.6 352.877 1543.21 Q349.822 1547.79 344.011 1547.79 Q338.201 1547.79 335.123 1543.21 Q332.067 1538.6 332.067 1529.87 Q332.067 1521.12 335.123 1516.54 Q338.201 1511.93 344.011 1511.93 Z" fill="#000000" fill-rule="evenodd" fill-opacity="1" /><path clip-path="url(#clip510)" d="M 0 0 M817.498 1530.29 L847.174 1530.29 L847.174 1534.23 L817.498 1534.23 L817.498 1530.29 Z" fill="#000000" fill-rule="evenodd" fill-opacity="1" /><path clip-path="url(#clip510)" d="M 0 0 M852.29 1512.56 L870.646 1512.56 L870.646 1516.5 L856.572 1516.5 L856.572 1524.97 Q857.591 1524.62 858.609 1524.46 Q859.628 1524.27 860.646 1524.27 Q866.433 1524.27 869.813 1527.44 Q873.192 1530.62 873.192 1536.03 Q873.192 1541.61 869.72 1544.71 Q866.248 1547.79 859.929 1547.79 Q857.753 1547.79 855.484 1547.42 Q853.239 1547.05 850.831 1546.31 L850.831 1541.61 Q852.915 1542.74 855.137 1543.3 Q857.359 1543.86 859.836 1543.86 Q863.841 1543.86 866.179 1541.75 Q868.516 1539.64 868.516 1536.03 Q868.516 1532.42 866.179 1530.31 Q863.841 1528.21 859.836 1528.21 Q857.961 1528.21 856.086 1528.62 Q854.234 1529.04 852.29 1529.92 L852.29 1512.56 Z" fill="#000000" fill-rule="evenodd" fill-opacity="1" /><path clip-path="url(#clip510)" d="M 0 0 M888.262 1515.64 Q884.651 1515.64 882.822 1519.2 Q881.016 1522.75 881.016 1529.87 Q881.016 1536.98 882.822 1540.55 Q884.651 1544.09 888.262 1544.09 Q891.896 1544.09 893.702 1540.55 Q895.53 1536.98 895.53 1529.87 Q895.53 1522.75 893.702 1519.2 Q891.896 1515.64 888.262 1515.64 M888.262 1511.93 Q894.072 1511.93 897.127 1516.54 Q900.206 1521.12 900.206 1529.87 Q900.206 1538.6 897.127 1543.21 Q894.072 1547.79 888.262 1547.79 Q882.452 1547.79 879.373 1543.21 Q876.317 1538.6 876.317 1529.87 Q876.317 1521.12 879.373 1516.54 Q882.452 1511.93 888.262 1511.93 Z" fill="#000000" fill-rule="evenodd" fill-opacity="1" /><path clip-path="url(#clip510)" d="M 0 0 M1416.49 1515.64 Q1412.88 1515.64 1411.05 1519.2 Q1409.25 1522.75 1409.25 1529.87 Q1409.25 1536.98 1411.05 1540.55 Q1412.88 1544.09 1416.49 1544.09 Q1420.13 1544.09 1421.93 1540.55 Q1423.76 1536.98 1423.76 1529.87 Q1423.76 1522.75 1421.93 1519.2 Q1420.13 1515.64 1416.49 1515.64 M1416.49 1511.93 Q1422.3 1511.93 1425.36 1516.54 Q1428.44 1521.12 1428.44 1529.87 Q1428.44 1538.6 1425.36 1543.21 Q1422.3 1547.79 1416.49 1547.79 Q1410.68 1547.79 1407.6 1543.21 Q1404.55 1538.6 1404.55 1529.87 Q1404.55 1521.12 1407.6 1516.54 Q1410.68 1511.93 1416.49 1511.93 Z" fill="#000000" fill-rule="evenodd" fill-opacity="1" /><path clip-path="url(#clip510)" d="M 0 0 M1950.91 1512.56 L1969.26 1512.56 L1969.26 1516.5 L1955.19 1516.5 L1955.19 1524.97 Q1956.21 1524.62 1957.23 1524.46 Q1958.24 1524.27 1959.26 1524.27 Q1965.05 1524.27 1968.43 1527.44 Q1971.81 1530.62 1971.81 1536.03 Q1971.81 1541.61 1968.34 1544.71 Q1964.86 1547.79 1958.54 1547.79 Q1956.37 1547.79 1954.1 1547.42 Q1951.86 1547.05 1949.45 1546.31 L1949.45 1541.61 Q1951.53 1542.74 1953.75 1543.3 Q1955.98 1543.86 1958.45 1543.86 Q1962.46 1543.86 1964.79 1541.75 Q1967.13 1539.64 1967.13 1536.03 Q1967.13 1532.42 1964.79 1530.31 Q1962.46 1528.21 1958.45 1528.21 Q1956.58 1528.21 1954.7 1528.62 Q1952.85 1529.04 1950.91 1529.92 L1950.91 1512.56 Z" fill="#000000" fill-rule="evenodd" fill-opacity="1" /><path clip-path="url(#clip510)" d="M 0 0 M1986.88 1515.64 Q1983.27 1515.64 1981.44 1519.2 Q1979.63 1522.75 1979.63 1529.87 Q1979.63 1536.98 1981.44 1540.55 Q1983.27 1544.09 1986.88 1544.09 Q1990.51 1544.09 1992.32 1540.55 Q1994.15 1536.98 1994.15 1529.87 Q1994.15 1522.75 1992.32 1519.2 Q1990.51 1515.64 1986.88 1515.64 M1986.88 1511.93 Q1992.69 1511.93 1995.74 1516.54 Q1998.82 1521.12 1998.82 1529.87 Q1998.82 1538.6 1995.74 1543.21 Q1992.69 1547.79 1986.88 1547.79 Q1981.07 1547.79 1977.99 1543.21 Q1974.93 1538.6 1974.93 1529.87 Q1974.93 1521.12 1977.99 1516.54 Q1981.07 1511.93 1986.88 1511.93 Z" fill="#000000" fill-rule="evenodd" fill-opacity="1" /><polyline clip-path="url(#clip512)" style="stroke:#000000; stroke-width:2; stroke-opacity:0.1; fill:none" points="
  170.857,1301.3 2352.76,1301.3 
  "/>
<polyline clip-path="url(#clip512)" style="stroke:#000000; stroke-width:2; stroke-opacity:0.1; fill:none" points="
  170.857,1046.79 2352.76,1046.79 
  "/>
<polyline clip-path="url(#clip512)" style="stroke:#000000; stroke-width:2; stroke-opacity:0.1; fill:none" points="
  170.857,792.281 2352.76,792.281 
  "/>
<polyline clip-path="url(#clip512)" style="stroke:#000000; stroke-width:2; stroke-opacity:0.1; fill:none" points="
  170.857,537.77 2352.76,537.77 
  "/>
<polyline clip-path="url(#clip512)" style="stroke:#000000; stroke-width:2; stroke-opacity:0.1; fill:none" points="
  170.857,283.259 2352.76,283.259 
  "/>
<polyline clip-path="url(#clip510)" style="stroke:#000000; stroke-width:4; stroke-opacity:1; fill:none" points="
  170.857,1486.45 170.857,47.2441 
  "/>
<polyline clip-path="url(#clip510)" style="stroke:#000000; stroke-width:4; stroke-opacity:1; fill:none" points="
  170.857,1301.3 197.04,1301.3 
  "/>
<polyline clip-path="url(#clip510)" style="stroke:#000000; stroke-width:4; stroke-opacity:1; fill:none" points="
  170.857,1046.79 197.04,1046.79 
  "/>
<polyline clip-path="url(#clip510)" style="stroke:#000000; stroke-width:4; stroke-opacity:1; fill:none" points="
  170.857,792.281 197.04,792.281 
  "/>
<polyline clip-path="url(#clip510)" style="stroke:#000000; stroke-width:4; stroke-opacity:1; fill:none" points="
  170.857,537.77 197.04,537.77 
  "/>
<polyline clip-path="url(#clip510)" style="stroke:#000000; stroke-width:4; stroke-opacity:1; fill:none" points="
  170.857,283.259 197.04,283.259 
  "/>
<path clip-path="url(#clip510)" d="M 0 0 M51.3393 1301.75 L81.0151 1301.75 L81.0151 1305.69 L51.3393 1305.69 L51.3393 1301.75 Z" fill="#000000" fill-rule="evenodd" fill-opacity="1" /><path clip-path="url(#clip510)" d="M 0 0 M86.2234 1317.86 L86.2234 1313.6 Q87.9827 1314.44 89.7882 1314.88 Q91.5938 1315.32 93.3299 1315.32 Q97.9595 1315.32 100.39 1312.22 Q102.844 1309.09 103.191 1302.75 Q101.848 1304.74 99.7882 1305.8 Q97.728 1306.87 95.228 1306.87 Q90.0428 1306.87 87.0105 1303.74 Q84.0012 1300.6 84.0012 1295.16 Q84.0012 1289.83 87.1493 1286.61 Q90.2975 1283.4 95.5289 1283.4 Q101.524 1283.4 104.672 1288 Q107.844 1292.59 107.844 1301.34 Q107.844 1309.51 103.955 1314.39 Q100.089 1319.25 93.5382 1319.25 Q91.7789 1319.25 89.9734 1318.91 Q88.1679 1318.56 86.2234 1317.86 M95.5289 1303.21 Q98.6771 1303.21 100.506 1301.06 Q102.358 1298.91 102.358 1295.16 Q102.358 1291.43 100.506 1289.28 Q98.6771 1287.1 95.5289 1287.1 Q92.3808 1287.1 90.529 1289.28 Q88.7003 1291.43 88.7003 1295.16 Q88.7003 1298.91 90.529 1301.06 Q92.3808 1303.21 95.5289 1303.21 Z" fill="#000000" fill-rule="evenodd" fill-opacity="1" /><path clip-path="url(#clip510)" d="M 0 0 M122.913 1287.1 Q119.302 1287.1 117.473 1290.67 Q115.668 1294.21 115.668 1301.34 Q115.668 1308.44 117.473 1312.01 Q119.302 1315.55 122.913 1315.55 Q126.547 1315.55 128.353 1312.01 Q130.182 1308.44 130.182 1301.34 Q130.182 1294.21 128.353 1290.67 Q126.547 1287.1 122.913 1287.1 M122.913 1283.4 Q128.723 1283.4 131.779 1288 Q134.857 1292.59 134.857 1301.34 Q134.857 1310.06 131.779 1314.67 Q128.723 1319.25 122.913 1319.25 Q117.103 1319.25 114.024 1314.67 Q110.969 1310.06 110.969 1301.34 Q110.969 1292.59 114.024 1288 Q117.103 1283.4 122.913 1283.4 Z" fill="#000000" fill-rule="evenodd" fill-opacity="1" /><path clip-path="url(#clip510)" d="M 0 0 M50.9921 1047.24 L80.6679 1047.24 L80.6679 1051.18 L50.9921 1051.18 L50.9921 1047.24 Z" fill="#000000" fill-rule="evenodd" fill-opacity="1" /><path clip-path="url(#clip510)" d="M 0 0 M96.316 1044.93 Q93.1678 1044.93 91.316 1047.08 Q89.4873 1049.23 89.4873 1052.98 Q89.4873 1056.71 91.316 1058.89 Q93.1678 1061.04 96.316 1061.04 Q99.4641 1061.04 101.293 1058.89 Q103.145 1056.71 103.145 1052.98 Q103.145 1049.23 101.293 1047.08 Q99.4641 1044.93 96.316 1044.93 M105.598 1030.28 L105.598 1034.53 Q103.839 1033.7 102.034 1033.26 Q100.251 1032.82 98.4919 1032.82 Q93.8623 1032.82 91.4086 1035.95 Q88.978 1039.07 88.6308 1045.39 Q89.9965 1043.38 92.0567 1042.31 Q94.1169 1041.22 96.5937 1041.22 Q101.802 1041.22 104.811 1044.4 Q107.844 1047.54 107.844 1052.98 Q107.844 1058.31 104.696 1061.52 Q101.547 1064.74 96.316 1064.74 Q90.3206 1064.74 87.1493 1060.16 Q83.9781 1055.55 83.9781 1046.83 Q83.9781 1038.63 87.8669 1033.77 Q91.7558 1028.89 98.3067 1028.89 Q100.066 1028.89 101.848 1029.23 Q103.654 1029.58 105.598 1030.28 Z" fill="#000000" fill-rule="evenodd" fill-opacity="1" /><path clip-path="url(#clip510)" d="M 0 0 M122.913 1032.59 Q119.302 1032.59 117.473 1036.15 Q115.668 1039.7 115.668 1046.83 Q115.668 1053.93 117.473 1057.5 Q119.302 1061.04 122.913 1061.04 Q126.547 1061.04 128.353 1057.5 Q130.182 1053.93 130.182 1046.83 Q130.182 1039.7 128.353 1036.15 Q126.547 1032.59 122.913 1032.59 M122.913 1028.89 Q128.723 1028.89 131.779 1033.49 Q134.857 1038.08 134.857 1046.83 Q134.857 1055.55 131.779 1060.16 Q128.723 1064.74 122.913 1064.74 Q117.103 1064.74 114.024 1060.16 Q110.969 1055.55 110.969 1046.83 Q110.969 1038.08 114.024 1033.49 Q117.103 1028.89 122.913 1028.89 Z" fill="#000000" fill-rule="evenodd" fill-opacity="1" /><path clip-path="url(#clip510)" d="M 0 0 M51.8023 792.732 L81.4781 792.732 L81.4781 796.667 L51.8023 796.667 L51.8023 792.732 Z" fill="#000000" fill-rule="evenodd" fill-opacity="1" /><path clip-path="url(#clip510)" d="M 0 0 M100.714 790.926 Q104.071 791.644 105.946 793.913 Q107.844 796.181 107.844 799.514 Q107.844 804.63 104.325 807.431 Q100.807 810.232 94.3252 810.232 Q92.1493 810.232 89.8345 809.792 Q87.5429 809.375 85.0892 808.519 L85.0892 804.005 Q87.0336 805.139 89.3484 805.718 Q91.6632 806.297 94.1863 806.297 Q98.5845 806.297 100.876 804.561 Q103.191 802.825 103.191 799.514 Q103.191 796.459 101.038 794.746 Q98.9085 793.01 95.0891 793.01 L91.0614 793.01 L91.0614 789.167 L95.2743 789.167 Q98.7234 789.167 100.552 787.801 Q102.381 786.413 102.381 783.82 Q102.381 781.158 100.483 779.746 Q98.6076 778.311 95.0891 778.311 Q93.1678 778.311 90.9688 778.727 Q88.7697 779.144 86.1308 780.024 L86.1308 775.857 Q88.7928 775.116 91.1077 774.746 Q93.4456 774.376 95.5058 774.376 Q100.83 774.376 103.932 776.806 Q107.033 779.214 107.033 783.334 Q107.033 786.204 105.39 788.195 Q103.746 790.163 100.714 790.926 Z" fill="#000000" fill-rule="evenodd" fill-opacity="1" /><path clip-path="url(#clip510)" d="M 0 0 M122.913 778.079 Q119.302 778.079 117.473 781.644 Q115.668 785.186 115.668 792.315 Q115.668 799.422 117.473 802.987 Q119.302 806.528 122.913 806.528 Q126.547 806.528 128.353 802.987 Q130.182 799.422 130.182 792.315 Q130.182 785.186 128.353 781.644 Q126.547 778.079 122.913 778.079 M122.913 774.376 Q128.723 774.376 131.779 778.982 Q134.857 783.565 134.857 792.315 Q134.857 801.042 131.779 805.649 Q128.723 810.232 122.913 810.232 Q117.103 810.232 114.024 805.649 Q110.969 801.042 110.969 792.315 Q110.969 783.565 114.024 778.982 Q117.103 774.376 122.913 774.376 Z" fill="#000000" fill-rule="evenodd" fill-opacity="1" /><path clip-path="url(#clip510)" d="M 0 0 M122.913 523.569 Q119.302 523.569 117.473 527.134 Q115.668 530.675 115.668 537.805 Q115.668 544.911 117.473 548.476 Q119.302 552.018 122.913 552.018 Q126.547 552.018 128.353 548.476 Q130.182 544.911 130.182 537.805 Q130.182 530.675 128.353 527.134 Q126.547 523.569 122.913 523.569 M122.913 519.865 Q128.723 519.865 131.779 524.471 Q134.857 529.055 134.857 537.805 Q134.857 546.532 131.779 551.138 Q128.723 555.721 122.913 555.721 Q117.103 555.721 114.024 551.138 Q110.969 546.532 110.969 537.805 Q110.969 529.055 114.024 524.471 Q117.103 519.865 122.913 519.865 Z" fill="#000000" fill-rule="evenodd" fill-opacity="1" /><path clip-path="url(#clip510)" d="M 0 0 M100.714 281.905 Q104.071 282.623 105.946 284.891 Q107.844 287.16 107.844 290.493 Q107.844 295.609 104.325 298.41 Q100.807 301.211 94.3252 301.211 Q92.1493 301.211 89.8345 300.771 Q87.5429 300.354 85.0892 299.498 L85.0892 294.984 Q87.0336 296.118 89.3484 296.697 Q91.6632 297.276 94.1863 297.276 Q98.5845 297.276 100.876 295.539 Q103.191 293.803 103.191 290.493 Q103.191 287.438 101.038 285.725 Q98.9085 283.989 95.0891 283.989 L91.0614 283.989 L91.0614 280.146 L95.2743 280.146 Q98.7234 280.146 100.552 278.78 Q102.381 277.391 102.381 274.799 Q102.381 272.137 100.483 270.725 Q98.6076 269.29 95.0891 269.29 Q93.1678 269.29 90.9688 269.706 Q88.7697 270.123 86.1308 271.003 L86.1308 266.836 Q88.7928 266.095 91.1077 265.725 Q93.4456 265.354 95.5058 265.354 Q100.83 265.354 103.932 267.785 Q107.033 270.192 107.033 274.313 Q107.033 277.183 105.39 279.174 Q103.746 281.141 100.714 281.905 Z" fill="#000000" fill-rule="evenodd" fill-opacity="1" /><path clip-path="url(#clip510)" d="M 0 0 M122.913 269.058 Q119.302 269.058 117.473 272.623 Q115.668 276.165 115.668 283.294 Q115.668 290.401 117.473 293.965 Q119.302 297.507 122.913 297.507 Q126.547 297.507 128.353 293.965 Q130.182 290.401 130.182 283.294 Q130.182 276.165 128.353 272.623 Q126.547 269.058 122.913 269.058 M122.913 265.354 Q128.723 265.354 131.779 269.961 Q134.857 274.544 134.857 283.294 Q134.857 292.021 131.779 296.627 Q128.723 301.211 122.913 301.211 Q117.103 301.211 114.024 296.627 Q110.969 292.021 110.969 283.294 Q110.969 274.544 114.024 269.961 Q117.103 265.354 122.913 265.354 Z" fill="#000000" fill-rule="evenodd" fill-opacity="1" /><path clip-path="url(#clip512)" d="
M359.375 666.783 L398.05 666.783 L398.05 649.002 L359.375 649.002 L359.375 666.783  Z
  " fill="#009af9" fill-rule="evenodd" fill-opacity="0.3"/>
<polyline clip-path="url(#clip512)" style="stroke:#000000; stroke-width:4; stroke-opacity:0.3; fill:none" points="
  359.375,666.783 398.05,666.783 398.05,649.002 359.375,649.002 359.375,666.783 
  "/>
<path clip-path="url(#clip512)" d="
M244.682 652.654 L282.849 652.654 L282.849 621.909 L244.682 621.909 L244.682 652.654  Z
  " fill="#009af9" fill-rule="evenodd" fill-opacity="0.3"/>
<polyline clip-path="url(#clip512)" style="stroke:#000000; stroke-width:4; stroke-opacity:0.3; fill:none" points="
  244.682,652.654 282.849,652.654 282.849,621.909 244.682,621.909 244.682,652.654 
  "/>
<path clip-path="url(#clip512)" d="
M232.609 618.121 L255.974 618.121 L255.974 598.716 L232.609 598.716 L232.609 618.121  Z
  " fill="#009af9" fill-rule="evenodd" fill-opacity="0.3"/>
<polyline clip-path="url(#clip512)" style="stroke:#000000; stroke-width:4; stroke-opacity:0.3; fill:none" points="
  232.609,618.121 255.974,618.121 255.974,598.716 232.609,598.716 232.609,618.121 
  "/>
<path clip-path="url(#clip512)" d="
M466.403 553.692 L505.688 553.692 L505.688 536.461 L466.403 536.461 L466.403 553.692  Z
  " fill="#009af9" fill-rule="evenodd" fill-opacity="0.3"/>
<polyline clip-path="url(#clip512)" style="stroke:#000000; stroke-width:4; stroke-opacity:0.3; fill:none" points="
  466.403,553.692 505.688,553.692 505.688,536.461 466.403,536.461 466.403,553.692 
  "/>
<path clip-path="url(#clip512)" d="
M261.134 593.428 L294.533 593.428 L294.533 559.719 L261.134 559.719 L261.134 593.428  Z
  " fill="#009af9" fill-rule="evenodd" fill-opacity="0.3"/>
<polyline clip-path="url(#clip512)" style="stroke:#000000; stroke-width:4; stroke-opacity:0.3; fill:none" points="
  261.134,593.428 294.533,593.428 294.533,559.719 261.134,559.719 261.134,593.428 
  "/>
<path clip-path="url(#clip512)" d="
M258.171 519.268 L281.453 519.268 L281.453 499.707 L258.171 499.707 L258.171 519.268  Z
  " fill="#009af9" fill-rule="evenodd" fill-opacity="0.3"/>
<polyline clip-path="url(#clip512)" style="stroke:#000000; stroke-width:4; stroke-opacity:0.3; fill:none" points="
  258.171,519.268 281.453,519.268 281.453,499.707 258.171,499.707 258.171,519.268 
  "/>
<path clip-path="url(#clip512)" d="
M359.375 666.783 L398.05 666.783 L398.05 649.002 L359.375 649.002 L359.375 666.783  Z
  " fill="#e26f46" fill-rule="evenodd" fill-opacity="0.3"/>
<polyline clip-path="url(#clip512)" style="stroke:#000000; stroke-width:4; stroke-opacity:0.3; fill:none" points="
  359.375,666.783 398.05,666.783 398.05,649.002 359.375,649.002 359.375,666.783 
  "/>
<path clip-path="url(#clip512)" d="
M244.682 652.654 L282.849 652.654 L282.849 621.909 L244.682 621.909 L244.682 652.654  Z
  " fill="#e26f46" fill-rule="evenodd" fill-opacity="0.3"/>
<polyline clip-path="url(#clip512)" style="stroke:#000000; stroke-width:4; stroke-opacity:0.3; fill:none" points="
  244.682,652.654 282.849,652.654 282.849,621.909 244.682,621.909 244.682,652.654 
  "/>
<path clip-path="url(#clip512)" d="
M232.609 618.121 L255.974 618.121 L255.974 598.716 L232.609 598.716 L232.609 618.121  Z
  " fill="#e26f46" fill-rule="evenodd" fill-opacity="0.3"/>
<polyline clip-path="url(#clip512)" style="stroke:#000000; stroke-width:4; stroke-opacity:0.3; fill:none" points="
  232.609,618.121 255.974,618.121 255.974,598.716 232.609,598.716 232.609,618.121 
  "/>
<path clip-path="url(#clip512)" d="
M466.403 553.692 L505.688 553.692 L505.688 536.461 L466.403 536.461 L466.403 553.692  Z
  " fill="#e26f46" fill-rule="evenodd" fill-opacity="0.3"/>
<polyline clip-path="url(#clip512)" style="stroke:#000000; stroke-width:4; stroke-opacity:0.3; fill:none" points="
  466.403,553.692 505.688,553.692 505.688,536.461 466.403,536.461 466.403,553.692 
  "/>
<path clip-path="url(#clip512)" d="
M261.134 593.428 L294.533 593.428 L294.533 559.719 L261.134 559.719 L261.134 593.428  Z
  " fill="#e26f46" fill-rule="evenodd" fill-opacity="0.3"/>
<polyline clip-path="url(#clip512)" style="stroke:#000000; stroke-width:4; stroke-opacity:0.3; fill:none" points="
  261.134,593.428 294.533,593.428 294.533,559.719 261.134,559.719 261.134,593.428 
  "/>
<path clip-path="url(#clip512)" d="
M258.171 519.268 L281.453 519.268 L281.453 499.707 L258.171 499.707 L258.171 519.268  Z
  " fill="#e26f46" fill-rule="evenodd" fill-opacity="0.3"/>
<polyline clip-path="url(#clip512)" style="stroke:#000000; stroke-width:4; stroke-opacity:0.3; fill:none" points="
  258.171,519.268 281.453,519.268 281.453,499.707 258.171,499.707 258.171,519.268 
  "/>
<path clip-path="url(#clip512)" d="
M1578.59 1166.83 L1613.35 1166.83 L1613.35 1140 L1578.59 1140 L1578.59 1166.83  Z
  " fill="#3da44d" fill-rule="evenodd" fill-opacity="0.3"/>
<polyline clip-path="url(#clip512)" style="stroke:#000000; stroke-width:4; stroke-opacity:0.3; fill:none" points="
  1578.59,1166.83 1613.35,1166.83 1613.35,1140 1578.59,1140 1578.59,1166.83 
  "/>
<path clip-path="url(#clip512)" d="
M1630.2 1276.29 L1671.79 1276.29 L1671.79 1243.52 L1630.2 1243.52 L1630.2 1276.29  Z
  " fill="#3da44d" fill-rule="evenodd" fill-opacity="0.3"/>
<polyline clip-path="url(#clip512)" style="stroke:#000000; stroke-width:4; stroke-opacity:0.3; fill:none" points="
  1630.2,1276.29 1671.79,1276.29 1671.79,1243.52 1630.2,1243.52 1630.2,1276.29 
  "/>
<path clip-path="url(#clip512)" d="
M1578.43 1365.71 L1608.65 1365.71 L1608.65 1345.48 L1578.43 1345.48 L1578.43 1365.71  Z
  " fill="#3da44d" fill-rule="evenodd" fill-opacity="0.3"/>
<polyline clip-path="url(#clip512)" style="stroke:#000000; stroke-width:4; stroke-opacity:0.3; fill:none" points="
  1578.43,1365.71 1608.65,1365.71 1608.65,1345.48 1578.43,1345.48 1578.43,1365.71 
  "/>
<path clip-path="url(#clip512)" d="
M1459.13 1319.91 L1501.91 1319.91 L1501.91 1294.52 L1459.13 1294.52 L1459.13 1319.91  Z
  " fill="#3da44d" fill-rule="evenodd" fill-opacity="0.3"/>
<polyline clip-path="url(#clip512)" style="stroke:#000000; stroke-width:4; stroke-opacity:0.3; fill:none" points="
  1459.13,1319.91 1501.91,1319.91 1501.91,1294.52 1459.13,1294.52 1459.13,1319.91 
  "/>
<path clip-path="url(#clip512)" d="
M1684.82 1330.8 L1714.77 1330.8 L1714.77 1310.92 L1684.82 1310.92 L1684.82 1330.8  Z
  " fill="#3da44d" fill-rule="evenodd" fill-opacity="0.3"/>
<polyline clip-path="url(#clip512)" style="stroke:#000000; stroke-width:4; stroke-opacity:0.3; fill:none" points="
  1684.82,1330.8 1714.77,1330.8 1714.77,1310.92 1684.82,1310.92 1684.82,1330.8 
  "/>
<path clip-path="url(#clip512)" d="
M1612.27 1445.72 L1635.78 1445.72 L1635.78 1413.79 L1612.27 1413.79 L1612.27 1445.72  Z
  " fill="#3da44d" fill-rule="evenodd" fill-opacity="0.3"/>
<polyline clip-path="url(#clip512)" style="stroke:#000000; stroke-width:4; stroke-opacity:0.3; fill:none" points="
  1612.27,1445.72 1635.78,1445.72 1635.78,1413.79 1612.27,1413.79 1612.27,1445.72 
  "/>
<path clip-path="url(#clip512)" d="
M462.853 246.347 L490.416 246.347 L490.416 219.05 L462.853 219.05 L462.853 246.347  Z
  " fill="#c271d2" fill-rule="evenodd" fill-opacity="0.3"/>
<polyline clip-path="url(#clip512)" style="stroke:#000000; stroke-width:4; stroke-opacity:0.3; fill:none" points="
  462.853,246.347 490.416,246.347 490.416,219.05 462.853,219.05 462.853,246.347 
  "/>
<path clip-path="url(#clip512)" d="
M412.6 256.126 L454.26 256.126 L454.26 224.054 L412.6 224.054 L412.6 256.126  Z
  " fill="#c271d2" fill-rule="evenodd" fill-opacity="0.3"/>
<polyline clip-path="url(#clip512)" style="stroke:#000000; stroke-width:4; stroke-opacity:0.3; fill:none" points="
  412.6,256.126 454.26,256.126 454.26,224.054 412.6,224.054 412.6,256.126 
  "/>
<path clip-path="url(#clip512)" d="
M363.447 348.839 L388.853 348.839 L388.853 320.929 L363.447 320.929 L363.447 348.839  Z
  " fill="#c271d2" fill-rule="evenodd" fill-opacity="0.3"/>
<polyline clip-path="url(#clip512)" style="stroke:#000000; stroke-width:4; stroke-opacity:0.3; fill:none" points="
  363.447,348.839 388.853,348.839 388.853,320.929 363.447,320.929 363.447,348.839 
  "/>
<path clip-path="url(#clip512)" d="
M357.469 309.352 L387.946 309.352 L387.946 280.601 L357.469 280.601 L357.469 309.352  Z
  " fill="#c271d2" fill-rule="evenodd" fill-opacity="0.3"/>
<polyline clip-path="url(#clip512)" style="stroke:#000000; stroke-width:4; stroke-opacity:0.3; fill:none" points="
  357.469,309.352 387.946,309.352 387.946,280.601 357.469,280.601 357.469,309.352 
  "/>
<path clip-path="url(#clip512)" d="
M503.122 105.419 L530.666 105.419 L530.666 87.9763 L503.122 87.9763 L503.122 105.419  Z
  " fill="#c271d2" fill-rule="evenodd" fill-opacity="0.3"/>
<polyline clip-path="url(#clip512)" style="stroke:#000000; stroke-width:4; stroke-opacity:0.3; fill:none" points="
  503.122,105.419 530.666,105.419 530.666,87.9763 503.122,87.9763 503.122,105.419 
  "/>
<path clip-path="url(#clip512)" d="
M409.745 131.193 L441.407 131.193 L441.407 101.406 L409.745 101.406 L409.745 131.193  Z
  " fill="#c271d2" fill-rule="evenodd" fill-opacity="0.3"/>
<polyline clip-path="url(#clip512)" style="stroke:#000000; stroke-width:4; stroke-opacity:0.3; fill:none" points="
  409.745,131.193 441.407,131.193 441.407,101.406 409.745,101.406 409.745,131.193 
  "/>
<path clip-path="url(#clip512)" d="
M2000.4 1298.97 L2026.82 1298.97 L2026.82 1271.55 L2000.4 1271.55 L2000.4 1298.97  Z
  " fill="#ac8d18" fill-rule="evenodd" fill-opacity="0.3"/>
<polyline clip-path="url(#clip512)" style="stroke:#000000; stroke-width:4; stroke-opacity:0.3; fill:none" points="
  2000.4,1298.97 2026.82,1298.97 2026.82,1271.55 2000.4,1271.55 2000.4,1298.97 
  "/>
<path clip-path="url(#clip512)" d="
M2254.17 1241.54 L2291 1241.54 L2291 1214.49 L2254.17 1214.49 L2254.17 1241.54  Z
  " fill="#ac8d18" fill-rule="evenodd" fill-opacity="0.3"/>
<polyline clip-path="url(#clip512)" style="stroke:#000000; stroke-width:4; stroke-opacity:0.3; fill:none" points="
  2254.17,1241.54 2291,1241.54 2291,1214.49 2254.17,1214.49 2254.17,1241.54 
  "/>
<path clip-path="url(#clip512)" d="
M2007.93 1200.9 L2034.7 1200.9 L2034.7 1171.03 L2007.93 1171.03 L2007.93 1200.9  Z
  " fill="#ac8d18" fill-rule="evenodd" fill-opacity="0.3"/>
<polyline clip-path="url(#clip512)" style="stroke:#000000; stroke-width:4; stroke-opacity:0.3; fill:none" points="
  2007.93,1200.9 2034.7,1200.9 2034.7,1171.03 2007.93,1171.03 2007.93,1200.9 
  "/>
<path clip-path="url(#clip512)" d="
M2110.42 1244.45 L2145.47 1244.45 L2145.47 1222.98 L2110.42 1222.98 L2110.42 1244.45  Z
  " fill="#ac8d18" fill-rule="evenodd" fill-opacity="0.3"/>
<polyline clip-path="url(#clip512)" style="stroke:#000000; stroke-width:4; stroke-opacity:0.3; fill:none" points="
  2110.42,1244.45 2145.47,1244.45 2145.47,1222.98 2110.42,1222.98 2110.42,1244.45 
  "/>
<path clip-path="url(#clip512)" d="
M2005.03 1087.8 L2042.58 1087.8 L2042.58 1060.17 L2005.03 1060.17 L2005.03 1087.8  Z
  " fill="#ac8d18" fill-rule="evenodd" fill-opacity="0.3"/>
<polyline clip-path="url(#clip512)" style="stroke:#000000; stroke-width:4; stroke-opacity:0.3; fill:none" points="
  2005.03,1087.8 2042.58,1087.8 2042.58,1060.17 2005.03,1060.17 2005.03,1087.8 
  "/>
<path clip-path="url(#clip512)" d="
M2036.49 1321.99 L2068.81 1321.99 L2068.81 1297.39 L2036.49 1297.39 L2036.49 1321.99  Z
  " fill="#ac8d18" fill-rule="evenodd" fill-opacity="0.3"/>
<polyline clip-path="url(#clip512)" style="stroke:#000000; stroke-width:4; stroke-opacity:0.3; fill:none" points="
  2036.49,1321.99 2068.81,1321.99 2068.81,1297.39 2036.49,1297.39 2036.49,1321.99 
  "/>
<path clip-path="url(#clip510)" d="
M1984.86 458.098 L2280.03 458.098 L2280.03 95.2176 L1984.86 95.2176  Z
  " fill="#ffffff" fill-rule="evenodd" fill-opacity="1"/>
<polyline clip-path="url(#clip510)" style="stroke:#000000; stroke-width:4; stroke-opacity:1; fill:none" points="
  1984.86,458.098 2280.03,458.098 2280.03,95.2176 1984.86,95.2176 1984.86,458.098 
  "/>
<path clip-path="url(#clip510)" d="
M2009.1 179.89 L2154.56 179.89 L2154.56 131.506 L2009.1 131.506 L2009.1 179.89  Z
  " fill="#009af9" fill-rule="evenodd" fill-opacity="0.3"/>
<polyline clip-path="url(#clip510)" style="stroke:#000000; stroke-width:4; stroke-opacity:1; fill:none" points="
  2009.1,179.89 2154.56,179.89 2154.56,131.506 2009.1,131.506 2009.1,179.89 
  "/>
<path clip-path="url(#clip510)" d="M 0 0 M2192.65 175.385 Q2190.85 180.015 2189.13 181.427 Q2187.42 182.839 2184.55 182.839 L2181.15 182.839 L2181.15 179.274 L2183.65 179.274 Q2185.41 179.274 2186.38 178.44 Q2187.35 177.607 2188.53 174.505 L2189.29 172.561 L2178.81 147.052 L2183.32 147.052 L2191.42 167.329 L2199.53 147.052 L2204.04 147.052 L2192.65 175.385 Z" fill="#000000" fill-rule="evenodd" fill-opacity="1" /><path clip-path="url(#clip510)" d="M 0 0 M2209.92 169.042 L2217.56 169.042 L2217.56 142.677 L2209.25 144.343 L2209.25 140.084 L2217.51 138.418 L2222.19 138.418 L2222.19 169.042 L2229.83 169.042 L2229.83 172.978 L2209.92 172.978 L2209.92 169.042 Z" fill="#000000" fill-rule="evenodd" fill-opacity="1" /><path clip-path="url(#clip510)" d="
M2009.1 240.37 L2154.56 240.37 L2154.56 191.986 L2009.1 191.986 L2009.1 240.37  Z
  " fill="#e26f46" fill-rule="evenodd" fill-opacity="0.3"/>
<polyline clip-path="url(#clip510)" style="stroke:#000000; stroke-width:4; stroke-opacity:1; fill:none" points="
  2009.1,240.37 2154.56,240.37 2154.56,191.986 2009.1,191.986 2009.1,240.37 
  "/>
<path clip-path="url(#clip510)" d="M 0 0 M2192.65 235.865 Q2190.85 240.495 2189.13 241.907 Q2187.42 243.319 2184.55 243.319 L2181.15 243.319 L2181.15 239.754 L2183.65 239.754 Q2185.41 239.754 2186.38 238.92 Q2187.35 238.087 2188.53 234.985 L2189.29 233.041 L2178.81 207.532 L2183.32 207.532 L2191.42 227.809 L2199.53 207.532 L2204.04 207.532 L2192.65 235.865 Z" fill="#000000" fill-rule="evenodd" fill-opacity="1" /><path clip-path="url(#clip510)" d="M 0 0 M2213.14 229.522 L2229.46 229.522 L2229.46 233.458 L2207.51 233.458 L2207.51 229.522 Q2210.17 226.768 2214.76 222.138 Q2219.36 217.485 2220.54 216.143 Q2222.79 213.62 2223.67 211.884 Q2224.57 210.124 2224.57 208.435 Q2224.57 205.68 2222.63 203.944 Q2220.71 202.208 2217.6 202.208 Q2215.41 202.208 2212.95 202.972 Q2210.52 203.735 2207.74 205.286 L2207.74 200.564 Q2210.57 199.43 2213.02 198.851 Q2215.47 198.273 2217.51 198.273 Q2222.88 198.273 2226.08 200.958 Q2229.27 203.643 2229.27 208.134 Q2229.27 210.263 2228.46 212.185 Q2227.67 214.083 2225.57 216.675 Q2224.99 217.347 2221.89 220.564 Q2218.78 223.759 2213.14 229.522 Z" fill="#000000" fill-rule="evenodd" fill-opacity="1" /><path clip-path="url(#clip510)" d="
M2009.1 300.85 L2154.56 300.85 L2154.56 252.466 L2009.1 252.466 L2009.1 300.85  Z
  " fill="#3da44d" fill-rule="evenodd" fill-opacity="0.3"/>
<polyline clip-path="url(#clip510)" style="stroke:#000000; stroke-width:4; stroke-opacity:1; fill:none" points="
  2009.1,300.85 2154.56,300.85 2154.56,252.466 2009.1,252.466 2009.1,300.85 
  "/>
<path clip-path="url(#clip510)" d="M 0 0 M2192.65 296.345 Q2190.85 300.975 2189.13 302.387 Q2187.42 303.799 2184.55 303.799 L2181.15 303.799 L2181.15 300.234 L2183.65 300.234 Q2185.41 300.234 2186.38 299.4 Q2187.35 298.567 2188.53 295.465 L2189.29 293.521 L2178.81 268.012 L2183.32 268.012 L2191.42 288.289 L2199.53 268.012 L2204.04 268.012 L2192.65 296.345 Z" fill="#000000" fill-rule="evenodd" fill-opacity="1" /><path clip-path="url(#clip510)" d="M 0 0 M2223.28 275.303 Q2226.63 276.021 2228.51 278.289 Q2230.41 280.558 2230.41 283.891 Q2230.41 289.007 2226.89 291.808 Q2223.37 294.609 2216.89 294.609 Q2214.71 294.609 2212.4 294.169 Q2210.1 293.752 2207.65 292.896 L2207.65 288.382 Q2209.59 289.516 2211.91 290.095 Q2214.22 290.674 2216.75 290.674 Q2221.15 290.674 2223.44 288.938 Q2225.75 287.201 2225.75 283.891 Q2225.75 280.836 2223.6 279.123 Q2221.47 277.387 2217.65 277.387 L2213.62 277.387 L2213.62 273.544 L2217.84 273.544 Q2221.28 273.544 2223.11 272.178 Q2224.94 270.79 2224.94 268.197 Q2224.94 265.535 2223.04 264.123 Q2221.17 262.688 2217.65 262.688 Q2215.73 262.688 2213.53 263.104 Q2211.33 263.521 2208.69 264.401 L2208.69 260.234 Q2211.35 259.493 2213.67 259.123 Q2216.01 258.753 2218.07 258.753 Q2223.39 258.753 2226.49 261.183 Q2229.59 263.59 2229.59 267.711 Q2229.59 270.581 2227.95 272.572 Q2226.31 274.54 2223.28 275.303 Z" fill="#000000" fill-rule="evenodd" fill-opacity="1" /><path clip-path="url(#clip510)" d="
M2009.1 361.33 L2154.56 361.33 L2154.56 312.946 L2009.1 312.946 L2009.1 361.33  Z
  " fill="#c271d2" fill-rule="evenodd" fill-opacity="0.3"/>
<polyline clip-path="url(#clip510)" style="stroke:#000000; stroke-width:4; stroke-opacity:1; fill:none" points="
  2009.1,361.33 2154.56,361.33 2154.56,312.946 2009.1,312.946 2009.1,361.33 
  "/>
<path clip-path="url(#clip510)" d="M 0 0 M2192.65 356.825 Q2190.85 361.455 2189.13 362.867 Q2187.42 364.279 2184.55 364.279 L2181.15 364.279 L2181.15 360.714 L2183.65 360.714 Q2185.41 360.714 2186.38 359.88 Q2187.35 359.047 2188.53 355.945 L2189.29 354.001 L2178.81 328.492 L2183.32 328.492 L2191.42 348.769 L2199.53 328.492 L2204.04 328.492 L2192.65 356.825 Z" fill="#000000" fill-rule="evenodd" fill-opacity="1" /><path clip-path="url(#clip510)" d="M 0 0 M2221.96 323.932 L2210.15 342.381 L2221.96 342.381 L2221.96 323.932 M2220.73 319.858 L2226.61 319.858 L2226.61 342.381 L2231.54 342.381 L2231.54 346.269 L2226.61 346.269 L2226.61 354.418 L2221.96 354.418 L2221.96 346.269 L2206.35 346.269 L2206.35 341.756 L2220.73 319.858 Z" fill="#000000" fill-rule="evenodd" fill-opacity="1" /><path clip-path="url(#clip510)" d="
M2009.1 421.81 L2154.56 421.81 L2154.56 373.426 L2009.1 373.426 L2009.1 421.81  Z
  " fill="#ac8d18" fill-rule="evenodd" fill-opacity="0.3"/>
<polyline clip-path="url(#clip510)" style="stroke:#000000; stroke-width:4; stroke-opacity:1; fill:none" points="
  2009.1,421.81 2154.56,421.81 2154.56,373.426 2009.1,373.426 2009.1,421.81 
  "/>
<path clip-path="url(#clip510)" d="M 0 0 M2192.65 417.305 Q2190.85 421.935 2189.13 423.347 Q2187.42 424.759 2184.55 424.759 L2181.15 424.759 L2181.15 421.194 L2183.65 421.194 Q2185.41 421.194 2186.38 420.36 Q2187.35 419.527 2188.53 416.425 L2189.29 414.481 L2178.81 388.972 L2183.32 388.972 L2191.42 409.249 L2199.53 388.972 L2204.04 388.972 L2192.65 417.305 Z" fill="#000000" fill-rule="evenodd" fill-opacity="1" /><path clip-path="url(#clip510)" d="M 0 0 M2209.16 380.338 L2227.51 380.338 L2227.51 384.273 L2213.44 384.273 L2213.44 392.745 Q2214.46 392.398 2215.47 392.236 Q2216.49 392.05 2217.51 392.05 Q2223.3 392.05 2226.68 395.222 Q2230.06 398.393 2230.06 403.81 Q2230.06 409.388 2226.59 412.49 Q2223.11 415.569 2216.79 415.569 Q2214.62 415.569 2212.35 415.198 Q2210.1 414.828 2207.7 414.087 L2207.7 409.388 Q2209.78 410.523 2212 411.078 Q2214.22 411.634 2216.7 411.634 Q2220.71 411.634 2223.04 409.527 Q2225.38 407.421 2225.38 403.81 Q2225.38 400.199 2223.04 398.092 Q2220.71 395.986 2216.7 395.986 Q2214.83 395.986 2212.95 396.402 Q2211.1 396.819 2209.16 397.699 L2209.16 380.338 Z" fill="#000000" fill-rule="evenodd" fill-opacity="1" /></svg>
