<?xml version="1.0" encoding="utf-8"?>
<svg xmlns="http://www.w3.org/2000/svg" xmlns:xlink="http://www.w3.org/1999/xlink" width="600" height="400" viewBox="0 0 2400 1600">
<defs>
  <clipPath id="clip230">
    <rect x="0" y="0" width="2400" height="1600"/>
  </clipPath>
</defs>
<path clip-path="url(#clip230)" d="
M0 1600 L2400 1600 L2400 0 L0 0  Z
  " fill="#ffffff" fill-rule="evenodd" fill-opacity="1"/>
<defs>
  <clipPath id="clip231">
    <rect x="480" y="0" width="1681" height="1600"/>
  </clipPath>
</defs>
<path clip-path="url(#clip230)" d="
M206.436 1486.45 L2352.76 1486.45 L2352.76 47.2441 L206.436 47.2441  Z
  " fill="#ffffff" fill-rule="evenodd" fill-opacity="1"/>
<defs>
  <clipPath id="clip232">
    <rect x="206" y="47" width="2147" height="1440"/>
  </clipPath>
</defs>
<polyline clip-path="url(#clip232)" style="stroke:#000000; stroke-width:2; stroke-opacity:0.1; fill:none" points="
  586.144,1486.45 586.144,47.2441 
  "/>
<polyline clip-path="url(#clip232)" style="stroke:#000000; stroke-width:2; stroke-opacity:0.1; fill:none" points="
  1105.98,1486.45 1105.98,47.2441 
  "/>
<polyline clip-path="url(#clip232)" style="stroke:#000000; stroke-width:2; stroke-opacity:0.1; fill:none" points="
  1625.82,1486.45 1625.82,47.2441 
  "/>
<polyline clip-path="url(#clip232)" style="stroke:#000000; stroke-width:2; stroke-opacity:0.1; fill:none" points="
  2145.65,1486.45 2145.65,47.2441 
  "/>
<polyline clip-path="url(#clip230)" style="stroke:#000000; stroke-width:4; stroke-opacity:1; fill:none" points="
  206.436,1486.45 2352.76,1486.45 
  "/>
<polyline clip-path="url(#clip230)" style="stroke:#000000; stroke-width:4; stroke-opacity:1; fill:none" points="
  586.144,1486.45 586.144,1469.18 
  "/>
<polyline clip-path="url(#clip230)" style="stroke:#000000; stroke-width:4; stroke-opacity:1; fill:none" points="
  1105.98,1486.45 1105.98,1469.18 
  "/>
<polyline clip-path="url(#clip230)" style="stroke:#000000; stroke-width:4; stroke-opacity:1; fill:none" points="
  1625.82,1486.45 1625.82,1469.18 
  "/>
<polyline clip-path="url(#clip230)" style="stroke:#000000; stroke-width:4; stroke-opacity:1; fill:none" points="
  2145.65,1486.45 2145.65,1469.18 
  "/>
<path clip-path="url(#clip230)" d="M 0 0 M544.906 1530.29 L574.582 1530.29 L574.582 1534.23 L544.906 1534.23 L544.906 1530.29 Z" fill="#000000" fill-rule="evenodd" fill-opacity="1" /><path clip-path="url(#clip230)" d="M 0 0 M580.462 1543.18 L588.1 1543.18 L588.1 1516.82 L579.79 1518.49 L579.79 1514.23 L588.054 1512.56 L592.73 1512.56 L592.73 1543.18 L600.369 1543.18 L600.369 1547.12 L580.462 1547.12 L580.462 1543.18 Z" fill="#000000" fill-rule="evenodd" fill-opacity="1" /><path clip-path="url(#clip230)" d="M 0 0 M615.438 1515.64 Q611.827 1515.64 609.999 1519.2 Q608.193 1522.75 608.193 1529.87 Q608.193 1536.98 609.999 1540.55 Q611.827 1544.09 615.438 1544.09 Q619.073 1544.09 620.878 1540.55 Q622.707 1536.98 622.707 1529.87 Q622.707 1522.75 620.878 1519.2 Q619.073 1515.64 615.438 1515.64 M615.438 1511.93 Q621.248 1511.93 624.304 1516.54 Q627.383 1521.12 627.383 1529.87 Q627.383 1538.6 624.304 1543.21 Q621.248 1547.79 615.438 1547.79 Q609.628 1547.79 606.549 1543.21 Q603.494 1538.6 603.494 1529.87 Q603.494 1521.12 606.549 1516.54 Q609.628 1511.93 615.438 1511.93 Z" fill="#000000" fill-rule="evenodd" fill-opacity="1" /><path clip-path="url(#clip230)" d="M 0 0 M1078.13 1530.29 L1107.81 1530.29 L1107.81 1534.23 L1078.13 1534.23 L1078.13 1530.29 Z" fill="#000000" fill-rule="evenodd" fill-opacity="1" /><path clip-path="url(#clip230)" d="M 0 0 M1112.93 1512.56 L1131.28 1512.56 L1131.28 1516.5 L1117.21 1516.5 L1117.21 1524.97 Q1118.23 1524.62 1119.24 1524.46 Q1120.26 1524.27 1121.28 1524.27 Q1127.07 1524.27 1130.45 1527.44 Q1133.83 1530.62 1133.83 1536.03 Q1133.83 1541.61 1130.36 1544.71 Q1126.88 1547.79 1120.56 1547.79 Q1118.39 1547.79 1116.12 1547.42 Q1113.87 1547.05 1111.47 1546.31 L1111.47 1541.61 Q1113.55 1542.74 1115.77 1543.3 Q1118 1543.86 1120.47 1543.86 Q1124.48 1543.86 1126.81 1541.75 Q1129.15 1539.64 1129.15 1536.03 Q1129.15 1532.42 1126.81 1530.31 Q1124.48 1528.21 1120.47 1528.21 Q1118.6 1528.21 1116.72 1528.62 Q1114.87 1529.04 1112.93 1529.92 L1112.93 1512.56 Z" fill="#000000" fill-rule="evenodd" fill-opacity="1" /><path clip-path="url(#clip230)" d="M 0 0 M1625.82 1515.64 Q1622.21 1515.64 1620.38 1519.2 Q1618.57 1522.75 1618.57 1529.87 Q1618.57 1536.98 1620.38 1540.55 Q1622.21 1544.09 1625.82 1544.09 Q1629.45 1544.09 1631.26 1540.55 Q1633.09 1536.98 1633.09 1529.87 Q1633.09 1522.75 1631.26 1519.2 Q1629.45 1515.64 1625.82 1515.64 M1625.82 1511.93 Q1631.63 1511.93 1634.68 1516.54 Q1637.76 1521.12 1637.76 1529.87 Q1637.76 1538.6 1634.68 1543.21 Q1631.63 1547.79 1625.82 1547.79 Q1620.01 1547.79 1616.93 1543.21 Q1613.87 1538.6 1613.87 1529.87 Q1613.87 1521.12 1616.93 1516.54 Q1620.01 1511.93 1625.82 1511.93 Z" fill="#000000" fill-rule="evenodd" fill-opacity="1" /><path clip-path="url(#clip230)" d="M 0 0 M2135.93 1512.56 L2154.29 1512.56 L2154.29 1516.5 L2140.21 1516.5 L2140.21 1524.97 Q2141.23 1524.62 2142.25 1524.46 Q2143.27 1524.27 2144.29 1524.27 Q2150.08 1524.27 2153.46 1527.44 Q2156.84 1530.62 2156.84 1536.03 Q2156.84 1541.61 2153.36 1544.71 Q2149.89 1547.79 2143.57 1547.79 Q2141.4 1547.79 2139.13 1547.42 Q2136.88 1547.05 2134.47 1546.31 L2134.47 1541.61 Q2136.56 1542.74 2138.78 1543.3 Q2141 1543.86 2143.48 1543.86 Q2147.48 1543.86 2149.82 1541.75 Q2152.16 1539.64 2152.16 1536.03 Q2152.16 1532.42 2149.82 1530.31 Q2147.48 1528.21 2143.48 1528.21 Q2141.6 1528.21 2139.73 1528.62 Q2137.88 1529.04 2135.93 1529.92 L2135.93 1512.56 Z" fill="#000000" fill-rule="evenodd" fill-opacity="1" /><polyline clip-path="url(#clip232)" style="stroke:#000000; stroke-width:2; stroke-opacity:0.1; fill:none" points="
  206.436,1294.53 2352.76,1294.53 
  "/>
<polyline clip-path="url(#clip232)" style="stroke:#000000; stroke-width:2; stroke-opacity:0.1; fill:none" points="
  206.436,1083.17 2352.76,1083.17 
  "/>
<polyline clip-path="url(#clip232)" style="stroke:#000000; stroke-width:2; stroke-opacity:0.1; fill:none" points="
  206.436,871.802 2352.76,871.802 
  "/>
<polyline clip-path="url(#clip232)" style="stroke:#000000; stroke-width:2; stroke-opacity:0.1; fill:none" points="
  206.436,660.436 2352.76,660.436 
  "/>
<polyline clip-path="url(#clip232)" style="stroke:#000000; stroke-width:2; stroke-opacity:0.1; fill:none" points="
  206.436,449.069 2352.76,449.069 
  "/>
<polyline clip-path="url(#clip232)" style="stroke:#000000; stroke-width:2; stroke-opacity:0.1; fill:none" points="
  206.436,237.703 2352.76,237.703 
  "/>
<polyline clip-path="url(#clip230)" style="stroke:#000000; stroke-width:4; stroke-opacity:1; fill:none" points="
  206.436,1486.45 206.436,47.2441 
  "/>
<polyline clip-path="url(#clip230)" style="stroke:#000000; stroke-width:4; stroke-opacity:1; fill:none" points="
  206.436,1294.53 232.192,1294.53 
  "/>
<polyline clip-path="url(#clip230)" style="stroke:#000000; stroke-width:4; stroke-opacity:1; fill:none" points="
  206.436,1083.17 232.192,1083.17 
  "/>
<polyline clip-path="url(#clip230)" style="stroke:#000000; stroke-width:4; stroke-opacity:1; fill:none" points="
  206.436,871.802 232.192,871.802 
  "/>
<polyline clip-path="url(#clip230)" style="stroke:#000000; stroke-width:4; stroke-opacity:1; fill:none" points="
  206.436,660.436 232.192,660.436 
  "/>
<polyline clip-path="url(#clip230)" style="stroke:#000000; stroke-width:4; stroke-opacity:1; fill:none" points="
  206.436,449.069 232.192,449.069 
  "/>
<polyline clip-path="url(#clip230)" style="stroke:#000000; stroke-width:4; stroke-opacity:1; fill:none" points="
  206.436,237.703 232.192,237.703 
  "/>
<path clip-path="url(#clip230)" d="M 0 0 M50.9921 1294.99 L80.6679 1294.99 L80.6679 1298.92 L50.9921 1298.92 L50.9921 1294.99 Z" fill="#000000" fill-rule="evenodd" fill-opacity="1" /><path clip-path="url(#clip230)" d="M 0 0 M86.5475 1307.88 L94.1863 1307.88 L94.1863 1281.51 L85.8762 1283.18 L85.8762 1278.92 L94.14 1277.25 L98.8159 1277.25 L98.8159 1307.88 L106.455 1307.88 L106.455 1311.81 L86.5475 1311.81 L86.5475 1307.88 Z" fill="#000000" fill-rule="evenodd" fill-opacity="1" /><path clip-path="url(#clip230)" d="M 0 0 M121.524 1280.33 Q117.913 1280.33 116.084 1283.9 Q114.279 1287.44 114.279 1294.57 Q114.279 1301.68 116.084 1305.24 Q117.913 1308.78 121.524 1308.78 Q125.158 1308.78 126.964 1305.24 Q128.793 1301.68 128.793 1294.57 Q128.793 1287.44 126.964 1283.9 Q125.158 1280.33 121.524 1280.33 M121.524 1276.63 Q127.334 1276.63 130.39 1281.24 Q133.469 1285.82 133.469 1294.57 Q133.469 1303.3 130.39 1307.9 Q127.334 1312.49 121.524 1312.49 Q115.714 1312.49 112.635 1307.9 Q109.58 1303.3 109.58 1294.57 Q109.58 1285.82 112.635 1281.24 Q115.714 1276.63 121.524 1276.63 Z" fill="#000000" fill-rule="evenodd" fill-opacity="1" /><path clip-path="url(#clip230)" d="M 0 0 M138.538 1305.93 L143.422 1305.93 L143.422 1311.81 L138.538 1311.81 L138.538 1305.93 Z" fill="#000000" fill-rule="evenodd" fill-opacity="1" /><path clip-path="url(#clip230)" d="M 0 0 M158.492 1280.33 Q154.88 1280.33 153.052 1283.9 Q151.246 1287.44 151.246 1294.57 Q151.246 1301.68 153.052 1305.24 Q154.88 1308.78 158.492 1308.78 Q162.126 1308.78 163.931 1305.24 Q165.76 1301.68 165.76 1294.57 Q165.76 1287.44 163.931 1283.9 Q162.126 1280.33 158.492 1280.33 M158.492 1276.63 Q164.302 1276.63 167.357 1281.24 Q170.436 1285.82 170.436 1294.57 Q170.436 1303.3 167.357 1307.9 Q164.302 1312.49 158.492 1312.49 Q152.681 1312.49 149.603 1307.9 Q146.547 1303.3 146.547 1294.57 Q146.547 1285.82 149.603 1281.24 Q152.681 1276.63 158.492 1276.63 Z" fill="#000000" fill-rule="evenodd" fill-opacity="1" /><path clip-path="url(#clip230)" d="M 0 0 M78.6772 1083.62 L108.353 1083.62 L108.353 1087.55 L78.6772 1087.55 L78.6772 1083.62 Z" fill="#000000" fill-rule="evenodd" fill-opacity="1" /><path clip-path="url(#clip230)" d="M 0 0 M112.242 1065.89 L134.464 1065.89 L134.464 1067.88 L121.918 1100.45 L117.033 1100.45 L128.839 1069.82 L112.242 1069.82 L112.242 1065.89 Z" fill="#000000" fill-rule="evenodd" fill-opacity="1" /><path clip-path="url(#clip230)" d="M 0 0 M139.533 1094.57 L144.418 1094.57 L144.418 1100.45 L139.533 1100.45 L139.533 1094.57 Z" fill="#000000" fill-rule="evenodd" fill-opacity="1" /><path clip-path="url(#clip230)" d="M 0 0 M149.533 1065.89 L167.89 1065.89 L167.89 1069.82 L153.816 1069.82 L153.816 1078.3 Q154.834 1077.95 155.853 1077.79 Q156.871 1077.6 157.89 1077.6 Q163.677 1077.6 167.056 1080.77 Q170.436 1083.94 170.436 1089.36 Q170.436 1094.94 166.964 1098.04 Q163.492 1101.12 157.172 1101.12 Q154.996 1101.12 152.728 1100.75 Q150.482 1100.38 148.075 1099.64 L148.075 1094.94 Q150.158 1096.07 152.38 1096.63 Q154.603 1097.18 157.08 1097.18 Q161.084 1097.18 163.422 1095.08 Q165.76 1092.97 165.76 1089.36 Q165.76 1085.75 163.422 1083.64 Q161.084 1081.54 157.08 1081.54 Q155.205 1081.54 153.33 1081.95 Q151.478 1082.37 149.533 1083.25 L149.533 1065.89 Z" fill="#000000" fill-rule="evenodd" fill-opacity="1" /><path clip-path="url(#clip230)" d="M 0 0 M77.7744 872.253 L107.45 872.253 L107.45 876.188 L77.7744 876.188 L77.7744 872.253 Z" fill="#000000" fill-rule="evenodd" fill-opacity="1" /><path clip-path="url(#clip230)" d="M 0 0 M112.566 854.522 L130.922 854.522 L130.922 858.457 L116.848 858.457 L116.848 866.929 Q117.867 866.582 118.885 866.42 Q119.904 866.235 120.922 866.235 Q126.709 866.235 130.089 869.406 Q133.469 872.577 133.469 877.994 Q133.469 883.573 129.996 886.674 Q126.524 889.753 120.205 889.753 Q118.029 889.753 115.76 889.383 Q113.515 889.012 111.108 888.272 L111.108 883.573 Q113.191 884.707 115.413 885.262 Q117.635 885.818 120.112 885.818 Q124.117 885.818 126.455 883.711 Q128.793 881.605 128.793 877.994 Q128.793 874.383 126.455 872.276 Q124.117 870.17 120.112 870.17 Q118.237 870.17 116.362 870.587 Q114.51 871.003 112.566 871.883 L112.566 854.522 Z" fill="#000000" fill-rule="evenodd" fill-opacity="1" /><path clip-path="url(#clip230)" d="M 0 0 M138.538 883.202 L143.422 883.202 L143.422 889.082 L138.538 889.082 L138.538 883.202 Z" fill="#000000" fill-rule="evenodd" fill-opacity="1" /><path clip-path="url(#clip230)" d="M 0 0 M158.492 857.601 Q154.88 857.601 153.052 861.165 Q151.246 864.707 151.246 871.837 Q151.246 878.943 153.052 882.508 Q154.88 886.049 158.492 886.049 Q162.126 886.049 163.931 882.508 Q165.76 878.943 165.76 871.837 Q165.76 864.707 163.931 861.165 Q162.126 857.601 158.492 857.601 M158.492 853.897 Q164.302 853.897 167.357 858.503 Q170.436 863.087 170.436 871.837 Q170.436 880.563 167.357 885.17 Q164.302 889.753 158.492 889.753 Q152.681 889.753 149.603 885.17 Q146.547 880.563 146.547 871.837 Q146.547 863.087 149.603 858.503 Q152.681 853.897 158.492 853.897 Z" fill="#000000" fill-rule="evenodd" fill-opacity="1" /><path clip-path="url(#clip230)" d="M 0 0 M79.3716 660.887 L109.047 660.887 L109.047 664.822 L79.3716 664.822 L79.3716 660.887 Z" fill="#000000" fill-rule="evenodd" fill-opacity="1" /><path clip-path="url(#clip230)" d="M 0 0 M118.145 673.78 L134.464 673.78 L134.464 677.716 L112.52 677.716 L112.52 673.78 Q115.182 671.026 119.765 666.396 Q124.371 661.744 125.552 660.401 Q127.797 657.878 128.677 656.142 Q129.58 654.382 129.58 652.693 Q129.58 649.938 127.635 648.202 Q125.714 646.466 122.612 646.466 Q120.413 646.466 117.959 647.23 Q115.529 647.994 112.751 649.545 L112.751 644.822 Q115.575 643.688 118.029 643.109 Q120.482 642.531 122.52 642.531 Q127.89 642.531 131.084 645.216 Q134.279 647.901 134.279 652.392 Q134.279 654.521 133.469 656.443 Q132.682 658.341 130.575 660.933 Q129.996 661.605 126.894 664.822 Q123.793 668.017 118.145 673.78 Z" fill="#000000" fill-rule="evenodd" fill-opacity="1" /><path clip-path="url(#clip230)" d="M 0 0 M139.533 671.836 L144.418 671.836 L144.418 677.716 L139.533 677.716 L139.533 671.836 Z" fill="#000000" fill-rule="evenodd" fill-opacity="1" /><path clip-path="url(#clip230)" d="M 0 0 M149.533 643.156 L167.89 643.156 L167.89 647.091 L153.816 647.091 L153.816 655.563 Q154.834 655.216 155.853 655.054 Q156.871 654.869 157.89 654.869 Q163.677 654.869 167.056 658.04 Q170.436 661.211 170.436 666.628 Q170.436 672.206 166.964 675.308 Q163.492 678.387 157.172 678.387 Q154.996 678.387 152.728 678.017 Q150.482 677.646 148.075 676.905 L148.075 672.206 Q150.158 673.341 152.38 673.896 Q154.603 674.452 157.08 674.452 Q161.084 674.452 163.422 672.345 Q165.76 670.239 165.76 666.628 Q165.76 663.017 163.422 660.91 Q161.084 658.804 157.08 658.804 Q155.205 658.804 153.33 659.22 Q151.478 659.637 149.533 660.517 L149.533 643.156 Z" fill="#000000" fill-rule="evenodd" fill-opacity="1" /><path clip-path="url(#clip230)" d="M 0 0 M121.524 434.868 Q117.913 434.868 116.084 438.433 Q114.279 441.975 114.279 449.104 Q114.279 456.211 116.084 459.775 Q117.913 463.317 121.524 463.317 Q125.158 463.317 126.964 459.775 Q128.793 456.211 128.793 449.104 Q128.793 441.975 126.964 438.433 Q125.158 434.868 121.524 434.868 M121.524 431.164 Q127.334 431.164 130.39 435.771 Q133.469 440.354 133.469 449.104 Q133.469 457.831 130.39 462.437 Q127.334 467.021 121.524 467.021 Q115.714 467.021 112.635 462.437 Q109.58 457.831 109.58 449.104 Q109.58 440.354 112.635 435.771 Q115.714 431.164 121.524 431.164 Z" fill="#000000" fill-rule="evenodd" fill-opacity="1" /><path clip-path="url(#clip230)" d="M 0 0 M138.538 460.47 L143.422 460.47 L143.422 466.349 L138.538 466.349 L138.538 460.47 Z" fill="#000000" fill-rule="evenodd" fill-opacity="1" /><path clip-path="url(#clip230)" d="M 0 0 M158.492 434.868 Q154.88 434.868 153.052 438.433 Q151.246 441.975 151.246 449.104 Q151.246 456.211 153.052 459.775 Q154.88 463.317 158.492 463.317 Q162.126 463.317 163.931 459.775 Q165.76 456.211 165.76 449.104 Q165.76 441.975 163.931 438.433 Q162.126 434.868 158.492 434.868 M158.492 431.164 Q164.302 431.164 167.357 435.771 Q170.436 440.354 170.436 449.104 Q170.436 457.831 167.357 462.437 Q164.302 467.021 158.492 467.021 Q152.681 467.021 149.603 462.437 Q146.547 457.831 146.547 449.104 Q146.547 440.354 149.603 435.771 Q152.681 431.164 158.492 431.164 Z" fill="#000000" fill-rule="evenodd" fill-opacity="1" /><path clip-path="url(#clip230)" d="M 0 0 M118.145 251.048 L134.464 251.048 L134.464 254.983 L112.52 254.983 L112.52 251.048 Q115.182 248.294 119.765 243.664 Q124.371 239.011 125.552 237.669 Q127.797 235.145 128.677 233.409 Q129.58 231.65 129.58 229.96 Q129.58 227.206 127.635 225.47 Q125.714 223.733 122.612 223.733 Q120.413 223.733 117.959 224.497 Q115.529 225.261 112.751 226.812 L112.751 222.09 Q115.575 220.956 118.029 220.377 Q120.482 219.798 122.52 219.798 Q127.89 219.798 131.084 222.483 Q134.279 225.169 134.279 229.659 Q134.279 231.789 133.469 233.71 Q132.682 235.608 130.575 238.201 Q129.996 238.872 126.894 242.09 Q123.793 245.284 118.145 251.048 Z" fill="#000000" fill-rule="evenodd" fill-opacity="1" /><path clip-path="url(#clip230)" d="M 0 0 M139.533 249.104 L144.418 249.104 L144.418 254.983 L139.533 254.983 L139.533 249.104 Z" fill="#000000" fill-rule="evenodd" fill-opacity="1" /><path clip-path="url(#clip230)" d="M 0 0 M149.533 220.423 L167.89 220.423 L167.89 224.358 L153.816 224.358 L153.816 232.831 Q154.834 232.483 155.853 232.321 Q156.871 232.136 157.89 232.136 Q163.677 232.136 167.056 235.307 Q170.436 238.479 170.436 243.895 Q170.436 249.474 166.964 252.576 Q163.492 255.655 157.172 255.655 Q154.996 255.655 152.728 255.284 Q150.482 254.914 148.075 254.173 L148.075 249.474 Q150.158 250.608 152.38 251.164 Q154.603 251.719 157.08 251.719 Q161.084 251.719 163.422 249.613 Q165.76 247.506 165.76 243.895 Q165.76 240.284 163.422 238.178 Q161.084 236.071 157.08 236.071 Q155.205 236.071 153.33 236.488 Q151.478 236.905 149.533 237.784 L149.533 220.423 Z" fill="#000000" fill-rule="evenodd" fill-opacity="1" /><circle clip-path="url(#clip232)" cx="267.181" cy="495.114" r="14" fill="#009af9" fill-rule="evenodd" fill-opacity="1" stroke="#000000" stroke-opacity="1" stroke-width="3.2"/>
<circle clip-path="url(#clip232)" cx="1774.06" cy="1445.72" r="14" fill="#009af9" fill-rule="evenodd" fill-opacity="1" stroke="#000000" stroke-opacity="1" stroke-width="3.2"/>
<circle clip-path="url(#clip232)" cx="392.248" cy="87.9763" r="14" fill="#009af9" fill-rule="evenodd" fill-opacity="1" stroke="#000000" stroke-opacity="1" stroke-width="3.2"/>
<circle clip-path="url(#clip232)" cx="2292.01" cy="1311.25" r="14" fill="#009af9" fill-rule="evenodd" fill-opacity="1" stroke="#000000" stroke-opacity="1" stroke-width="3.2"/>
<path clip-path="url(#clip230)" d="
M1991.71 216.178 L2281.21 216.178 L2281.21 95.2176 L1991.71 95.2176  Z
  " fill="#ffffff" fill-rule="evenodd" fill-opacity="1"/>
<polyline clip-path="url(#clip230)" style="stroke:#000000; stroke-width:4; stroke-opacity:1; fill:none" points="
  1991.71,216.178 2281.21,216.178 2281.21,95.2176 1991.71,95.2176 1991.71,216.178 
  "/>
<circle clip-path="url(#clip230)" cx="2087.11" cy="155.698" r="23" fill="#009af9" fill-rule="evenodd" fill-opacity="1" stroke="#000000" stroke-opacity="1" stroke-width="5.12"/>
<path clip-path="url(#clip230)" d="M 0 0 M2196.34 175.385 Q2194.53 180.015 2192.82 181.427 Q2191.11 182.839 2188.24 182.839 L2184.84 182.839 L2184.84 179.274 L2187.34 179.274 Q2189.09 179.274 2190.07 178.44 Q2191.04 177.607 2192.22 174.505 L2192.98 172.561 L2182.5 147.052 L2187.01 147.052 L2195.11 167.329 L2203.22 147.052 L2207.73 147.052 L2196.34 175.385 Z" fill="#000000" fill-rule="evenodd" fill-opacity="1" /><path clip-path="url(#clip230)" d="M 0 0 M2213.61 169.042 L2221.25 169.042 L2221.25 142.677 L2212.94 144.343 L2212.94 140.084 L2221.2 138.418 L2225.88 138.418 L2225.88 169.042 L2233.52 169.042 L2233.52 172.978 L2213.61 172.978 L2213.61 169.042 Z" fill="#000000" fill-rule="evenodd" fill-opacity="1" /></svg>
